<svg id="ecusson" xmlns="http://www.w3.org/2000/svg" viewBox="0 0 296.93 296.93"><defs><style>.cls-1{fill:#051b25;}.cls-2{fill:#f2efd4;}.cls-3{fill:#fff;}</style></defs><title>Tigre</title><circle class="cls-1" cx="148.46" cy="148.46" r="148.46"/><circle class="cls-1" cx="163.83" cy="161.81" r="133.96" transform="translate(-47.15 26.16) rotate(-12.56)"/><path class="cls-2" d="M279.27,193.75q1.17,1.61,2.33,3.28l1.15,1.69,1.08,1.7c1.62,2.58,4.08,3.24,6.69,4.11a1,1,0,0,1,.54,1.37l-0.72,2.1-0.81,2.07-1.64,4.13a1.06,1.06,0,0,1-1.33.64l-6.92-3a1,1,0,0,1-.45-1.33,33.05,33.05,0,0,0,1.48-4.1,9,9,0,0,0,.31-2.07,8,8,0,0,0-.31-2.19q-0.57-2-1.17-3.92c-0.4-1.29-.89-2.58-1.34-3.84C277.72,193.32,278.6,192.75,279.27,193.75Z" transform="translate(-15.88 -13.35)"/><path class="cls-2" d="M276.13,192.82a1.2,1.2,0,0,1,.06.89l-0.39,1.42a0.94,0.94,0,0,1-1.18.66l-6.91-2.13a1.7,1.7,0,0,0-2.11,1,1.65,1.65,0,0,0,1.1,2l7.22,2.45a1,1,0,0,1,.59,1.23c-0.2.59-.39,1.19-0.61,1.77l-0.69,1.74-1.38,3.48a1,1,0,0,1-1.28.51l-24-10.43c-1-.42-0.85-1.33.45-1q7.39,1.95,14.91,3.56c2.23,0.52,3.26-2,1.12-3.06q-6.71-3.36-13.5-6.47c-1.48-.64-0.93-2,0.6-1.76,5,0.79,10,1.46,15,2a2,2,0,0,0,2.07-.83,2.26,2.26,0,0,0,.27-1.19,4.54,4.54,0,0,0-.42-1.61,90.7,90.7,0,0,0-13.77-22.75,0.81,0.81,0,0,1,0-1.35,1.44,1.44,0,0,1,1.72,0q3,1.71,6,3.65c1.94,1.28,3.85,2.64,5.77,4.07,1,0.71,1.93,1.45,2.86,2.2s1.84,1.52,2.76,2.3,1.83,1.59,2.75,2.41,1.83,1.66,2.69,2.52c1.93,1.89,3.74,1.69,4.44-.27l1.18-3.81,0.59-1.92,0.5-1.94,1-3.91c0.29-1.31.54-2.64,0.8-4,0.27-1.65,2.24-1.71,2.36,0,0.13,1.35.28,2.7,0.39,4.06l0.2,4.09,0.09,2.05v2.05l0,4.13c-0.1,2.59,2.71,3.07,3.5.56l1.22-4.21c0.2-.71.41-1.41,0.59-2.12l0.51-2.14,1-4.32,0.79-4.37c0.33-1.56,1.47-1.21,1.44,0a136.12,136.12,0,0,1-4,30.47,1,1,0,0,1-1.19.85l-7.08-1.84a1,1,0,0,1-.67-1.25c0.62-2.72,1.31-5.43,1.75-8.18a1.75,1.75,0,0,0-1.34-2.11,1.79,1.79,0,0,0-2,1.5c-0.4,2.54-1,5-1.6,7.55a1,1,0,0,1-1.15.75l-1.89-.5q-1.43-2.35-2.89-4.58l-1.47-2.2c-0.52-.73-1-1.45-1.57-2.16a1.48,1.48,0,0,0-2-.38l0,0a1.36,1.36,0,0,0-.36,1.92q1.34,2.08,2.65,4.27c0.43,0.73.88,1.47,1.3,2.22Z" transform="translate(-15.88 -13.35)"/><path class="cls-2" d="M256.34,237.79q0.8,3.87,1.43,7.92a7.6,7.6,0,0,0,1.63,3.68,25.94,25.94,0,0,0,2.82,2.8,1,1,0,0,1-.07,1.46l-3.07,3.2-3.21,3.06a1,1,0,0,1-1.45.07l-5.1-5.55a1,1,0,0,1,.11-1.42,33,33,0,0,0,3.05-3.1,8.62,8.62,0,0,0,1.71-3.91l0.29-2c0.08-.68.15-1.37,0.22-2q0.2-2,.36-4C255.12,236.78,256.12,236.59,256.34,237.79Z" transform="translate(-15.88 -13.35)"/><path class="cls-2" d="M253.85,235.66a1.17,1.17,0,0,1-.32.83l-1,1.12a1,1,0,0,1-1.35.11L245.78,233a1.64,1.64,0,0,0-2.31.08,1.67,1.67,0,0,0,.17,2.32l5.59,5.18a1,1,0,0,1,0,1.35c-0.86.9-1.72,1.81-2.59,2.7L244,247.18a0.94,0.94,0,0,1-1.35,0l-17.71-19.29c-0.71-.78-0.27-1.6.82-0.79q6,4.79,12.21,9.34c1.86,1.42,3.72-.55,2.25-2.36q-4.75-5.79-9.67-11.38c-1.07-1.17,0-2.28,1.24-1.4q6.35,4.13,13,8a1.94,1.94,0,0,0,2.23.08,3.33,3.33,0,0,0,1-2.63,89.76,89.76,0,0,0-3.25-26.36,0.81,0.81,0,0,1,.55-1.22,1.45,1.45,0,0,1,1.56.72,112.15,112.15,0,0,1,13.82,24.94c1,2.54,2.74,3.08,4.15,1.56a116.92,116.92,0,0,0,10.09-12.52c0.89-1.41,2.71-.67,2.14,1-0.38,1.31-.89,2.56-1.34,3.85l-0.7,1.93-0.35,1-0.39.95-1.59,3.79-0.4,1-0.44.93-0.89,1.86c-1.12,2.35,1.26,3.93,3,1.94l1.45-1.64,0.72-.83,0.69-.85,2.76-3.44c0.93-1.15,1.75-2.37,2.63-3.57s1.75-2.4,2.54-3.66,1.82-.52,1.31.61a132.25,132.25,0,0,1-16.12,26.18,1,1,0,0,1-1.43.29l-5.71-4.57a1,1,0,0,1-.1-1.41l1.29-1.64,0.64-.82,0.61-.85,2.42-3.41a1.75,1.75,0,0,0-.38-2.48,1.79,1.79,0,0,0-2.42.57c-1.5,2.09-2.94,4.22-4.57,6.22a1,1,0,0,1-1.37.21l-1.52-1.23c-0.22-1.81-.44-3.57-0.73-5.33s-0.65-3.52-1-5.23a1.48,1.48,0,0,0-1.68-1.17h0a1.34,1.34,0,0,0-1.13,1.59l0.4,2.5c0.11,0.83.2,1.66,0.3,2.5Q253.65,233.05,253.85,235.66Z" transform="translate(-15.88 -13.35)"/><path class="cls-2" d="M217.49,268.68c-0.52,2.65-1.18,5.2-1.91,7.83-0.82,3,.33,5.22,1.43,7.75a1.05,1.05,0,0,1-.65,1.33l-4.13,1.64c-0.69.27-1.38,0.55-2.07,0.8l-2.1.72a1,1,0,0,1-1.36-.54l-2.4-7.15a1,1,0,0,1,.68-1.24l2.1-.71a17.89,17.89,0,0,0,1.94-.9,8.53,8.53,0,0,0,3.18-2.82c1.44-2.39,2.83-4.69,4.08-7.07C216.77,267.24,217.78,267.5,217.49,268.68Z" transform="translate(-15.88 -13.35)"/><path class="cls-2" d="M216.07,265.72a1.22,1.22,0,0,1-.62.65c-0.43.23-.87,0.46-1.32,0.66a1,1,0,0,1-1.29-.46l-3-6.56a1.67,1.67,0,0,0-2.15-.89,1.69,1.69,0,0,0-.77,2.21l3,7a1,1,0,0,1-.52,1.26L205.88,271c-0.58.22-1.16,0.47-1.75,0.67l-1.77.6a1,1,0,0,1-1.23-.59l-8.33-24.83c-0.33-1,.41-1.56,1.07-0.36,2.34,4.56,4.8,9.08,7.35,13.49,1.1,2,3.63,1,3-1.22s-1.34-4.79-2-7.18-1.43-4.79-2.18-7.17c-0.52-1.53.88-2.1,1.7-.77,2.75,4.24,5.64,8.48,8.59,12.57,1.14,1.59,2.86,1.3,4-1a89.7,89.7,0,0,0,7.7-25.45,0.81,0.81,0,0,1,1-.88,1.45,1.45,0,0,1,1.13,1.29c0.48,2.24.95,4.57,1.29,6.87s0.63,4.64.85,7,0.33,4.74.41,7.18c0,1.21.06,2.45,0.05,3.67s0,2.43-.09,3.66c-0.11,2.72,1.25,3.92,3.16,3.12,1.24-.49,2.43-1.08,3.63-1.65s2.43-1.13,3.61-1.76c2.35-1.27,4.76-2.51,7-4,1.4-.91,2.76.51,1.54,1.79-1.78,2.06-3.72,4-5.65,5.91-1,1-2,1.87-3,2.81s-2,1.88-3.09,2.74c-2,1.67-.46,4.08,1.92,3,1.35-.57,2.64-1.25,4-1.9l2-1c0.66-.33,1.32-0.66,2-1l3.86-2.18c0.65-.36,1.28-0.75,1.91-1.14l1.88-1.18c1.38-.8,1.88.28,0.95,1.09A132.66,132.66,0,0,1,227,280.58a1,1,0,0,1-1.43-.33l-3.37-6.49a1,1,0,0,1,.49-1.32c1.25-.61,2.45-1.34,3.66-2l1.81-1c0.61-.34,1.21-0.7,1.79-1.08a1.78,1.78,0,0,0,.66-2.43,1.76,1.76,0,0,0-2.44-.45l-0.81.52-0.84.48-1.67,1-1.67,1c-0.55.33-1.12,0.64-1.69,0.92a1,1,0,0,1-1.34-.38l-0.89-1.74c0.27-.86.54-1.72,0.79-2.57l0.69-2.62c0.44-1.74.85-3.45,1.22-5.15a1.48,1.48,0,0,0-1.06-1.75h0a1.34,1.34,0,0,0-1.69,1c-0.43,1.6-.88,3.24-1.38,4.87S216.66,264.09,216.07,265.72Z" transform="translate(-15.88 -13.35)"/><path class="cls-2" d="M169.42,281.09q-2.33,3.2-4.93,6.39c-2,2.34-1.82,4.86-1.84,7.63a1,1,0,0,1-1.13.92c-1.48,0-3-.07-4.43-0.13l-4.42-.33a1,1,0,0,1-1-1l0.71-7.51a1,1,0,0,1,1.13-.87,34.21,34.21,0,0,0,4.35.2,8.62,8.62,0,0,0,4-1.35c2.28-1.47,4.48-3.15,6.59-4.77C169.35,279.49,170.16,280.15,169.42,281.09Z" transform="translate(-15.88 -13.35)"/><path class="cls-2" d="M169.33,277.81a1.19,1.19,0,0,1-.83.32l-1.47.05a1,1,0,0,1-1-.93L165.94,270a1.61,1.61,0,1,0-3.21,0l-0.1,7.62a1,1,0,0,1-1,.93c-1.25,0-2.5,0-3.74-.11l-3.73-.28a0.94,0.94,0,0,1-.88-1l2.46-26.07c0.1-1,1-1.27,1.13.08q0.44,7.65,1.24,15.32c0.19,2.33,2.9,2.4,3.26.09q1.12-7.4,2-14.81a1,1,0,0,1,.92-1.16,1.12,1.12,0,0,1,1,1.15q1.18,7.48,2.73,15a2,2,0,0,0,1.43,1.73,3.23,3.23,0,0,0,2.62-1,89.43,89.43,0,0,0,17.4-20.06,0.81,0.81,0,0,1,1.29-.36,1.45,1.45,0,0,1,.51,1.64,114.39,114.39,0,0,1-9.29,27,3.71,3.71,0,0,0-.43,3,2,2,0,0,0,2,1.16h5l1-.05,2-.11,2-.11,1-.06,1-.1,4-.43a1.36,1.36,0,0,1,1.58.79,1.2,1.2,0,0,1-.9,1.47l-3.76,1.6-0.95.4-1,.36-1.92.71-1.93.71c-0.65.24-1.29,0.47-1.95,0.67l-3.95,1.22a2,2,0,0,0-1.65,2,1.91,1.91,0,0,0,2.18,1.45l4.39-.1c1.47,0,2.93-.19,4.4-0.28,3-.17,5.88-0.59,8.84-1,0.8-.07,1.2.17,1.25,0.49a0.92,0.92,0,0,1-.83.89,135.8,135.8,0,0,1-30.25,5.53,1,1,0,0,1-1.17-.87l-0.42-7.3a1,1,0,0,1,1-1l4.17-.32c1.39-.15,2.77-0.34,4.15-0.51a1.74,1.74,0,0,0,1.6-1.91,1.8,1.8,0,0,0-2-1.45l-3.83.48-3.85.3a1,1,0,0,1-1.07-.87l-0.1-2q1.8-2.07,3.47-4.13l0.83-1,0.81-1.07L178.3,272a1.48,1.48,0,0,0-.26-2l0,0a1.34,1.34,0,0,0-1.93.25c-1,1.33-2.13,2.55-3.25,3.84l-1.71,1.91C170.53,276.59,169.94,277.22,169.33,277.81Z" transform="translate(-15.88 -13.35)"/><path class="cls-2" d="M120.46,272.9q-1.73,1-3.51,2c-1.19.65-2.37,1.24-3.59,1.84-2.74,1.35-3.66,3.72-4.8,6.23a1.05,1.05,0,0,1-1.42.4c-1.36-.59-2.66-1.31-4-2l-2-1-1-.51-1-.55a1.05,1.05,0,0,1-.5-1.38l3.71-6.57a1,1,0,0,1,1.37-.31l1,0.56,1,0.5a19,19,0,0,0,2,.86,7.8,7.8,0,0,0,4.23.46c2.73-.51,5.35-1,8-1.68C121.05,271.41,121.53,272.34,120.46,272.9Z" transform="translate(-15.88 -13.35)"/><path class="cls-2" d="M121.72,269.87a1.21,1.21,0,0,1-.89,0l-1.38-.53a0.94,0.94,0,0,1-.52-1.25l2.84-6.65a1.69,1.69,0,0,0-.77-2.21,1.66,1.66,0,0,0-2.15.89l-3.2,6.92a1,1,0,0,1-1.29.46c-0.57-.25-1.13-0.53-1.69-0.82L111,265.8c-1.1-.58-2.24-1.1-3.31-1.75a1,1,0,0,1-.38-1.32l12.9-22.79c0.52-.91,1.43-0.73,1,0.57-1.83,4.79-3.51,9.58-5.11,14.46-0.75,2.15,1.64,3.43,2.92,1.45q4-6.32,7.86-12.76c0.79-1.41,2.14-.73,1.7.77-1.33,4.92-2.51,9.81-3.59,14.77-0.42,1.9.93,3,3.41,2.3a89.72,89.72,0,0,0,24-11.32,0.81,0.81,0,0,1,1.33.17,1.45,1.45,0,0,1-.2,1.7c-1.34,1.86-2.75,3.73-4.24,5.57s-3,3.56-4.65,5.32-3.3,3.44-5.06,5.11-3.59,3.35-5.47,4.89c-2.09,1.73-2.08,3.54-.2,4.45a119.61,119.61,0,0,0,15,5.66c1.61,0.44,1.48,2.4-.29,2.34a125.82,125.82,0,0,1-16.39-1c-2.57-.39-3.34,2.36-0.93,3.42,1.34,0.58,2.7,1.1,4.06,1.65l2.05,0.81c0.69,0.27,1.38.49,2.08,0.73l4.2,1.43c1.41,0.44,2.84.83,4.27,1.24s1.06,1.59-.17,1.43a135.21,135.21,0,0,1-29.92-7.16,1.06,1.06,0,0,1-.71-1.3l2.58-6.84a1,1,0,0,1,1.31-.51l4,1.35,2,0.67,2,0.58a1.7,1.7,0,1,0,1-3.25l-1.86-.53-1.83-.61-3.66-1.24A1,1,0,0,1,122,275l0.7-1.83c1.64-.73,3.28-1.58,4.86-2.38s3.12-1.62,4.65-2.55a1.48,1.48,0,0,0,.59-2l0,0a1.32,1.32,0,0,0-.81-0.67,1.34,1.34,0,0,0-1,.09q-2.21,1.12-4.54,2.21l-1.17.54-1.17.49Z" transform="translate(-15.88 -13.35)"/><path class="cls-2" d="M79.08,245.49c-2.62.27-5.33,0.49-8,.62-3,.1-4.83,1.91-6.9,3.73a1,1,0,0,1-1.45-.22c-2-2.2-3.77-4.56-5.6-6.88a1,1,0,0,1,.09-1.46l6.06-4.5a1,1,0,0,1,1.39.26,34.23,34.23,0,0,0,2.79,3.34,10,10,0,0,0,.78.7,9.08,9.08,0,0,0,.88.58,8,8,0,0,0,2,.84c1.34,0.33,2.64.67,4,.95s2.67,0.52,4,.76C80.23,244.36,80.28,245.41,79.08,245.49Z" transform="translate(-15.88 -13.35)"/><path class="cls-2" d="M81.46,243.23a1.19,1.19,0,0,1-.79-0.4l-1-1.06a1,1,0,0,1,0-1.35L85,235.5a1.65,1.65,0,0,0,.16-2.31,1.63,1.63,0,0,0-2.31-.08l-5.73,5a1,1,0,0,1-1.35-.11c-1.67-1.86-3.17-3.86-4.72-5.82a0.94,0.94,0,0,1,.18-1.34l21-15.61c0.83-.62,1.62-0.1.69,0.9q-5.38,5.44-10.54,11.16a1.63,1.63,0,1,0,2.1,2.49q6.26-4.13,12.34-8.45c1.29-1,2.23.23,1.24,1.39q-4.76,5.88-9.28,12a2,2,0,0,0-.32,2.22A3.21,3.21,0,0,0,91,238.26a90.56,90.56,0,0,0,26.57-.48,0.83,0.83,0,0,1,1.15.69,1.45,1.45,0,0,1-.88,1.47,114.06,114.06,0,0,1-26.26,11.14c-2.63.75-3.36,2.41-2,4l2.67,3L95,260.86l1.42,1.43,1.48,1.36,3,2.73c1.32,1,.39,2.76-1.22,2L96,266.66l-1.85-.89-1.8-1-3.62-2-3.53-2.13c-2.23-1.34-4,.86-2.24,2.74l3,3.2,3.15,3.07c0.53,0.51,1.06,1,1.6,1.53l1.66,1.47c1.11,1,2.22,2,3.36,2.92s0.33,1.86-.74,1.24a135.89,135.89,0,0,1-24.33-18.76,1,1,0,0,1-.14-1.45l5.14-5.2a1,1,0,0,1,1.42,0l3,2.88,3.16,2.74a1.73,1.73,0,0,0,2.48-.09,1.81,1.81,0,0,0-.29-2.49l-2.92-2.53c-0.95-.87-1.87-1.77-2.8-2.65A1,1,0,0,1,79.7,248l1.38-1.38q2.74,0,5.39-.18c1.76-.09,3.57-0.28,5.31-0.46a1.48,1.48,0,0,0,1.33-1.55v0a1.34,1.34,0,0,0-1.47-1.28l-1.26.08-1.25,0-2.52,0H82.74Z" transform="translate(-15.88 -13.35)"/><path class="cls-2" d="M52.39,203.63c-1.3-.4-2.53-0.84-3.79-1.29s-2.52-.93-3.79-1.43c-2.87-1.13-5.24-.22-7.87.61a1,1,0,0,1-1.22-.8l-1.21-4.28-0.3-1.07-0.25-1.08-0.5-2.17a1,1,0,0,1,.68-1.3l7.36-1.64a1,1,0,0,1,1.16.81c0.62,2.95,1.28,5.7,3.66,7.65l0.8,0.64,0.83,0.62,1.66,1.22q1.65,1.2,3.29,2.34C53.89,203.07,53.54,204,52.39,203.63Z" transform="translate(-15.88 -13.35)"/><path class="cls-2" d="M55.48,202.53a1.23,1.23,0,0,1-.59-0.68l-0.49-1.39a1,1,0,0,1,.59-1.23l6.84-2.34a1.65,1.65,0,0,0,1.1-2,1.7,1.7,0,0,0-2.12-1l-7.28,2.25a0.94,0.94,0,0,1-1.18-.65l-1-3.61c-0.18-.6-0.33-1.21-0.46-1.82l-0.42-1.83a1,1,0,0,1,.71-1.16l25.57-5.67c1-.22,1.51.57,0.26,1.1-4.76,1.85-9.53,3.82-14.21,5.89-2.1.88-1.39,3.5,0.92,3.12,4.92-.81,9.8-1.7,14.69-2.69,1.58-.35,2,1.09.6,1.76Q72.22,194,65.57,197.8c-1.71,1-1.58,2.7.6,4.06a89,89,0,0,0,24.48,10.32,0.81,0.81,0,0,1,.78,1.09,1.45,1.45,0,0,1-1.4,1q-1.72.2-3.48,0.35c-1.18.1-2.31,0.16-3.48,0.22-2.32.1-4.72,0.16-7.1,0.13s-4.75-.16-7.19-0.34L67,214.46l-1.8-.19q-1.81-.21-3.64-0.46c-2.7-.39-4,0.83-3.43,2.82,0.74,2.56,1.72,5,2.63,7.56,0.49,1.25,1,2.47,1.54,3.72l0.79,1.87c0.27,0.62.58,1.22,0.86,1.83,0.77,1.48-.78,2.69-1.94,1.35-0.46-.5-0.93-1-1.37-1.51l-1.31-1.56c-0.87-1-1.76-2.09-2.61-3.16l-2.48-3.28c-0.41-.55-0.84-1.09-1.23-1.66l-1.16-1.71c-1.46-2.15-4-.88-3.16,1.6l0.69,2.08c0.24,0.69.51,1.37,0.77,2.05l1.6,4.12L53.51,234l0.91,2,1,2c0.66,1.45-.46,1.84-1.18.83-1.53-2.07-2.85-4.27-4.25-6.42-0.71-1.07-1.32-2.2-2-3.31l-1.91-3.34-1.76-3.43c-0.58-1.15-1.19-2.28-1.7-3.46-1.05-2.34-2.17-4.66-3.07-7.07a1,1,0,0,1,.47-1.39l6.81-2.67a1,1,0,0,1,1.27.62l0.77,1.95c0.27,0.64.57,1.27,0.85,1.91L51.48,216a1.79,1.79,0,0,0,2.35.9,1.75,1.75,0,0,0,.7-2.37L52.93,211l-0.79-1.76-0.72-1.79a1,1,0,0,1,.51-1.29l1.83-.7c3.28,1.46,6.7,2.68,10,3.77a1.48,1.48,0,0,0,1.85-.87l0,0a1.34,1.34,0,0,0-.8-1.78C61.66,205.42,58.62,204,55.48,202.53Z" transform="translate(-15.88 -13.35)"/><path class="cls-2" d="M45.09,154.53q-2.94-2.65-5.86-5.56c-2.1-2.18-4.65-2.31-7.39-2.62a1,1,0,0,1-.8-1.22c0.2-1.47.35-2.94,0.6-4.4l0.78-4.37a1,1,0,0,1,1.13-.91l7.4,1.49a1,1,0,0,1,.75,1.21,34.26,34.26,0,0,0-.64,4.31,8.32,8.32,0,0,0,.92,4.17c0.65,1.22,1.25,2.41,2,3.59s1.4,2.34,2.1,3.47C46.69,154.63,45.95,155.37,45.09,154.53Z" transform="translate(-15.88 -13.35)"/><path class="cls-2" d="M48.36,154.79a1.19,1.19,0,0,1-.23-0.86l0.1-1.47a1,1,0,0,1,1-.89l7.2,0.64a1.61,1.61,0,1,0,.33-3.2l-7.57-.89a1,1,0,0,1-.82-1.08c0.17-1.24.28-2.48,0.51-3.71l0.66-3.69a0.94,0.94,0,0,1,1.11-.77l25.67,5.17c1,0.21,1.17,1.14-.2,1.12q-7.65-.36-15.36-0.37a1.74,1.74,0,0,0-1.95,1.37A1.76,1.76,0,0,0,60.34,148q7.25,1.88,14.53,3.5a1,1,0,0,1,1.06,1,1.14,1.14,0,0,1-1.25.83q-7.56.4-15.15,1.17c-2,.19-2.64,1.82-1.12,4a90.23,90.23,0,0,0,18.15,19.43,0.81,0.81,0,0,1,.23,1.32,1.45,1.45,0,0,1-1.68.33,114.51,114.51,0,0,1-25.85-12.06,3.69,3.69,0,0,0-2.89-.73A2,2,0,0,0,45,168.7c-0.24,2.63-.58,5.29-0.65,8-0.05,1.34-.14,2.69-0.16,4l0,4.05c0.07,1.67-1.84,2.14-2.32.44l-1.21-3.9c-0.38-1.31-.69-2.63-1-4-0.73-2.65-1.21-5.34-1.77-8-0.27-1.28-1-1.88-1.85-1.85a1.92,1.92,0,0,0-1.68,2c-0.23,2.9-.51,5.83-0.53,8.77,0,1.47-.11,3-0.07,4.43l0.11,4.45c0,1.6-1.19,1.5-1.42.27a136.66,136.66,0,0,1-2.35-30.61,1,1,0,0,1,1-1.07L38.35,156a1,1,0,0,1,.92,1.08l-0.1,4.17c0,1.39,0,2.78.07,4.17A1.74,1.74,0,0,0,41,167.25a1.79,1.79,0,0,0,1.65-1.88c0-1.28-.08-2.57-0.08-3.85l0.09-3.85a1,1,0,0,1,1-1l2,0.1c2.51,2.67,5,5.17,7.64,7.51a1.48,1.48,0,0,0,2,0l0,0a1.34,1.34,0,0,0,0-1.95c-1.2-1.17-2.32-2.38-3.48-3.63S49.42,156.11,48.36,154.79Z" transform="translate(-15.88 -13.35)"/><path class="cls-2" d="M58.35,106.69c-0.54-1.21-1.11-2.46-1.6-3.7s-1-2.49-1.45-3.77c-1.07-2.88-3.33-4-5.7-5.43a1.06,1.06,0,0,1-.25-1.46c0.78-1.26,1.59-2.5,2.39-3.74l1.2-1.87,1.28-1.81a1,1,0,0,1,1.42-.36l6.14,4.38a1,1,0,0,1,.17,1.4c-0.43.62-.88,1.21-1.28,1.81a19.06,19.06,0,0,0-1,1.87,8.33,8.33,0,0,0-.91,4.15q0.16,2.08.36,4.1c0.14,1.35.26,2.67,0.48,4C59.78,107.43,58.81,107.81,58.35,106.69Z" transform="translate(-15.88 -13.35)"/><path class="cls-2" d="M61.24,108.26a1.22,1.22,0,0,1,.12-0.89c0.23-.44.43-0.89,0.67-1.31a1,1,0,0,1,1.32-.38l6.31,3.52a1.61,1.61,0,1,0,1.6-2.79l-6.55-3.91a1,1,0,0,1-.33-1.33l2-3.15,1-1.57,1.08-1.53a1,1,0,0,1,1.34-.24l21.32,15.21c0.85,0.61.58,1.5-.66,0.92q-3.43-1.73-6.91-3.39t-7-3.21c-2.06-1-3.56,1.29-1.73,2.76,3.87,3.11,7.85,6.17,11.85,9.15,1.32,0.94.51,2.21-.93,1.62-4.73-1.82-9.53-3.55-14.33-5.13-1.85-.62-3.08.62-2.65,3.15a89.06,89.06,0,0,0,8.73,25.1,0.81,0.81,0,0,1-.3,1.31,1.45,1.45,0,0,1-1.67-.38q-1.29-1.14-2.57-2.34c-0.85-.8-1.72-1.62-2.51-2.45q-2.44-2.48-4.83-5.19c-1.59-1.8-3-3.64-4.55-5.57q-1.11-1.44-2.2-2.94t-2.07-3c-1.51-2.26-3.31-2.44-4.4-.67-0.72,1.13-1.32,2.3-2,3.47s-1.31,2.34-1.89,3.55c-1.15,2.41-2.38,4.84-3.38,7.35-0.6,1.56-2.53,1.22-2.3-.54,0.23-2.72.69-5.4,1.1-8.11,0.09-.68.23-1.35,0.37-2l0.41-2c0.29-1.34.52-2.71,0.89-4,0.64-2.52-2-3.57-3.3-1.28-0.76,1.25-1.39,2.57-2.08,3.86l-1,2-0.51,1-0.46,1-1.84,4-0.46,1-0.41,1-0.83,2.07c-0.64,1.46-1.68.89-1.41-.32s0.56-2.51.89-3.75l1-3.71c0.66-2.49,1.55-4.9,2.36-7.34,0.39-1.23.89-2.41,1.35-3.61l1.42-3.59,1.58-3.52c0.54-1.17,1-2.35,1.64-3.49a1.05,1.05,0,0,1,1.36-.57l6.54,3.28a1,1,0,0,1,.38,1.36l-0.48.93-0.43,1-0.86,1.91c-0.56,1.28-1.18,2.53-1.67,3.84a1.7,1.7,0,1,0,3.13,1.29c0.45-1.21,1-2.37,1.53-3.54s1-2.36,1.62-3.51a1,1,0,0,1,1.31-.48l1.74,0.89c0.29,0.86.55,1.7,0.88,2.55l1,2.53c0.66,1.67,1.31,3.29,2,4.89a1.48,1.48,0,0,0,1.88.79l0,0a1.36,1.36,0,0,0,.79-1.78q-0.89-2.32-1.74-4.75C62.2,111.55,61.71,109.92,61.24,108.26Z" transform="translate(-15.88 -13.35)"/><path class="cls-2" d="M89.94,68.41q0-2,0-4l0.06-2,0.12-2c0.2-3-1.4-5-3-7.26a1,1,0,0,1,.36-1.42c0.61-.42,1.2-0.86,1.82-1.27l1.87-1.2c1.25-.79,2.48-1.61,3.75-2.38a1.06,1.06,0,0,1,1.45.26l3.84,6.49a1,1,0,0,1-.42,1.34,30,30,0,0,0-3.61,2.44,9.85,9.85,0,0,0-1.47,1.49,8,8,0,0,0-1,2q-0.7,1.95-1.35,3.86c-0.43,1.27-.8,2.61-1.17,3.89C90.94,69.67,89.9,69.62,89.94,68.41Z" transform="translate(-15.88 -13.35)"/><path class="cls-2" d="M91.94,71a1.2,1.2,0,0,1,.48-0.75l1.15-.92a0.94,0.94,0,0,1,1.34.16l4.34,5.78a1.7,1.7,0,0,0,2.3.43,1.65,1.65,0,0,0,.31-2.3l-4.4-6.22a1,1,0,0,1,.24-1.34c1-.74,2.06-1.41,3.11-2.08s2.09-1.36,3.16-2a1,1,0,0,1,1.33.33l13.33,22.54c0.53,0.91-.09,1.59-1,0.57q-4.84-5.91-10-11.63c-1.49-1.73-3.81-.31-2.7,1.82q3.46,6.66,7.13,13.17c0.82,1.39-.45,2.21-1.52,1.08-3.58-3.58-7.23-7.05-11-10.47a2,2,0,0,0-2.17-.54,2.26,2.26,0,0,0-.92.8A4.66,4.66,0,0,0,95.88,81a90.88,90.88,0,0,0-2.28,26.49,0.81,0.81,0,0,1-.83,1.05,1.45,1.45,0,0,1-1.37-1,115.67,115.67,0,0,1-8.33-27.27c-0.43-2.65-2-3.58-3.73-2.39C77.21,79.39,75,80.94,73,82.67l-1.56,1.28c-0.53.42-1,.86-1.53,1.31l-3,2.72a1.36,1.36,0,0,1-1.74.29A1.2,1.2,0,0,1,65,86.55l2.1-3.5,0.53-.88,0.57-.85,1.14-1.7c1.48-2.31,3.14-4.48,4.79-6.7,0.77-1.06.71-2,.14-2.61a1.93,1.93,0,0,0-2.63.1l-3.48,2.67-0.87.67-0.84.71-1.68,1.42c-2.28,1.87-4.4,3.92-6.58,6-0.61.52-1.06,0.57-1.3,0.34A0.93,0.93,0,0,1,57,81,138,138,0,0,1,78.21,58.73a1,1,0,0,1,1.46,0l4.64,5.65a1,1,0,0,1-.19,1.41L81,68.53l-0.79.69-0.76.72-1.51,1.44a1.75,1.75,0,0,0-.16,2.49,1.79,1.79,0,0,0,2.5,0l1.4-1.33c0.46-.45.93-0.89,1.42-1.3L86,68.67a1,1,0,0,1,1.37.07l1.23,1.52q-0.23,2.74-.36,5.4c0,0.89-.09,1.76-0.1,2.65V81a1.48,1.48,0,0,0,1.4,1.49h0A1.34,1.34,0,0,0,91,81.11q0.14-2.47.37-5c0.08-.85.16-1.71,0.26-2.56Z" transform="translate(-15.88 -13.35)"/><path class="cls-2" d="M134.36,46.22q1.63-3.6,3.51-7.25a7.65,7.65,0,0,0,.85-3.94,25.88,25.88,0,0,0-.63-3.93A1,1,0,0,1,139,30l4.38-.78c1.46-.23,2.93-0.39,4.4-0.59a1,1,0,0,1,1.22.81l0.85,7.5a1,1,0,0,1-.92,1.08,27.55,27.55,0,0,0-4.29.71,8.61,8.61,0,0,0-3.69,2.14c-0.48.49-1,1-1.43,1.46l-1.38,1.53q-1.37,1.53-2.67,3C134.75,47.76,133.83,47.33,134.36,46.22Z" transform="translate(-15.88 -13.35)"/><path class="cls-2" d="M135.12,49.41a1.15,1.15,0,0,1,.74-0.48l1.43-.35a1,1,0,0,1,1.16.71l1.61,7.05a1.64,1.64,0,0,0,1.92,1.3,1.68,1.68,0,0,0,1.22-2l-1.48-7.48a0.94,0.94,0,0,1,.77-1.11l3.69-.66c1.23-.18,2.48-0.32,3.71-0.49a1,1,0,0,1,1.07.83l3,26c0.12,1-.73,1.45-1.13.14q-2-7.4-4.37-14.75c-0.66-2.2-3.33-1.74-3.2.6q0.43,7.47,1.12,14.89c0.18,1.57-1.3,1.88-1.82.41Q141.84,67,138.77,60c-0.79-1.83-2.53-1.88-4.1.17a89.73,89.73,0,0,0-12.83,23.24,0.81,0.81,0,0,1-1.16.67,1.45,1.45,0,0,1-.84-1.5c0-2.34,0-4.63.17-7s0.31-4.75.62-7.07,0.65-4.73,1.08-7.14,1-4.73,1.57-7.14c0.66-2.66-.41-4.11-2.44-3.7a118.16,118.16,0,0,0-15.52,4.21c-1.55.62-2.59-1-1.14-2.07a123.53,123.53,0,0,1,13.89-8.74c2.28-1.25,1.29-3.92-1.26-3.31a127.53,127.53,0,0,0-17,5c-1.5.52-1.78-.64-0.7-1.26s2.26-1.22,3.4-1.81L106,40.81l3.51-1.6c1.18-.52,2.33-1.08,3.54-1.54,2.4-.93,4.76-1.95,7.21-2.73l3.65-1.23c1.22-.39,2.47-0.72,3.7-1.08a1,1,0,0,1,1.33.61l1.93,7.05a1,1,0,0,1-.75,1.2l-2,.57-1,.29-1,.33-4,1.34A1.74,1.74,0,0,0,121,46.26a1.8,1.8,0,0,0,2.29,1c2.44-.82,4.86-1.7,7.36-2.35a1,1,0,0,1,1.23.64l0.51,1.89c-0.89,1.59-1.74,3.15-2.55,4.74s-1.54,3.23-2.26,4.83a1.48,1.48,0,0,0,.67,1.93l0,0a1.34,1.34,0,0,0,1.85-.62L131.27,56l1.23-2.19Q133.75,51.64,135.12,49.41Z" transform="translate(-15.88 -13.35)"/><path class="cls-2" d="M183.95,44.1c2-1.76,4-3.55,6.15-5.24,2.4-1.87,2.79-4.39,3.38-7.08a1,1,0,0,1,1.3-.68c2.9,0.62,5.74,1.48,8.59,2.29a1,1,0,0,1,.79,1.23l-2.26,7.2a1,1,0,0,1-1.28.61,34.31,34.31,0,0,0-4.23-1.06c-0.35-.05-0.69-0.09-1-0.11a8.92,8.92,0,0,0-1.06,0,8,8,0,0,0-2.14.52c-1.28.52-2.53,1-3.77,1.57s-2.47,1.16-3.68,1.74C183.68,45.68,183,44.86,183.95,44.1Z" transform="translate(-15.88 -13.35)"/><path class="cls-2" d="M183.35,47.32a1.2,1.2,0,0,1,.88-0.15l1.45,0.24a0.94,0.94,0,0,1,.78,1.11l-1.39,7.1a1.67,1.67,0,0,0,1.22,2,1.64,1.64,0,0,0,1.92-1.3l1.68-7.44a1,1,0,0,1,1.16-.71c2.45,0.51,4.83,1.26,7.24,1.93a0.94,0.94,0,0,1,.65,1.19l-7.85,25c-0.31,1-1.25,1-1.09-.32q1.16-7.56,2-15.22a1.8,1.8,0,0,0-1.15-2.1,1.78,1.78,0,0,0-2,1.32q-2.63,7-5,14.09c-0.48,1.55-1.93,1.11-1.82-.4q0.39-7.55.42-15.18c0-1.94-1.54-2.83-3.81-1.53a91.5,91.5,0,0,0-21.22,16,0.81,0.81,0,0,1-1.34.1,1.45,1.45,0,0,1-.16-1.71q1.39-3.14,3-6.31c1.08-2.08,2.23-4.1,3.46-6.17q0.92-1.54,1.89-3.08t2-3c1.37-2,2.82-4,4.33-5.93,1.68-2.1,1.29-3.91-.73-4.38l-3.9-.79c-0.65-.13-1.31-0.27-2-0.38l-2-.3-4-.58-4-.39c-1.67-.1-1.94-2.05-0.2-2.35l4-.81,4-.62,2-.3c0.68-.1,1.36-0.15,2-0.22l4.1-.4c1.3-.13,2-0.83,2-1.65a1.93,1.93,0,0,0-1.83-1.89c-2.86-.51-5.74-1.11-8.65-1.43-1.46-.18-2.92-0.39-4.39-0.54l-4.43-.34c-1.59-.17-1.36-1.34-0.12-1.44a137.16,137.16,0,0,1,30.68.82,1,1,0,0,1,1,1.08l-1.09,7.23A1,1,0,0,1,182,38l-4.15-.53c-0.69-.1-1.39-0.15-2.08-0.2l-2.08-.16a1.74,1.74,0,0,0-2,1.55,1.79,1.79,0,0,0,1.7,1.83c1.28,0.11,2.57.17,3.84,0.32l3.83,0.48a1,1,0,0,1,.87,1.07l-0.3,1.93c-2.92,2.24-5.66,4.39-8.27,6.82a1.48,1.48,0,0,0-.17,2l0,0a1.34,1.34,0,0,0,1.94.15c1.29-1,2.61-2.05,4-3.08S181.93,48.24,183.35,47.32Z" transform="translate(-15.88 -13.35)"/><path class="cls-2" d="M230.14,62.3c1.28-.44,2.55-0.82,3.83-1.18s2.59-.73,3.91-1.07c3-.77,4.36-2.9,6-5.12a1,1,0,0,1,1.46-.08l3.49,2.74c0.59,0.45,1.15.93,1.71,1.41l1.68,1.45a1,1,0,0,1,.21,1.45l-5,5.65a1,1,0,0,1-1.42,0c-2.24-2-4.37-3.85-7.45-4-1.35-.08-2.76-0.06-4.11-0.07s-2.7,0-4,0C229.26,63.64,229,62.64,230.14,62.3Z" transform="translate(-15.88 -13.35)"/><path class="cls-2" d="M228.28,65a1.23,1.23,0,0,1,.87.21c0.41,0.27.81,0.56,1.22,0.83a1,1,0,0,1,.25,1.34l-4.17,5.91a1.65,1.65,0,0,0,.31,2.3,1.7,1.7,0,0,0,2.3-.44l4.57-6.1a0.94,0.94,0,0,1,1.34-.16l2.95,2.31c1,0.76,1.9,1.62,2.86,2.42a1,1,0,0,1,.1,1.35L223.54,94.6c-0.7.79-1.56,0.43-.86-0.74,2.76-4.29,5.46-8.69,8-13.12,1.18-1.95-.93-3.65-2.58-2-3.51,3.55-6.93,7.13-10.32,10.81-1.07,1.21-2.27.29-1.52-1.08q3.46-6.76,6.61-13.73c0.81-1.78-.31-3.12-2.87-2.93-1.15.07-2.32,0.22-3.47,0.36s-2.28.3-3.4,0.46c-2.25.36-4.48,0.83-6.62,1.28s-4.29,1.11-6.34,1.75q-1.56.52-3.06,1c-1,.36-2,0.69-3,1.12a0.81,0.81,0,0,1-1.27-.43,1.45,1.45,0,0,1,.55-1.62,110.58,110.58,0,0,1,11-8.82,118.12,118.12,0,0,1,12.38-7.55c2.41-1.27,2.78-3,1.12-4.29l-1.59-1.2c-0.54-.39-1.09-0.75-1.64-1.13l-3.32-2.26-3.44-2.1-1.74-1.05-1.78-1c-1.49-.75-0.95-2.64.78-2.23l2,0.41,2,0.5,4,1L217,47.33,219,48l1.94,0.7c2.44,0.89,3.77-1.64,1.62-3.15l-1.78-1.28L219,43c-1.23-.8-2.46-1.61-3.71-2.4l-3.83-2.24c-0.64-.37-1.28-0.76-1.94-1.1l-2-1c-1.39-.78-0.71-1.76.47-1.36,2.45,0.78,4.82,1.77,7.22,2.71,1.2,0.45,2.37,1,3.54,1.52l3.51,1.59c1.15,0.56,2.29,1.16,3.44,1.74l1.71,0.88,0.86,0.44,0.84,0.48,3.34,1.92c0.55,0.32,1.12.63,1.66,1l1.62,1a1,1,0,0,1,.43,1.4l-4,6.16a1,1,0,0,1-1.39.24l-1.76-1.12-1.81-1c-1.21-.69-2.41-1.4-3.63-2.07a1.79,1.79,0,0,0-2.43.65,1.75,1.75,0,0,0,.83,2.33c1.13,0.62,2.24,1.27,3.36,1.91l1.67,1c0.56,0.32,1.09.68,1.64,1a1,1,0,0,1,.35,1.35l-1.07,1.64c-3.51.74-7,1.77-10.32,2.81a1.48,1.48,0,0,0-1,1.79v0a1.34,1.34,0,0,0,1.69,1l2.44-.64c0.82-.21,1.65-0.42,2.47-0.58Q225.72,65.46,228.28,65Z" transform="translate(-15.88 -13.35)"/><path class="cls-2" d="M264.92,97.71q2,0.2,4,.45c1.33,0.18,2.64.39,4,.62,3,0.52,5.15-.87,7.55-2.23a1.06,1.06,0,0,1,1.39.51c0.74,1.28,1.38,2.62,2.07,3.93s1.37,2.63,2,4a1,1,0,0,1-.4,1.42l-6.86,3.14a1,1,0,0,1-1.3-.55,23.74,23.74,0,0,0-2-3.85,9.88,9.88,0,0,0-1.35-1.61,6.36,6.36,0,0,0-1.81-1.25q-1.88-.9-3.72-1.74l-1.84-.82L264.66,99C263.56,98.57,263.72,97.54,264.92,97.71Z" transform="translate(-15.88 -13.35)"/><path class="cls-2" d="M262.12,99.43a1.21,1.21,0,0,1,.7.55l0.81,1.23a1,1,0,0,1-.32,1.33l-6.2,3.72a1.61,1.61,0,1,0,1.6,2.79l6.65-3.73a1,1,0,0,1,1.32.38c0.61,1.09,1.15,2.22,1.73,3.32s1.16,2.21,1.65,3.36a1,1,0,0,1-.47,1.28l-23.81,10.89c-1,.43-1.58-0.25-0.46-1,4.31-2.82,8.47-5.7,12.63-8.72,1.87-1.3.67-3.73-1.51-2.88q-7,2.74-13.85,5.72c-1.47.67-2.17-.67-0.93-1.62,2-1.59,3.94-3.22,5.86-4.86s3.83-3.3,5.72-5c1.46-1.29,1-3-1.41-3.87a90.93,90.93,0,0,0-26.12-5,0.81,0.81,0,0,1-1-.93,1.45,1.45,0,0,1,1.16-1.26q3.26-1.07,6.7-2c2.26-.59,4.54-1.09,6.9-1.57s4.71-.84,7.11-1.16,4.87-.6,7.3-0.74c2.7-.17,3.76-1.64,2.78-3.48-0.65-1.16-1.35-2.28-2-3.43l-1-1.72c-0.35-.57-0.73-1.11-1.1-1.67L250.25,76l-2.41-3.26c-1-1.31.23-2.81,1.62-1.72l3.28,2.43L255.91,76c0.53,0.44,1.07.86,1.58,1.31L259,78.72c1,0.92,2.05,1.83,3.06,2.78,1.85,1.82,4.09,0,2.76-2.22-0.75-1.25-1.53-2.48-2.31-3.72l-1.18-1.86-1.25-1.81c-0.84-1.21-1.68-2.42-2.55-3.63l-2.71-3.52c-0.93-1.29.08-1.91,1-1.05A136.52,136.52,0,0,1,275.78,87a1.06,1.06,0,0,1-.19,1.46l-6.11,4a1,1,0,0,1-1.36-.35c-0.78-1.15-1.6-2.28-2.41-3.42l-1.21-1.7-1.29-1.65a1.7,1.7,0,1,0-2.68,2.07L261.73,89l1.12,1.57,2.24,3.15a1,1,0,0,1-.24,1.38l-1.64,1.07c-0.87-.19-1.77-0.35-2.67-0.5l-2.66-.43c-1.78-.26-3.48-0.52-5.26-0.67A1.48,1.48,0,0,0,251,95.8v0a1.39,1.39,0,0,0,1.17,1.56q2.45,0.39,5,.88C258.82,98.6,260.43,99,262.12,99.43Z" transform="translate(-15.88 -13.35)"/><path class="cls-2" d="M282.32,144.21q3.42,2,6.86,4.24c2.55,1.7,5,1.31,7.78,1a1,1,0,0,1,1,1l0.33,4.42,0.12,4.43a1,1,0,0,1-.93,1.13l-7.54.07a1,1,0,0,1-1-1,31.54,31.54,0,0,0-.25-4.34,8.62,8.62,0,0,0-1.75-3.89c-1.7-2.12-3.61-4.14-5.43-6.07C280.73,144.45,281.31,143.57,282.32,144.21Z" transform="translate(-15.88 -13.35)"/><path class="cls-2" d="M279.06,144.64a1.19,1.19,0,0,1,.4.79l0.2,1.46a1,1,0,0,1-.82,1.08l-7.18.86a1.63,1.63,0,0,0-1.48,1.77A1.65,1.65,0,0,0,272,152l7.59-.69a1,1,0,0,1,1,.88L280.9,156l0.1,3.74a1,1,0,0,1-.93,1l-26.19.25c-1.05,0-1.37-.88,0-1.14q7.56-1.23,15.12-2.82c2.29-.43,2.08-3.13-0.25-3.25q-7.48-.35-14.93-0.44a1.07,1.07,0,0,1-1.26-.79,1.12,1.12,0,0,1,1.05-1.07q7.32-1.95,14.6-4.26a2,2,0,0,0,1.57-1.6,3.34,3.34,0,0,0-1.3-2.49,89.38,89.38,0,0,0-21.77-15.19,0.83,0.83,0,0,1-.52-1.24,1.45,1.45,0,0,1,1.58-.68,113.2,113.2,0,0,1,27.79,6.39c2.58,0.94,4.13,0,3.93-2l-0.41-4c-0.18-1.32-.4-2.64-0.6-4l-0.31-2c-0.11-.66-0.26-1.32-0.4-2l-0.83-4c-0.46-1.61,1.31-2.46,2.18-.92l2,3.58c0.32,0.6.66,1.2,1,1.81l0.9,1.84,1.78,3.71,1.61,3.8c1,2.4,3.78,1.69,3.42-.9L289.18,123l-0.75-4.35L288,116.46l-0.49-2.16c-0.33-1.44-.65-2.9-1-4.35s0.82-1.7,1.33-.56a135.06,135.06,0,0,1,8.67,29.53,1,1,0,0,1-.74,1.26l-7.22,1.18a1,1,0,0,1-1.12-.87c-0.25-1.37-.48-2.75-0.75-4.12l-0.94-4.08a1.73,1.73,0,0,0-2.06-1.39,1.81,1.81,0,0,0-1.23,2.19l0.87,3.76c0.27,1.26.47,2.53,0.71,3.8a1,1,0,0,1-.76,1.16l-1.93.3q-2.24-1.58-4.45-3c-1.5-1-3.05-1.87-4.57-2.75a1.48,1.48,0,0,0-2,.47l0,0a1.34,1.34,0,0,0,.44,1.9c1.45,0.89,2.78,1.85,4.16,2.83S277.72,143.57,279.06,144.64Z" transform="translate(-15.88 -13.35)"/><circle class="cls-2" cx="163.74" cy="161.81" r="116.27" transform="translate(-47.15 26.14) rotate(-12.56)"/><circle class="cls-1" cx="163.74" cy="161.81" r="104.67" transform="translate(-47.15 26.14) rotate(-12.56)"/><path class="cls-2" d="M185.86,213.2c-3.5-11.78-12.12-19.4-22-19.4s-18.47,7.61-22,19.4a0.84,0.84,0,0,0,1.56.58,8.35,8.35,0,0,1,2.21-3,9.89,9.89,0,0,1,3.27,5.56,0.84,0.84,0,0,0,.76.64h0.06a0.84,0.84,0,0,0,.78-0.53,10.24,10.24,0,0,1,2.87-4.13,6.4,6.4,0,0,1,2.74,3.83,0.84,0.84,0,0,0,.75.58h0a0.84,0.84,0,0,0,.77-0.5,11.06,11.06,0,0,1,2.93-4.09,7,7,0,0,1,2.43,3.75,0.84,0.84,0,0,0,1.59,0,7,7,0,0,1,2.43-3.75,11.07,11.07,0,0,1,2.93,4.09,0.84,0.84,0,0,0,.77.5h0a0.84,0.84,0,0,0,.75-0.58,6.4,6.4,0,0,1,2.74-3.83,10.24,10.24,0,0,1,2.87,4.13,0.84,0.84,0,0,0,.78.53h0.06a0.84,0.84,0,0,0,.76-0.64,9.89,9.89,0,0,1,3.27-5.56,8.35,8.35,0,0,1,2.21,3A0.84,0.84,0,0,0,185.86,213.2Z" transform="translate(-15.88 -13.35)"/><path class="cls-2" d="M187.9,210l0-.05c-3.6-11-13.23-18.42-24-18.42s-20.37,7.4-24,18.41l0,0.06a0.56,0.56,0,0,0,0,.47,28.93,28.93,0,0,0,1.68,2.82,0.56,0.56,0,0,0,.46.24h0.08a0.56,0.56,0,0,0,.45-0.39c3.46-11.37,11.83-18.72,21.3-18.72s17.84,7.35,21.3,18.72a0.56,0.56,0,0,0,.45.39h0.08a0.56,0.56,0,0,0,.46-0.24,29,29,0,0,0,1.68-2.81A0.56,0.56,0,0,0,187.9,210Z" transform="translate(-15.88 -13.35)"/><path class="cls-1" d="M189.81,178.08l-0.18,0a0.84,0.84,0,0,0-.77.52,10.25,10.25,0,0,1-2.86,4,12.19,12.19,0,0,1-4.1-7.35,0.84,0.84,0,0,0-.76-0.67h-0.06a0.84,0.84,0,0,0-.79.56,12.58,12.58,0,0,1-3.69,5.59,15.14,15.14,0,0,1-3.19-5.82,0.84,0.84,0,0,0-.78-0.59h0a0.84,0.84,0,0,0-.79.56,14.22,14.22,0,0,1-4,6.07,16.69,16.69,0,0,1-3.11-6.68,0.84,0.84,0,0,0-1.62,0A16.69,16.69,0,0,1,160,181a13.86,13.86,0,0,1-4-6.07,0.84,0.84,0,0,0-.79-0.56h0a0.84,0.84,0,0,0-.79.59,15.14,15.14,0,0,1-3.19,5.82,12.58,12.58,0,0,1-3.69-5.59,0.84,0.84,0,0,0-.79-0.56h-0.06a0.84,0.84,0,0,0-.76.67,12.44,12.44,0,0,1-4.1,7.35,10.25,10.25,0,0,1-2.86-4,0.84,0.84,0,0,0-.77-0.52l-0.18,0a0.84,0.84,0,0,0-.65.87c0.3,4.82,1.63,13.91,7.11,20.64a0.84,0.84,0,0,0,.62.31h0a0.84,0.84,0,0,0,.62-0.27,24.16,24.16,0,0,1,36.38,0,0.84,0.84,0,0,0,.62.27h0a0.84,0.84,0,0,0,.62-0.31c5.48-6.72,6.81-15.82,7.11-20.64A0.84,0.84,0,0,0,189.81,178.08Z" transform="translate(-15.88 -13.35)"/><path class="cls-3" d="M108.24,209.2a43.54,43.54,0,0,0-7.64-.69c-0.84,0-1.69,0-2.52.08a26.93,26.93,0,0,0-5.86,1c-1.92.57-4.24,1.4-5.15,2.82a6.32,6.32,0,0,0-.29,5.29,3.28,3.28,0,0,0,1.53,1.76,4.49,4.49,0,0,0,2.07.51c2.58,0,5.11-2.18,7.34-4.11,0.82-.7,1.57-1.35,2.28-1.87a24.74,24.74,0,0,1,6.36-3.06l0.42-.14,0.07,0,1.45-.49A0.56,0.56,0,0,0,108.24,209.2Z" transform="translate(-15.88 -13.35)"/><path class="cls-3" d="M107.25,220a0.56,0.56,0,0,0-.25.06,26.5,26.5,0,0,0-4.26,2.62,17.05,17.05,0,0,0-2.75,2.57c-0.74.88-1.73,2.18-1.72,3.23a3.91,3.91,0,0,0,1.65,2.8,2,2,0,0,0,1.15.38h0.18c2.26-.26,3-2.85,3.63-5.13,0.19-.67.36-1.28,0.56-1.81a15.67,15.67,0,0,1,2.25-3.81A0.56,0.56,0,0,0,107.25,220Z" transform="translate(-15.88 -13.35)"/><path class="cls-3" d="M240.4,212.41c-0.91-1.43-3.23-2.26-5.15-2.82a26.93,26.93,0,0,0-5.85-1c-0.81-.05-1.66-0.08-2.5-0.08a43.64,43.64,0,0,0-7.66.69,0.56,0.56,0,0,0-.07,1.08l1.5,0.5,0.44,0.15a24.75,24.75,0,0,1,6.37,3.06c0.72,0.52,1.48,1.17,2.28,1.86,2.23,1.93,4.75,4.11,7.34,4.11a4.48,4.48,0,0,0,2.07-.51,3.27,3.27,0,0,0,1.53-1.76A6.32,6.32,0,0,0,240.4,212.41Z" transform="translate(-15.88 -13.35)"/><path class="cls-3" d="M224.73,222.64a26.49,26.49,0,0,0-4.26-2.62,0.56,0.56,0,0,0-.69.84,15.68,15.68,0,0,1,2.25,3.81c0.2,0.53.38,1.15,0.56,1.81,0.64,2.29,1.37,4.88,3.62,5.14h0.2a2,2,0,0,0,1.14-.38,3.91,3.91,0,0,0,1.64-2.8c0-1-1-2.34-1.71-3.22A17.09,17.09,0,0,0,224.73,222.64Z" transform="translate(-15.88 -13.35)"/><path class="cls-1" d="M135.36,203.33a0.56,0.56,0,0,0,0-.14c-0.79-6.61-3.54-10.37-6.2-14-2.41-3.3-4.69-6.42-5-11.34-0.15-2.42.33-3.38,0.76-3.76l0,0a0.56,0.56,0,0,0-.15-0.92,19.31,19.31,0,0,1-3-1.63,0.56,0.56,0,0,0-.82.68l0.14,0.33c-0.75,1.12-1.15,4.11.9,10.17a32.64,32.64,0,0,0,4.55,8.26c3.43,5,7.32,10.65,6.89,23.27a0.41,0.41,0,0,1-.15.3,0.56,0.56,0,0,0-.11.72,17.92,17.92,0,0,1,2.42,5.94,0.56,0.56,0,0,0,.9.32,7.11,7.11,0,0,1,1.3-.86,0.56,0.56,0,0,0,.24-0.75A29,29,0,0,1,135.36,203.33Z" transform="translate(-15.88 -13.35)"/><path class="cls-1" d="M206.66,172.47l0.12-.23a0.56,0.56,0,0,0-.8-0.72,19.34,19.34,0,0,1-3,1.61,0.56,0.56,0,0,0-.12,1c0.42,0.36.91,1.32,0.75,3.76-0.31,4.92-2.59,8-5,11.34-2.66,3.64-5.4,7.4-6.2,14a0.56,0.56,0,0,0,0,.14,29,29,0,0,1-2.69,16.55,0.56,0.56,0,0,0,.24.75,7.23,7.23,0,0,1,1.06.65,0.56,0.56,0,0,0,.88-0.33,18,18,0,0,1,2.5-5.94,0.56,0.56,0,0,0,0-.6,0.4,0.4,0,0,1-.08-0.2c-0.43-12.62,3.46-18.28,6.89-23.27a32.65,32.65,0,0,0,4.55-8.26C207.87,176.55,207.43,173.55,206.66,172.47Z" transform="translate(-15.88 -13.35)"/><path class="cls-2" d="M137.4,178.63a0.84,0.84,0,0,0-.72-0.78h-0.12a0.84,0.84,0,0,0-.79.56c-1.89,5.43.07,11.12,0.46,12.15a17.6,17.6,0,0,1-7.41-15.74,0.84,0.84,0,0,0-.65-0.88,18.12,18.12,0,0,1-2.29-.65l-0.18,0h-0.16a1.57,1.57,0,0,0-1,.42c-0.76.69-1.08,2.12-.95,4.24,0.32,5.09,2.65,8.28,5.12,11.66,2.18,3,4.65,6.36,5.73,11.51a0.84,0.84,0,0,0,.82.66h0a0.84,0.84,0,0,0,.82-0.66l0-.18v0a44,44,0,0,0,2.62,7.76,0.84,0.84,0,0,0,.76.49h0a0.84,0.84,0,0,0,.76-0.54,28.2,28.2,0,0,1,4.46-7.76,0.84,0.84,0,0,0,0-1.06C138.93,192.82,137.65,183.54,137.4,178.63Z" transform="translate(-15.88 -13.35)"/><path class="cls-2" d="M203.29,173.64a1.57,1.57,0,0,0-1-.42h-0.17l-0.17,0a18.14,18.14,0,0,1-2.29.65,0.84,0.84,0,0,0-.65.88,17.61,17.61,0,0,1-7.41,15.74c0.38-1,2.36-6.7.46-12.15a0.84,0.84,0,0,0-.79-0.56h-0.12a0.84,0.84,0,0,0-.72.78c-0.25,4.92-1.53,14.2-7.29,21.09a0.84,0.84,0,0,0,0,1.06,28.2,28.2,0,0,1,4.46,7.76,0.84,0.84,0,0,0,.76.54h0a0.84,0.84,0,0,0,.77-0.49,43.34,43.34,0,0,0,2.62-7.76v0l0,0.18a0.84,0.84,0,0,0,.82.66h0a0.84,0.84,0,0,0,.82-0.66c1.08-5.15,3.55-8.53,5.73-11.51,2.47-3.38,4.8-6.57,5.12-11.66C204.38,175.75,204.06,174.32,203.29,173.64Z" transform="translate(-15.88 -13.35)"/><path class="cls-2" d="M176.1,134.95a9.78,9.78,0,0,0-4.21-1c-4.57,0-7.54,3.58-7.86,4h-0.25c-0.32-.41-3.29-4-7.87-4h0a9.76,9.76,0,0,0-4.21,1c-3.94,1.87-5,5.29-4.3,7.67,0.54,1.87,2.42,3.87,6.07,3.87h0.28a0.84,0.84,0,0,0,.81-0.81,10.41,10.41,0,0,1,.61,1.83c1.09,4.58,5.84,4.94,7.26,4.94h2.92c1.43,0,6.2-.36,7.29-4.93a10.43,10.43,0,0,1,.6-1.82,0.84,0.84,0,0,0,.81.8h0.28c3.64,0,5.53-2,6.07-3.87C181.09,140.24,180,136.82,176.1,134.95Z" transform="translate(-15.88 -13.35)"/><path class="cls-3" d="M186,182.48a0.83,0.83,0,0,0,.58-0.24,11.81,11.81,0,0,0,3.27-7.33,0.84,0.84,0,0,0-.21-0.63l-0.41-.45a0.77,0.77,0,0,0-.54-0.77c-0.81-.29-1.59-0.61-2.34-1a0.84,0.84,0,0,0-.84.08c-0.23,0-1.45-.09-3.06-0.34H182.3a0.84,0.84,0,0,0-.83.88c0.29,5.55,2.85,8.53,3.94,9.54A0.83,0.83,0,0,0,186,182.48Z" transform="translate(-15.88 -13.35)"/><path class="cls-3" d="M160.7,212.27a0.83,0.83,0,0,0-.58.24,12.92,12.92,0,0,0-3.31,6.3c-0.35-3.75-1.87-5.51-2.77-6.22a0.84,0.84,0,0,0-1.1.05,11.55,11.55,0,0,0-3.17,6.37,0.84,0.84,0,0,0,.82,1H156a0.83,0.83,0,0,0,.8-0.62,0.82,0.82,0,0,0,.8.62H163a0.84,0.84,0,0,0,.83-0.89c-0.27-3.84-1.68-5.77-2.5-6.57A0.83,0.83,0,0,0,160.7,212.27Z" transform="translate(-15.88 -13.35)"/><path class="cls-3" d="M135.64,188.24c-0.72-3-1.42-8.64,2-13.18a0.84,0.84,0,0,0-.66-1.34l-0.2,0a20.35,20.35,0,0,1-4.64.6H132a17.9,17.9,0,0,1-2.39-.17h-0.11a0.84,0.84,0,0,0-.83.78,17.92,17.92,0,0,0,5.55,14.1A0.84,0.84,0,0,0,135.64,188.24Z" transform="translate(-15.88 -13.35)"/><path class="cls-3" d="M174.28,212.4a0.83,0.83,0,0,0-.52.18c-0.89.71-2.42,2.47-2.77,6.22a12.9,12.9,0,0,0-3.32-6.31,0.84,0.84,0,0,0-1.16,0c-0.82.79-2.24,2.7-2.5,6.59a0.84,0.84,0,0,0,.83.89h5.37a0.83,0.83,0,0,0,.81-0.64,0.9,0.9,0,0,0,.79.64h5.39a0.84,0.84,0,0,0,.82-1,11.62,11.62,0,0,0-3.17-6.36A0.83,0.83,0,0,0,174.28,212.4Z" transform="translate(-15.88 -13.35)"/><path class="cls-3" d="M145.73,210.93a0.83,0.83,0,0,0-.59.25,8.89,8.89,0,0,0-2.16,3.77,0.82,0.82,0,0,0,0,.45,33.38,33.38,0,0,1-5.91-11.32,0.84,0.84,0,0,0-.8-0.58h-0.09a0.84,0.84,0,0,0-.74.75,29.09,29.09,0,0,0,2.85,15.69,0.84,0.84,0,0,0,1,.42A9.52,9.52,0,0,1,142,220h4a0.83,0.83,0,0,0,.69-1.29,12.61,12.61,0,0,0,1.66.88,0.84,0.84,0,0,0,1.16-.82,11.35,11.35,0,0,0-3.14-7.58A0.83,0.83,0,0,0,145.73,210.93Z" transform="translate(-15.88 -13.35)"/><path class="cls-3" d="M191.62,203.49h-0.09a0.84,0.84,0,0,0-.8.58,33.38,33.38,0,0,1-5.91,11.32,0.82,0.82,0,0,0,0-.45,8.89,8.89,0,0,0-2.16-3.77,0.84,0.84,0,0,0-1.18,0,11.35,11.35,0,0,0-3.14,7.58,0.84,0.84,0,0,0,1.16.82,12.6,12.6,0,0,0,1.66-.88,0.83,0.83,0,0,0,.69,1.29h4a9.53,9.53,0,0,1,2.72.38,0.83,0.83,0,0,0,1-.42,29.21,29.21,0,0,0,2.85-15.69A0.84,0.84,0,0,0,191.62,203.49Z" transform="translate(-15.88 -13.35)"/><path class="cls-3" d="M167.23,180.35a0.84,0.84,0,0,0,.61.36h0.08a0.83,0.83,0,0,0,.59-0.24,16.18,16.18,0,0,0,4.15-8.4,17.56,17.56,0,0,0,3.34,8.14,0.84,0.84,0,0,0,.6.32h0a0.85,0.85,0,0,0,.6-0.24,14.24,14.24,0,0,0,3.83-7.9,0.84,0.84,0,0,0-.64-0.93,18.77,18.77,0,0,1-4.63-1.62,14.75,14.75,0,0,0-2.26-1,0.83,0.83,0,0,0-1,.42v0a0.84,0.84,0,0,0-.65-0.86,21.1,21.1,0,0,0-4.52-.54h-2.77a0.83,0.83,0,0,1-1.39,0h-2.68a21.65,21.65,0,0,0-4.61.55,0.84,0.84,0,0,0-.65.85v0a0.83,0.83,0,0,0-1-.42,14.68,14.68,0,0,0-2.26,1,18.76,18.76,0,0,1-4.62,1.62,0.84,0.84,0,0,0-.64.94,14.31,14.31,0,0,0,3.82,7.9,0.84,0.84,0,0,0,.59.24h0.05a0.84,0.84,0,0,0,.6-0.32,17.56,17.56,0,0,0,3.34-8.15,16.24,16.24,0,0,0,4.15,8.4,0.83,0.83,0,0,0,.59.24H160a0.84,0.84,0,0,0,.61-0.36,20.27,20.27,0,0,0,3.24-11.09,0.1,0.1,0,1,1,.2,0A20.14,20.14,0,0,0,167.23,180.35Z" transform="translate(-15.88 -13.35)"/><path class="cls-3" d="M141.82,182.48a0.83,0.83,0,0,0,.57-0.23c1.09-1,3.64-4,3.94-9.54a0.84,0.84,0,0,0-.83-0.88h-0.13a31.07,31.07,0,0,1-3.1.34,0.79,0.79,0,0,0-.46-0.16,0.8,0.8,0,0,0-.34.08c-0.75.35-1.54,0.67-2.34,1a0.84,0.84,0,0,0-.56.8,3.8,3.8,0,0,0-.36.37,1,1,0,0,0-.24.67,11.85,11.85,0,0,0,3.26,7.34A0.83,0.83,0,0,0,141.82,182.48Z" transform="translate(-15.88 -13.35)"/><path class="cls-3" d="M199.08,175a0.84,0.84,0,0,0-.83-0.78h-0.11a17.92,17.92,0,0,1-2.39.17h-0.13a20.34,20.34,0,0,1-4.64-.6l-0.2,0a0.84,0.84,0,0,0-.66,1.34c3.46,4.54,2.76,10.2,2,13.17a0.84,0.84,0,0,0,1.38.81A18.2,18.2,0,0,0,199.08,175Z" transform="translate(-15.88 -13.35)"/><path class="cls-1" d="M219.68,92.25l-0.17,0a0.56,0.56,0,0,0-.49.28c-4.74,8.44-14.16,13.35-14.55,13.56l-0.1,0a0.23,0.23,0,0,1-.2-0.33c0.73-1.39,1-3.52.77-6.35a0.56,0.56,0,0,0-.44-0.5h-0.12a0.56,0.56,0,0,0-.49.29c-3.54,6.59-11.49,11.06-11.83,11.24a0.22,0.22,0,0,1-.11,0,0.23,0.23,0,0,1-.2-0.11,0.23,0.23,0,0,1,.07-0.31c1.9-1.2,2.7-4.61,3-7.26a0.56,0.56,0,0,0-1-.42c-1.48,1.8-4.49,4.51-10.41,7.16-8.59,3.85-9.24,9.7-9.12,12a0.58,0.58,0,0,0,0,.07c0.11,0.63.23,1.28,0.37,1.94a0.56,0.56,0,0,0,.49.44h0.05a0.56,0.56,0,0,0,.51-0.34c1.8-4.35,7.5-5.47,20-7.92h0.07l5.84-1.16c14.26-2.87,17.63-14.86,18.36-21.75A0.56,0.56,0,0,0,219.68,92.25Z" transform="translate(-15.88 -13.35)"/><path class="cls-1" d="M144,109.52c-5.92-2.65-8.93-5.36-10.41-7.16a0.56,0.56,0,0,0-1,.42c0.33,2.65,1.13,6.06,3,7.26a0.23,0.23,0,0,1,.07.31,0.23,0.23,0,0,1-.2.11l-0.11,0c-0.34-.19-8.29-4.65-11.83-11.24a0.56,0.56,0,0,0-.49-0.29H123a0.56,0.56,0,0,0-.44.5c-0.15,1.94-.14,4.62.77,6.34a0.23,0.23,0,0,1-.2.33l-0.1,0c-0.4-.2-9.82-5.12-14.55-13.56a0.56,0.56,0,0,0-.49-0.28l-0.17,0a0.56,0.56,0,0,0-.38.59c0.74,6.89,4.1,18.88,18.36,21.75l5.91,1.17c12.5,2.45,18.2,3.56,20,7.92a0.56,0.56,0,0,0,.51.34h0.05a0.56,0.56,0,0,0,.49-0.44c0.14-.67.26-1.31,0.37-1.94a0.58,0.58,0,0,0,0-.07C153.24,119.23,152.6,113.37,144,109.52Z" transform="translate(-15.88 -13.35)"/><path class="cls-1" d="M240.48,147.13a0.84,0.84,0,0,0-.8-0.58h-0.13a12.89,12.89,0,0,1-2.09.17,23.24,23.24,0,0,1-7-1.43,52.59,52.59,0,0,0-6.36-1.66,25.32,25.32,0,0,0-4.49-.48,14.3,14.3,0,0,0-6.62,1.76c-0.65.29-1.34,0.6-2.11,0.93a0.83,0.83,0,0,0,.15-0.76c-1.45-5.05-5.27-6.08-5.31-6.09a0.83,0.83,0,0,0-.21-0.13l0.15,0,0.93-.18a24.9,24.9,0,0,0,14.12-7c3.45-3.38,8.23-4.24,11.63-4.37a0.84,0.84,0,0,0,.14-1.65,20.87,20.87,0,0,0-4.31-.45h0a15.5,15.5,0,0,0-7.91,2c-0.82.49-1.62,1-2.4,1.57-3.36,2.28-7.16,4.85-13.23,4.85l-1.07,0c-0.58,0-1.16,0-1.72,0A28.41,28.41,0,0,0,196,134a0.84,0.84,0,0,0-.36-1.45,13,13,0,0,0-2.78-.3c-6.5,0-11.63,4.87-12.6,5.84a0.84,0.84,0,0,0-.18.9,5.52,5.52,0,0,1,.24,3.56c-0.53,1.84-2.38,3.81-6,3.81-0.25,0-.52,0-0.79,0h-0.06a0.84,0.84,0,0,0-.8.61l0,0.1c0,0.14-.08.27-0.11,0.42-0.91,3.82-4.54,4.63-6.06,4.8a0.84,0.84,0,0,0-.57,1.33c8.1,10.81,16,17.48,23.63,19.84a0.83,0.83,0,0,0,.24,0,0.9,0.9,0,0,0,.26.13,20.8,20.8,0,0,0,5.59.83h0.12a18.89,18.89,0,0,0,13.34-5.7,0.84,0.84,0,0,0-.22-1.34h0.09c6.07,0,9.88,2.58,13.24,4.85l0,0c0.81,0.55,1.57,1.06,2.36,1.54a15.5,15.5,0,0,0,7.91,2,20.9,20.9,0,0,0,4.31-.45,0.84,0.84,0,0,0-.14-1.65c-3.4-.13-8.18-1-11.63-4.37A24.49,24.49,0,0,0,212,162.49a0.83,0.83,0,0,0,.48-0.41,13.23,13.23,0,0,0,.5-11.61,0.84,0.84,0,0,0-.76-0.49h0c0.36-.23.73-0.48,1.1-0.74a10.11,10.11,0,0,1,6.11-2.31,24.45,24.45,0,0,1,5.71,1c1.55,0.39,3.31.83,5.43,1.24a17.91,17.91,0,0,0,3.33.33,14,14,0,0,0,6.2-1.38A0.84,0.84,0,0,0,240.48,147.13Zm-51.4,19.21a0.47,0.47,0,1,1-.47.47A0.47,0.47,0,0,1,189.08,166.34ZM189,158.18a0.47,0.47,0,1,1-.47-0.47A0.47,0.47,0,0,1,189,158.18Zm-0.16-11.76a0.47,0.47,0,1,1,.47.47A0.47,0.47,0,0,1,188.8,146.42ZM186,140.15a0.47,0.47,0,1,1-.47-0.47A0.47,0.47,0,0,1,186,140.15Zm-3.1,11.17a0.47,0.47,0,1,1,.47.47A0.47,0.47,0,0,1,182.92,151.32Zm0.88,10.32a0.47,0.47,0,1,1-.47-0.47A0.47,0.47,0,0,1,183.8,161.65Z" transform="translate(-15.88 -13.35)"/><path class="cls-1" d="M161.31,152.29c-1.52-.17-5.14-1-6-4.81,0-.18-0.09-0.35-0.14-0.52a0.84,0.84,0,0,0-.81-0.61h-0.06c-0.27,0-.54,0-0.79,0-3.58,0-5.43-2-6-3.81a5.52,5.52,0,0,1,.24-3.56,0.84,0.84,0,0,0-.18-0.9c-1-1-6.11-5.84-12.6-5.84a13,13,0,0,0-2.76.3,0.84,0.84,0,0,0-.36,1.46,28.6,28.6,0,0,0-5.93-.58c-0.55,0-1.12,0-1.69,0l-1,0c-6.11,0-9.91-2.58-13.27-4.85-0.78-.53-1.59-1.08-2.4-1.57a15.49,15.49,0,0,0-7.91-2,20.88,20.88,0,0,0-4.31.45,0.84,0.84,0,0,0,.14,1.65c3.4,0.13,8.18,1,11.63,4.37a24.89,24.89,0,0,0,14.12,7l0.93,0.18,0.15,0a0.84,0.84,0,0,0-.24.14c-0.14,0-3.86,1.11-5.28,6.08a0.84,0.84,0,0,0,.15.76c-0.78-.32-1.46-0.64-2.11-0.93a14.31,14.31,0,0,0-6.63-1.76,25.29,25.29,0,0,0-4.49.48,52.64,52.64,0,0,0-6.36,1.66,23.3,23.3,0,0,1-7,1.43,12.87,12.87,0,0,1-2.15-.18H88a0.84,0.84,0,0,0-.37,1.58,13.9,13.9,0,0,0,6.23,1.4,18.12,18.12,0,0,0,3.38-.33c2.13-.4,3.88-0.85,5.43-1.24a24.53,24.53,0,0,1,5.72-1,10.11,10.11,0,0,1,6.11,2.31q0.55,0.39,1.11.74h0a0.83,0.83,0,0,0-.76.49,13.24,13.24,0,0,0,.5,11.61,0.84,0.84,0,0,0,.49.41,24.5,24.5,0,0,0-13.09,6.83c-3.45,3.38-8.23,4.24-11.63,4.37a0.84,0.84,0,0,0-.14,1.65,20.88,20.88,0,0,0,4.31.45,15.5,15.5,0,0,0,7.91-2c0.8-.49,1.58-1,2.4-1.57,3.36-2.27,7.16-4.85,13.25-4.85h0.08a0.84,0.84,0,0,0-.21,1.33,18.94,18.94,0,0,0,13.33,5.7h0.14a20.81,20.81,0,0,0,5.57-.83,0.84,0.84,0,0,0,.25-0.12h0a0.78,0.78,0,0,0,.24,0c7.58-2.36,15.53-9,23.62-19.83A0.84,0.84,0,0,0,161.31,152.29Zm-17.38-1a0.47,0.47,0,1,1,.47.47A0.47,0.47,0,0,1,143.93,151.32Zm0.54,9.85a0.47,0.47,0,1,1-.47.47A0.47,0.47,0,0,1,144.47,161.18Zm-1.75-21a0.47,0.47,0,1,1-.47-0.47A0.47,0.47,0,0,1,142.72,140.15Zm-4.2,6.74a0.47,0.47,0,1,1,.47-0.47A0.47,0.47,0,0,1,138.52,146.9Zm1.26,11.29a0.47,0.47,0,1,1-.47-0.47A0.47,0.47,0,0,1,139.78,158.18Zm-1.06,8.15a0.47,0.47,0,1,1-.47.47A0.47,0.47,0,0,1,138.72,166.34Z" transform="translate(-15.88 -13.35)"/><path class="cls-2" d="M192.1,223.18l-0.05-.07,0,0,0-.06a7.26,7.26,0,0,0-6.15-2.74H142a7.21,7.21,0,0,0-6.28,2.92,6.68,6.68,0,0,0-1,5.71c0.6,1.68,3,3,5.52,3a6.56,6.56,0,0,0,4.24-1.49,13.13,13.13,0,0,1,8.1-2.6c0.39,0,.62,0,0.63,0h22.1a13.14,13.14,0,0,1,8.1,2.6,6.57,6.57,0,0,0,4.24,1.49c2.5,0,4.92-1.31,5.52-3A6.68,6.68,0,0,0,192.1,223.18Z" transform="translate(-15.88 -13.35)"/><path class="cls-2" d="M145,172h0.12a22.72,22.72,0,0,0,6.94-2.05,19.13,19.13,0,0,1,8.41-2h6.95a19.26,19.26,0,0,1,8.33,2,22.71,22.71,0,0,0,6.94,2.06h0.12a0.84,0.84,0,0,0,.43-1.55c-5.83-3.54-11.86-9.52-17.93-17.78a0.84,0.84,0,0,0-.67-0.34h-1.5a0.84,0.84,0,0,0-.67.34c-6.06,8.25-12.09,14.24-17.92,17.78A0.84,0.84,0,0,0,145,172Z" transform="translate(-15.88 -13.35)"/><path class="cls-2" d="M197.51,116.58a0.81,0.81,0,0,0-.3-0.63,0.8,0.8,0,0,0-.51-0.18l-0.17,0-0.39.08-0.31.06-2.48.49a0.84,0.84,0,0,0-.42,1.42,2.63,2.63,0,1,1-4.27.89,0.84,0.84,0,0,0-.77-1.15l-0.18,0c-1.14.26-2.13,0.5-3,.73a0.84,0.84,0,0,0-.57,1.09v0.12A7,7,0,0,0,185,123a7.08,7.08,0,0,0,6.08,3.55,7,7,0,0,0,7-7A7.46,7.46,0,0,0,197.51,116.58Z" transform="translate(-15.88 -13.35)"/><path class="cls-2" d="M143.33,118.75a0.84,0.84,0,0,0-.53-0.42c-0.89-.23-1.87-0.47-3-0.73l-0.18,0a0.84,0.84,0,0,0-.77,1.15,2.6,2.6,0,0,1,.2,1,2.63,2.63,0,1,1-4.46-1.87,0.84,0.84,0,0,0-.42-1.42l-2.48-.49-0.41-.08-0.29-.06-0.16,0a0.84,0.84,0,0,0-.84.83h0a7.37,7.37,0,0,0-.54,2.94,7,7,0,0,0,7,7,7.08,7.08,0,0,0,6.08-3.55,7,7,0,0,0,.91-3.42v-0.13A0.84,0.84,0,0,0,143.33,118.75Z" transform="translate(-15.88 -13.35)"/><path class="cls-3" d="M209.58,112.23a0.84,0.84,0,0,0-.86,0,23.61,23.61,0,0,1-7,2.55l-3.71.74a0.84,0.84,0,0,0-.59,1.18,7.76,7.76,0,0,1,.52,2.88,6.88,6.88,0,0,1-13.76,0,0.84,0.84,0,0,0-1.08-.8c-5.49,1.66-7.47,3.68-7.83,8l0,0.07a0.84,0.84,0,0,0,0,.38q0.13,0.49.26,1a0.84,0.84,0,0,0,.59.58l0.21,0a0.84,0.84,0,0,0,.59-0.24,5.78,5.78,0,0,1,3.63-1.73h0.09a15.24,15.24,0,0,1,2.82.52,36.27,36.27,0,0,0,8.69,1.23,23.43,23.43,0,0,0,8.48-1.55c7.55-2.92,9-10.76,9.32-14A0.84,0.84,0,0,0,209.58,112.23Zm-33.47,14.7h0Z" transform="translate(-15.88 -13.35)"/><path class="cls-3" d="M144.35,118.76a0.84,0.84,0,0,0-1.08.81,6.88,6.88,0,0,1-13.76,0,7.76,7.76,0,0,1,.52-2.88,0.84,0.84,0,0,0-.59-1.18l-3.71-.74a23.61,23.61,0,0,1-7-2.55,0.84,0.84,0,0,0-1.24.8c0.29,3.24,1.77,11.08,9.32,14a23.42,23.42,0,0,0,8.47,1.55,36.29,36.29,0,0,0,8.69-1.23,14.64,14.64,0,0,1,2.82-.52h0.1a5.77,5.77,0,0,1,3.62,1.72,0.84,0.84,0,0,0,.59.24l0.21,0a0.84,0.84,0,0,0,.59-0.58q0.14-.49.26-1a0.84,0.84,0,0,0,0-.38l0-.07C151.83,122.44,149.84,120.42,144.35,118.76Z" transform="translate(-15.88 -13.35)"/><path class="cls-2" d="M174.07,122.65a0.55,0.55,0,0,0,0-.12l0-.07c0-.07,0-0.24-0.06-0.48a65.88,65.88,0,0,1-1-8.62,0.23,0.23,0,0,1,.22-0.23h0a0.24,0.24,0,0,1,.23.22c0,0.06.06,1.44,0.29,3.58a0.56,0.56,0,0,0,.48.49h0.08a0.56,0.56,0,0,0,.52-0.35c1.37-3.36,4.24-6,8.53-8,10.46-4.69,11.75-9.49,11.8-9.69a0.24,0.24,0,0,1,.22-0.18,0.23,0.23,0,0,1,.23.22,24.86,24.86,0,0,1-1.19,7.74,0.56,0.56,0,0,0,.85.64c3.46-2.54,7.89-6.58,9.38-11.41a0.22,0.22,0,0,1,.21-0.16,0.23,0.23,0,0,1,.23.18,23.29,23.29,0,0,1,.2,7.6,0.56,0.56,0,0,0,.84.58,43.76,43.76,0,0,0,8.51-6.9,0.56,0.56,0,0,0,0-.79c-19.74-18.34-41.84-18.55-42.77-18.55h-16c-1,0-23.18.27-42.86,18.55a0.56,0.56,0,0,0,0,.79,43.73,43.73,0,0,0,8.51,6.9,0.56,0.56,0,0,0,.84-0.58,23.29,23.29,0,0,1,.2-7.59,0.23,0.23,0,0,1,.21-0.18h0a0.24,0.24,0,0,1,.23.16c1.49,4.84,5.92,8.88,9.38,11.41a0.56,0.56,0,0,0,.85-0.64,25.38,25.38,0,0,1-1.19-7.74,0.23,0.23,0,0,1,.2-0.23h0a0.24,0.24,0,0,1,.24.18c0.05,0.22,1.33,5,11.8,9.7,4.29,1.92,7.16,4.6,8.53,8a0.56,0.56,0,0,0,.52.35h0.08a0.56,0.56,0,0,0,.48-0.49c0.23-2.1.29-3.43,0.29-3.57a0.23,0.23,0,0,1,.23-0.22,0.23,0.23,0,0,1,.17.07,0.22,0.22,0,0,1,.06.16,65.27,65.27,0,0,1-1,8.56c0,0.29-.05.47-0.06,0.55l0,0.07a0.55,0.55,0,0,0,0,.12,58.34,58.34,0,0,1-3.52,12,0.56,0.56,0,0,0,.8.69,10.21,10.21,0,0,1,.93-0.51,9.86,9.86,0,0,1,4.24-1,11,11,0,0,1,7.63,3.58,0.56,0.56,0,0,0,.81,0,11,11,0,0,1,7.63-3.58,9.85,9.85,0,0,1,4.24,1l0.5,0.26a0.6,0.6,0,0,0,.29.07,0.56,0.56,0,0,0,.37-0.14,0.55,0.55,0,0,0,.16-0.62A58.7,58.7,0,0,1,174.07,122.65Zm-24.78-20.38h0.39a11.91,11.91,0,0,1,4.25,1.24,11.2,11.2,0,0,0,3.21,1.05,20.83,20.83,0,0,0,2.53.14c1.43,0,2.61-.11,2.84-0.14h2.43c0.91,0.09,1.93.14,2.85,0.14a20.83,20.83,0,0,0,2.53-.14,11.18,11.18,0,0,0,3.2-1,11.94,11.94,0,0,1,4.26-1.25h0.39a18.66,18.66,0,0,1,6.38,1.67,24.78,24.78,0,0,0-3.44-.27,8.58,8.58,0,0,0-4.16.81c-2.45,1.4-5.18,2.38-6.65,2.38H157.16c-1.47,0-4.21-1-6.65-2.38a8.57,8.57,0,0,0-4.16-.81,24.83,24.83,0,0,0-3.43.27A18.58,18.58,0,0,1,149.29,102.27Zm16.37-10a39.55,39.55,0,0,0,4.53.26,28,28,0,0,0,4-.26,15.87,15.87,0,0,0,5.07-2A16.87,16.87,0,0,1,186,88l0.65,0c3.84,0,8.89,2.47,11,3.59a34.76,34.76,0,0,0-6.35-.67c-2.88,0-5.09.51-6.56,1.51-4,2.68-8.22,4.48-10.59,4.48H153.3c-2.38,0-6.64-1.8-10.6-4.48-1.48-1-3.68-1.51-6.56-1.51a34.87,34.87,0,0,0-6.34.66c2.1-1.12,7.16-3.58,11-3.58l0.64,0a16.87,16.87,0,0,1,6.77,2.34,15.86,15.86,0,0,0,5.07,2,28,28,0,0,0,4,.26,39.41,39.41,0,0,0,4.51-.26h3.86Z" transform="translate(-15.88 -13.35)"/><path class="cls-2" d="M227.06,175.15A12.61,12.61,0,0,1,224.5,174c-0.73-.44-1.43-0.91-2.27-1.48a0.56,0.56,0,0,0-.86.56,11.45,11.45,0,0,1-1.13,5.89,32.71,32.71,0,0,1-4.83,7.49c-2.39,3.07-4.85,6.24-6.12,10.38,0-2.64.34-9.33,3.52-14.06,3.92-5.82,4.24-11.67.81-14.56a0.56,0.56,0,0,0-.23-0.12,18.71,18.71,0,0,0-2.79-.43h0a0.56,0.56,0,0,0-.43.21,18.22,18.22,0,0,1-3.05,2.88,0.56,0.56,0,0,0,0,.85c0.78,0.72,2.3,3.26-.44,11.35a33.81,33.81,0,0,1-4.65,8.47c-3.34,4.86-6.79,9.88-6.77,21a0.56,0.56,0,0,0,1,.37,22.6,22.6,0,0,1,6.71-5.11c11.09-5.68,21.2-15,21.2-19.49s2.79-11,3.35-12.26A0.56,0.56,0,0,0,227.06,175.15Z" transform="translate(-15.88 -13.35)"/><path class="cls-2" d="M239.77,148.53a0.56,0.56,0,0,0-.22,0,14.21,14.21,0,0,1-5.65,1.12,18.33,18.33,0,0,1-3.42-.34c-2.13-.4-3.89-0.85-5.43-1.24a24.28,24.28,0,0,0-5.66-1,10,10,0,0,0-6,2.27l-0.08.06-0.09.06a0.56,0.56,0,0,0-.18.7,13.25,13.25,0,0,1,1,7.65,0.56,0.56,0,0,0,.24.55c1.38,0.91,4.76,3.43,6.25,7a0.56,0.56,0,0,0,.22.26,26.58,26.58,0,0,1,4.42,3.51,13.54,13.54,0,0,0,3.8,2.59,0.56,0.56,0,0,0,.67-0.15,26.32,26.32,0,0,0,1.79-2.49,0.56,0.56,0,0,0,.08-0.4c-0.26-1.37-1.24-6-2.74-7.84-1-1.27-2.85-1.6-4.77-2a14.79,14.79,0,0,1-3.91-1.09c-2.29-1.14-3.22-5.19-3.48-6.66a22.84,22.84,0,0,0,4.37,3.69,12.22,12.22,0,0,0,4,.93,15.56,15.56,0,0,1,6.1,1.68,6.45,6.45,0,0,1,2.79,3.65,0.56,0.56,0,0,0,.53.4h0a0.56,0.56,0,0,0,.53-0.41,29.36,29.36,0,0,0,1-8.5,0.42,0.42,0,0,1,.29-0.43l0.13,0a0.42,0.42,0,0,1,.36.2l1.87,3.11a0.56,0.56,0,0,0,.48.27h0.08a0.56,0.56,0,0,0,.46-0.42,25.25,25.25,0,0,0,.73-6.23A0.56,0.56,0,0,0,239.77,148.53Z" transform="translate(-15.88 -13.35)"/><path class="cls-2" d="M121.2,183c-2.74-8.09-1.22-10.63-.44-11.35a0.56,0.56,0,0,0,0-.85,18.2,18.2,0,0,1-3.06-2.88,0.56,0.56,0,0,0-.43-0.21h0a18.34,18.34,0,0,0-3.24.55,0.56,0.56,0,0,0-.23.12c-3.34,3-3,8.64.94,14.44,3.19,4.73,3.53,11.41,3.52,14.06-1.26-4.14-3.73-7.31-6.11-10.38a32.67,32.67,0,0,1-4.83-7.49,11.88,11.88,0,0,1-1.17-5.68,0.56,0.56,0,0,0-.86-0.53c-0.61.41-1.26,0.85-1.91,1.24a12.78,12.78,0,0,1-2.83,1.25,0.56,0.56,0,0,0-.34.76c0.55,1.24,3.31,7.63,3.31,12.17s10.1,13.8,21.2,19.49a22.4,22.4,0,0,1,7,5.46,0.56,0.56,0,0,0,1-.35c0.1-11.36-3.39-16.43-6.76-21.34A33.83,33.83,0,0,1,121.2,183Z" transform="translate(-15.88 -13.35)"/><path class="cls-2" d="M261,105a0.72,0.72,0,0,0-.56-0.27l-0.16,0a71.09,71.09,0,0,1-12.18.95,123.11,123.11,0,0,1-15.31-1h-0.07a0.56,0.56,0,0,0-.54.42c-0.29,1.17-1.38,3.4-5.48,5.17-5.89,2.55-9.93,5.19-11.53,10.13a21.07,21.07,0,0,1,8.69-16.18,0.56,0.56,0,0,0-.22-1c-1.2-.23-1.95-0.4-2.1-0.43a0.42,0.42,0,0,1-.2-0.1c-0.6-.57-1.27-1.16-2-1.82a0.56,0.56,0,0,0-.36-0.14l-0.13,0a0.56,0.56,0,0,0-.39.34,22.28,22.28,0,0,1-8,10.44,0.56,0.56,0,0,0-.24.45c0,1.19-.39,11.74-9.49,15.25a23.59,23.59,0,0,1-8.54,1.57,36.55,36.55,0,0,1-8.73-1.24,14.85,14.85,0,0,0-2.79-.51H180.6a5.81,5.81,0,0,0-3.85,2l-0.1.05a0.56,0.56,0,0,0-.34.69,46.26,46.26,0,0,0,3,7.43l0.06,0.09,0.25,0.34a0.56,0.56,0,0,0,.4.24h0a0.57,0.57,0,0,0,.4-0.15c1.76-1.68,6.5-5.57,12.41-5.57a13.26,13.26,0,0,1,5.65,1.28,0.56,0.56,0,0,0,.24.05h0.05c1-.1,2.07-0.15,3.12-0.15,0.55,0,1.11,0,1.68,0l1.07,0c5.49,0,9-2.08,12.48-4.39a0.56,0.56,0,0,0,.2-0.68,0.22,0.22,0,0,1,0-.18,30.64,30.64,0,0,1,9-11.09,0.56,0.56,0,0,0,.18-0.21l0.15-.07,0.19-.09,0.07,0a19.47,19.47,0,0,1,7.85-3.2l0.09,0c2.44-.83,4.94-1.54,7.43-2.12l1.49-.37a32.49,32.49,0,0,1,7.59-1.3,5.93,5.93,0,0,1,4.28,1.32,2.87,2.87,0,0,1,.95,1.62,0.56,0.56,0,0,0,.44.46h0.11a0.56,0.56,0,0,0,.47-0.27,44.24,44.24,0,0,0,3.53-7.06A0.73,0.73,0,0,0,261,105Z" transform="translate(-15.88 -13.35)"/><path class="cls-2" d="M106.63,165.95a0.56,0.56,0,0,0,.21-0.27c1.54-4,5.46-6.73,6.63-7.46a0.56,0.56,0,0,0,.25-0.55,13.26,13.26,0,0,1,1.06-7.48,0.56,0.56,0,0,0-.18-0.7l-0.1-.06-0.08-.05a10,10,0,0,0-6-2.27,24.23,24.23,0,0,0-5.65,1c-1.56.39-3.32,0.84-5.44,1.24a18.32,18.32,0,0,1-3.41.33,14.12,14.12,0,0,1-6-1.26,0.56,0.56,0,0,0-.79.5,25.2,25.2,0,0,0,.73,6.38,0.56,0.56,0,0,0,.46.42h0.08a0.56,0.56,0,0,0,.48-0.27l1.87-3.1a0.42,0.42,0,0,1,.36-0.2l0.13,0a0.42,0.42,0,0,1,.29.43,29.36,29.36,0,0,0,1,8.5,0.56,0.56,0,0,0,.53.41h0a0.56,0.56,0,0,0,.53-0.4,6.45,6.45,0,0,1,2.79-3.65,15.56,15.56,0,0,1,6.1-1.68,12.23,12.23,0,0,0,4-.93,22.88,22.88,0,0,0,4.37-3.69c-0.27,1.47-1.2,5.52-3.48,6.66a14.78,14.78,0,0,1-3.91,1.09c-1.93.35-3.74,0.69-4.77,2-1.5,1.84-2.48,6.47-2.74,7.84a0.56,0.56,0,0,0,.08.4,26.29,26.29,0,0,0,1.87,2.6,0.56,0.56,0,0,0,.66.16,13.59,13.59,0,0,0,4-2.69A26.81,26.81,0,0,1,106.63,165.95Zm4.21-15.54h0Z" transform="translate(-15.88 -13.35)"/><path class="cls-2" d="M150.82,129.05a0.24,0.24,0,0,1-.1-0.06,5.83,5.83,0,0,0-3.82-2H146.8a14.77,14.77,0,0,0-2.77.51,36.51,36.51,0,0,1-8.73,1.24,23.58,23.58,0,0,1-8.54-1.57c-9.1-3.51-9.47-14.06-9.49-15.25a0.56,0.56,0,0,0-.24-0.45A22.28,22.28,0,0,1,109,101a0.56,0.56,0,0,0-.39-0.34l-0.13,0a0.56,0.56,0,0,0-.36.14c-0.76.66-1.42,1.25-2,1.82a0.42,0.42,0,0,1-.2.1c-0.15,0-.9.2-2.1,0.43a0.56,0.56,0,0,0-.22,1,21.07,21.07,0,0,1,8.69,16.18c-1.6-4.94-5.64-7.58-11.53-10.13-4.1-1.78-5.19-4-5.48-5.17a0.56,0.56,0,0,0-.54-0.42H94.65a123.09,123.09,0,0,1-15.31,1,71.06,71.06,0,0,1-12.21-1H67a0.71,0.71,0,0,0-.55.26,0.74,0.74,0,0,0-.12.75,44.25,44.25,0,0,0,3.53,7.06,0.56,0.56,0,0,0,.47.27h0.11a0.56,0.56,0,0,0,.44-0.46,2.87,2.87,0,0,1,.95-1.62,5.93,5.93,0,0,1,4.28-1.32,32.46,32.46,0,0,1,7.58,1.29l1.5,0.37c2.48,0.58,5,1.29,7.41,2.11l0.09,0a19.45,19.45,0,0,1,7.92,3.23l0.07,0,0.17,0.08,0.12,0.06a0.56,0.56,0,0,0,.17.2,30.6,30.6,0,0,1,9,11.1,0.24,0.24,0,0,1,0,.12,0.56,0.56,0,0,0,.24.55c3,2,6.77,4.57,12.75,4.57l1.07,0c0.57,0,1.14,0,1.7,0,1.05,0,2.1,0,3.1.15h0.05a0.56,0.56,0,0,0,.24-0.05,13.26,13.26,0,0,1,5.64-1.28c5.81,0,10.52,3.82,12.28,5.46a0.56,0.56,0,0,0,.38.15l0.16,0a0.56,0.56,0,0,0,.38-0.4v-0.06a46.87,46.87,0,0,0,3-7.49A0.56,0.56,0,0,0,150.82,129.05Z" transform="translate(-15.88 -13.35)"/><path class="cls-2" d="M239.24,113.38c-0.46,0-.92,0-1.38,0-11,0-17.37,9.31-19.59,13.31a0.84,0.84,0,0,0,1.19,1.1l0.06,0,0.81-.51a14.17,14.17,0,0,1,5.52-1.8,0.84,0.84,0,0,0,.63-0.43c0.66-.27,16.93-7,16.42-10.12C242.8,114,241.57,113.54,239.24,113.38Z" transform="translate(-15.88 -13.35)"/><path class="cls-2" d="M89.6,113.33c-0.45,0-.91,0-1.36,0-2.33.17-3.57,0.66-3.68,1.48C84.07,117.92,99.87,124.5,101,125a0.88,0.88,0,0,0,.62.39,14.31,14.31,0,0,1,5.86,1.85l0.22,0.14,0.17,0.11a0.84,0.84,0,0,0,1.17-1.12C106.79,122.41,100.45,113.33,89.6,113.33Z" transform="translate(-15.88 -13.35)"/><path class="cls-2" d="M210.26,204.38a0.56,0.56,0,0,0-.31.09,71,71,0,0,1-6.71,3.94c-9.29,4.76-10.56,12.63-10.72,14.16a0.56,0.56,0,0,0,.09.37,7.28,7.28,0,0,1,1,6.14c-0.7,2-3.24,3.37-6.06,3.37a7.36,7.36,0,0,1-2.85-.56,0.56,0.56,0,0,0-.58.09c-1.37,1.16-5.59,3.87-15.25,3.87h-0.6c2.18-.65,6.85-2.48,8.83-6.62a0.56,0.56,0,0,0-.45-0.79c-0.61-.06-1.12-0.07-1.44-0.07H153.12l-0.58,0a15.13,15.13,0,0,0-1.75.11,0.56,0.56,0,0,0-.44.79c2,4.11,6.63,5.93,8.81,6.58h-0.6c-9.52,0-13.77-2.65-15.16-3.79a0.56,0.56,0,0,0-.55-0.09,7.41,7.41,0,0,1-2.66.48c-2.81,0-5.36-1.42-6.06-3.37a7.3,7.3,0,0,1,.8-5.74A0.56,0.56,0,0,0,135,223l0-.09c0-.82-0.7-9.33-10.74-14.48-2-1-3.95-2.15-5.92-3.42a0.56,0.56,0,0,0-.82.68,28.42,28.42,0,0,1,2,8.17,0.56,0.56,0,0,0,.43.49H120a0.56,0.56,0,0,0,.47-0.26l1-1.54a0.44,0.44,0,0,1,.38-0.2,0.43,0.43,0,0,1,.37.25c0.15,0.33,3.71,8.16,3.79,15.94a0.56,0.56,0,0,0,1,.34,4.08,4.08,0,0,0,.95-2,0.42,0.42,0,0,1,.36-0.37h0a0.45,0.45,0,0,1,.44.26c0.08,0.19,8,18.45,25.22,18.45h20.12c17.31,0,25.14-18.27,25.22-18.45a0.43,0.43,0,0,1,.4-0.26h0.06a0.42,0.42,0,0,1,.36.37,4.08,4.08,0,0,0,.95,2,0.56,0.56,0,0,0,1-.34c0.08-7.79,3.64-15.61,3.79-15.94a0.42,0.42,0,0,1,.36-0.25,0.44,0.44,0,0,1,.38.2l1,1.54a0.56,0.56,0,0,0,.47.26h0.13a0.56,0.56,0,0,0,.43-0.49,28.23,28.23,0,0,1,2.19-8.68A0.56,0.56,0,0,0,210.26,204.38Z" transform="translate(-15.88 -13.35)"/><path class="cls-2" d="M256.27,110.29a6.72,6.72,0,0,0-4.88-1.57,33.3,33.3,0,0,0-7.8,1.32l-1.49.37c-1.44.34-2.89,0.72-4.32,1.13a1.11,1.11,0,0,0,.3,2.18c0.37,0,.75,0,1.13,0,2,0.14,3.23.56,3.32,1.14,0,0.1.24,2.55-13.42,8.53a1.11,1.11,0,0,0,.37,2.13,20,20,0,0,1,6.21,1.4c-0.65-.05-1.41-0.09-2.25-0.09-3.83,0-9.2.78-13,4.48a23.92,23.92,0,0,1-12.89,6.73,1.11,1.11,0,0,0-.4,2,8.65,8.65,0,0,1,3.46,4.91,1.11,1.11,0,0,0,1.52.7l1-.45c2.3-1,3.82-1.73,6.43-1.73a25.11,25.11,0,0,1,4.46.48,52.19,52.19,0,0,1,6.32,1.65,23.41,23.41,0,0,0,7.09,1.44,13.41,13.41,0,0,0,2.26-.19,1.11,1.11,0,0,0,.92-1.25,28.47,28.47,0,0,0-1.42-5.72,1.12,1.12,0,0,0-1-.74l-0.19,0a24.07,24.07,0,0,1-4.07.36,24.33,24.33,0,0,1-7.72-1.27,47.11,47.11,0,0,0,10.16-1.52,1.11,1.11,0,0,0,.68-1.62,27.84,27.84,0,0,0-2-3.07,1.12,1.12,0,0,0-.44-0.35,42.49,42.49,0,0,0,22.53-17.15,1.11,1.11,0,0,0,.13-0.25A3.49,3.49,0,0,0,256.27,110.29Z" transform="translate(-15.88 -13.35)"/><path class="cls-2" d="M120.62,140.11a1.11,1.11,0,0,0-.4-2,23.93,23.93,0,0,1-12.89-6.73c-3.78-3.7-9.14-4.48-13-4.48-0.85,0-1.62,0-2.26.09A20,20,0,0,1,98,125.58a1.11,1.11,0,0,0,.36-2.13c-13.7-6-13.47-8.44-13.45-8.54,0.09-.58,1.3-1,3.32-1.14,0.39,0,.76,0,1.13,0a1.11,1.11,0,0,0,.3-2.18c-1.43-.42-2.88-0.8-4.32-1.13l-1.4-.35-0.07,0a33.89,33.89,0,0,0-7.82-1.33,6.73,6.73,0,0,0-4.88,1.57,3.49,3.49,0,0,0-1,4.06,1.11,1.11,0,0,0,.13.25A42.47,42.47,0,0,0,92.9,131.75a1.12,1.12,0,0,0-.44.35,28,28,0,0,0-2,3.07,1.11,1.11,0,0,0,.68,1.62,47.18,47.18,0,0,0,10.15,1.52,24.33,24.33,0,0,1-7.72,1.27,24.07,24.07,0,0,1-4.07-.36l-0.19,0a1.12,1.12,0,0,0-1,.74,28.57,28.57,0,0,0-1.41,5.66,1.11,1.11,0,0,0,.89,1.25,13.48,13.48,0,0,0,2.58.25,23.46,23.46,0,0,0,7.09-1.44,52.21,52.21,0,0,1,6.32-1.65,25.13,25.13,0,0,1,4.46-.48,14,14,0,0,1,6.43,1.72l1,0.46a1.11,1.11,0,0,0,1.52-.7A8.65,8.65,0,0,1,120.62,140.11Z" transform="translate(-15.88 -13.35)"/><path class="cls-1" d="M215.38,119.4l0.15,0a0.56,0.56,0,0,0,.51-0.32c1.85-4,5.67-6.35,10.83-8.59,4.14-1.79,5.31-4.09,5.64-5.3a0.56,0.56,0,0,0-.46-0.7c-3.1-.41-5.68-0.85-7.3-1.15h-0.1a0.56,0.56,0,0,0-.31.1A21.31,21.31,0,0,0,215,118.8,0.56,0.56,0,0,0,215.38,119.4Z" transform="translate(-15.88 -13.35)"/><path class="cls-1" d="M144.61,104.08h0c0.59,0,1.16-.07,1.7-0.07a8.27,8.27,0,0,1,4,.77,16.34,16.34,0,0,0,6.82,2.42h13.15a16.35,16.35,0,0,0,6.82-2.43,8.27,8.27,0,0,1,4-.77c0.54,0,1.11,0,1.69.07h0a0.56,0.56,0,0,0,.19-1.08,15,15,0,0,0-4.86-1.05h-0.42a12.19,12.19,0,0,0-4.36,1.27,10.93,10.93,0,0,1-3.12,1,20.41,20.41,0,0,1-2.49.14c-1.45,0-2.61-.11-2.83-0.14h-2.52c-0.06,0-1.26.13-2.77,0.13a20.41,20.41,0,0,1-2.49-.14,11,11,0,0,1-3.12-1A12.17,12.17,0,0,0,149.7,102h-0.43a15.06,15.06,0,0,0-4.85,1.05A0.56,0.56,0,0,0,144.61,104.08Z" transform="translate(-15.88 -13.35)"/><path class="cls-1" d="M184,231.54a6.89,6.89,0,0,1-1-.71,11,11,0,0,0-5.44-2.29h-0.09a0.56,0.56,0,0,0-.51.33c-1.51,3.42-4.86,5.27-7.4,6.22a0.56,0.56,0,0,0,.2,1.08h0c8.44-.15,12.6-2.39,14.33-3.71A0.56,0.56,0,0,0,184,231.54Z" transform="translate(-15.88 -13.35)"/><path class="cls-1" d="M157.92,235.1c-2.53-.95-5.86-2.79-7.38-6.18a0.56,0.56,0,0,0-.51-0.33h-0.1a10.85,10.85,0,0,0-5.14,2.23,6.89,6.89,0,0,1-1.19.79,0.56,0.56,0,0,0-.07.94c1.76,1.28,5.93,3.46,14.18,3.61h0A0.56,0.56,0,0,0,157.92,235.1Z" transform="translate(-15.88 -13.35)"/><path class="cls-1" d="M196.45,90.55c-2.73-1.33-6.65-2.92-9.76-2.92l-0.66,0a17.14,17.14,0,0,0-6.9,2.38,15.67,15.67,0,0,1-5,1.93,27.62,27.62,0,0,1-4,.26,39.57,39.57,0,0,1-4.5-.26h-4a39,39,0,0,1-4.44.25,27.62,27.62,0,0,1-4-.26,15.67,15.67,0,0,1-5-1.93,17.14,17.14,0,0,0-6.9-2.38l-0.65,0c-3.13,0-7,1.59-9.78,2.92a0.56,0.56,0,0,0,.24,1.06h0.09a31.73,31.73,0,0,1,4.79-.39c2.81,0,5,.49,6.38,1.45,4.63,3.13,8.75,4.54,10.78,4.54h20.87c2,0,6.15-1.4,10.78-4.54,1.42-1,3.57-1.45,6.38-1.45a31.73,31.73,0,0,1,4.79.39h0.09A0.56,0.56,0,0,0,196.45,90.55Z" transform="translate(-15.88 -13.35)"/><path class="cls-1" d="M231.2,157.2a15.79,15.79,0,0,0-6.22-1.72,11.87,11.87,0,0,1-3.84-.89,20.51,20.51,0,0,1-3.76-3.08,0.56,0.56,0,0,0-.94.52c0.51,2.25,1.53,5.14,3.5,6.12a15,15,0,0,0,4,1.12c1.86,0.34,3.62.67,4.57,1.84,1.26,1.55,2.17,5.31,2.5,6.86a0.56,0.56,0,0,0,.46.43h0.09a0.56,0.56,0,0,0,.48-0.28,28.79,28.79,0,0,0,2.35-5.31,0.56,0.56,0,0,0,0-.19A6.84,6.84,0,0,0,231.2,157.2Z" transform="translate(-15.88 -13.35)"/><path class="cls-1" d="M221.18,171.81a25.92,25.92,0,0,0-6.23-3.26,0.56,0.56,0,0,0-.62.87c2.33,3,1.64,8.09-1.78,13.18-2.75,4.08-3.4,9.73-3.54,12.74a0.56,0.56,0,0,0,.44.57h0.12a0.56,0.56,0,0,0,.52-0.36,35.55,35.55,0,0,1,5.59-8.9,33,33,0,0,0,4.87-7.57c1.66-4.07,1.36-6.1.81-7.09A0.56,0.56,0,0,0,221.18,171.81Z" transform="translate(-15.88 -13.35)"/><path class="cls-1" d="M213.15,162.56a24.32,24.32,0,0,1,6.42,2.43,0.56,0.56,0,0,0,.76-0.75,18.49,18.49,0,0,0-5.58-5.92,0.56,0.56,0,0,0-.86.34,14.46,14.46,0,0,1-1.11,3.12A0.56,0.56,0,0,0,213.15,162.56Z" transform="translate(-15.88 -13.35)"/><path class="cls-1" d="M113.06,169.54a0.56,0.56,0,0,0-.64-0.85,28.27,28.27,0,0,0-6.26,3.42,0.56,0.56,0,0,0-.21.26c-0.39,1-.53,3,1,6.71a32.93,32.93,0,0,0,4.87,7.57,35.56,35.56,0,0,1,5.59,8.9,0.56,0.56,0,0,0,.52.36H118a0.56,0.56,0,0,0,.44-0.57c-0.14-3-.79-8.66-3.54-12.74C111.56,177.59,110.84,172.59,113.06,169.54Z" transform="translate(-15.88 -13.35)"/><path class="cls-1" d="M238.4,139.36a30.64,30.64,0,0,0-1.48-3.21,0.56,0.56,0,0,0-.49-0.3l-0.15,0h0a46.14,46.14,0,0,1-11.18,1.55h-0.67a0.56,0.56,0,0,0-.22,1.07,25.42,25.42,0,0,0,9.75,1.95,24.65,24.65,0,0,0,4-.33A0.56,0.56,0,0,0,238.4,139.36Z" transform="translate(-15.88 -13.35)"/><path class="cls-1" d="M111,152a0.56,0.56,0,0,0-.94-0.52,20.51,20.51,0,0,1-3.76,3.08,11.82,11.82,0,0,1-3.83.89,15.82,15.82,0,0,0-6.24,1.73,6.89,6.89,0,0,0-3.21,5.41,0.56,0.56,0,0,0,0,.2,28.76,28.76,0,0,0,2.35,5.31,0.56,0.56,0,0,0,.48.28H96a0.56,0.56,0,0,0,.46-0.43c0.33-1.54,1.24-5.3,2.5-6.86,1-1.17,2.71-1.5,4.57-1.84a15,15,0,0,0,4-1.12C109.52,157.15,110.54,154.26,111,152Z" transform="translate(-15.88 -13.35)"/><path class="cls-1" d="M100.62,110.51c5.16,2.24,9,4.55,10.83,8.58a0.56,0.56,0,0,0,.51.32l0.15,0a0.56,0.56,0,0,0,.4-0.6,21.33,21.33,0,0,0-9.35-15.34,0.56,0.56,0,0,0-.31-0.1h-0.1c-1.62.3-4.2,0.74-7.3,1.15a0.56,0.56,0,0,0-.47.7C95.29,106.42,96.45,108.71,100.62,110.51Z" transform="translate(-15.88 -13.35)"/><path class="cls-1" d="M103.26,138.5a0.56,0.56,0,0,0-.22-1.07h-0.67a46.62,46.62,0,0,1-11.18-1.55l-0.15,0a0.56,0.56,0,0,0-.49.3,30.77,30.77,0,0,0-1.47,3.21,0.56,0.56,0,0,0,.43.75,24.68,24.68,0,0,0,4,.33A25.35,25.35,0,0,0,103.26,138.5Z" transform="translate(-15.88 -13.35)"/><path class="cls-1" d="M107,164.49a0.56,0.56,0,0,0,.77.74,24.25,24.25,0,0,1,6.85-2.67,0.56,0.56,0,0,0,.38-0.79,14.37,14.37,0,0,1-1.15-3.3,0.56,0.56,0,0,0-.85-0.35A18.59,18.59,0,0,0,107,164.49Z" transform="translate(-15.88 -13.35)"/><circle class="cls-3" cx="128.59" cy="148.3" r="1.31"/><circle class="cls-3" cx="122.84" cy="153.46" r="1.31"/><circle class="cls-3" cx="123.43" cy="144.84" r="1.31"/><circle class="cls-3" cx="128.52" cy="137.98" r="1.31"/><circle class="cls-3" cx="122.64" cy="133.08" r="1.31"/><circle class="cls-3" cx="126.37" cy="126.81" r="1.31"/><circle class="cls-3" cx="167.45" cy="148.3" r="1.31"/><circle class="cls-3" cx="173.2" cy="153.46" r="1.31"/><circle class="cls-3" cx="172.61" cy="144.84" r="1.31"/><circle class="cls-3" cx="167.52" cy="137.98" r="1.31"/><circle class="cls-3" cx="173.4" cy="133.08" r="1.31"/><circle class="cls-3" cx="169.67" cy="126.81" r="1.31"/><path class="cls-1" d="M260.11,103.31c-15.32,2.71-35.47-1.36-38-1.89-0.8-.74-1.62-1.47-2.45-2.18a33.77,33.77,0,0,0,1.56-10.52,0.78,0.78,0,0,0-.68-0.74,0.78,0.78,0,0,0-.85.52,23.5,23.5,0,0,1-4.27,7.34C194.89,76.8,171.88,77,171.68,77H155.81c-0.25,0-23.23-.18-43.79,18.88a23.5,23.5,0,0,1-4.27-7.34,0.78,0.78,0,0,0-1.53.21,33.76,33.76,0,0,0,1.56,10.52c-0.83.7-1.65,1.43-2.45,2.18-2.5.53-22.65,4.6-38,1.89a2.12,2.12,0,0,0-2,.75A2.15,2.15,0,0,0,65,106.2c2,5.13,9.07,19.88,26.36,25.93A30.45,30.45,0,0,0,86,145.23c-0.5-.17-1-0.35-1.54-0.58a0.78,0.78,0,0,0-.93,1.2,10.47,10.47,0,0,0,2.22,2,27,27,0,0,0,1.43,10.08,1,1,0,0,0,.82.66,1,1,0,0,0,.94-0.47L90.24,156a30.87,30.87,0,0,0,6.19,16.13,25,25,0,0,1-10.48.55,0.78,0.78,0,0,0-.52,1.46,20.88,20.88,0,0,0,9.85,2.45,19.17,19.17,0,0,0,3.43-.3,0.09,0.09,0,0,1,0,0c0,0.09,3.31,7.2,3.31,11.89,0,4,5.61,9.93,12.63,15a0.94,0.94,0,0,0,.09.21s3.48,5,3.48,13.62a1,1,0,0,0,1.81.52l1.6-2.59c1.2,3.11,3.42,9.86,2.86,15.87a1,1,0,0,0,1.53.9,10.1,10.1,0,0,0,2.39-2.39c2.66,4.91,10.85,17.35,25.54,17.35h20.12c14.69,0,22.88-12.44,25.54-17.35a10.12,10.12,0,0,0,2.39,2.39,1,1,0,0,0,1.53-.9c-0.56-6,1.66-12.76,2.86-15.87l1.6,2.59a1,1,0,0,0,1.81-.52c0-8.59,3.44-13.57,3.48-13.62a1,1,0,0,0,.17-0.68c6.71-5,12-10.66,12-14.52,0-4.69,3.27-11.8,3.31-11.87a0.89,0.89,0,0,0,0-.12,19,19,0,0,0,3.73.37,20.89,20.89,0,0,0,9.85-2.45,0.78,0.78,0,0,0-.53-1.46,24.8,24.8,0,0,1-10.74-.62A30.89,30.89,0,0,0,237.23,156l1.29,2.14a1,1,0,0,0,1.77-.19,27,27,0,0,0,1.44-9.87,10.75,10.75,0,0,0,2.53-2.19,0.78,0.78,0,0,0-.93-1.2,19.61,19.61,0,0,1-1.85.69,30.45,30.45,0,0,0-5.38-13.21c17.29-6.05,24.38-20.8,26.36-25.93a2.15,2.15,0,0,0-.34-2.14A2.12,2.12,0,0,0,260.11,103.31ZM232,105.07c-0.3,1.11-1.4,3.23-5.33,4.93-5.37,2.33-9.22,4.73-11.11,8.87a20.75,20.75,0,0,1,9.12-14.95C226.48,104.26,229,104.68,232,105.07ZM219.51,92.78c-0.68,6.38-3.85,18.43-17.92,21.26l-5.91,1.17c-12.76,2.5-18.49,3.63-20.4,8.25-0.14-.66-0.26-1.31-0.37-1.93-0.11-2,.42-7.75,8.79-11.51,5.87-2.63,9-5.32,10.61-7.31-0.33,2.66-1.11,5.81-2.77,6.86a0.78,0.78,0,0,0,.8,1.35c0.39-.21,8.45-4.75,12-11.47,0.15,1.94.13,4.46-.71,6a0.78,0.78,0,0,0,1.05,1.06C205.19,106.32,214.7,101.35,219.51,92.78Zm-28.43,30.39a3.46,3.46,0,0,0,2.42-5.93l2.48-.49,0.7-.14a0.77,0.77,0,0,0,.07.34,6.72,6.72,0,0,1,.46,2.6,6.15,6.15,0,0,1-6.14,6.14,6.24,6.24,0,0,1-5.35-3.13,6.14,6.14,0,0,1-.8-3v-0.12h0a0.78,0.78,0,0,0-.05-0.29c0.91-.24,1.9-0.48,3-0.72A3.45,3.45,0,0,0,191.09,123.17Zm0,4.1a7.72,7.72,0,0,0,7.71-7.71,8.45,8.45,0,0,0-.6-3.24l3.71-.74a24.28,24.28,0,0,0,7.22-2.64c-0.25,2.83-1.59,10.51-8.78,13.29-6.81,2.63-13,1.16-16.67.29a13.41,13.41,0,0,0-3.15-.54,6.63,6.63,0,0,0-4.17,2q-0.14-.49-0.26-1a0.73,0.73,0,0,0,0-.09c0.3-3.93,2-5.73,7.24-7.32A7.74,7.74,0,0,0,191.09,127.26ZM155.8,78.94h15.9c0.21,0,22.46-.18,42.46,18.4a42.88,42.88,0,0,1-8.4,6.81,23.58,23.58,0,0,0-.2-7.81,0.78,0.78,0,0,0-.73-0.63,0.77,0.77,0,0,0-.79.55c-1.47,4.78-6,8.79-9.18,11.12a25.64,25.64,0,0,0,1.23-7.93,0.78,0.78,0,0,0-.7-0.77,0.79,0.79,0,0,0-.85.6s-1.22,4.71-11.49,9.32c-5.26,2.36-7.71,5.53-8.82,8.26-0.24-2.15-.29-3.49-0.29-3.53a0.78,0.78,0,1,0-1.57.05,65.77,65.77,0,0,0,1,8.65,5.73,5.73,0,0,0,.07.59,0.74,0.74,0,0,0,.06.14A59.75,59.75,0,0,0,177,134.58l-0.56-.3c-6.32-3-11.05,1.14-12.52,2.69-1.47-1.55-6.2-5.7-12.52-2.69a10.85,10.85,0,0,0-1,.54A59.42,59.42,0,0,0,154,122.76a0.75,0.75,0,0,0,.06-0.15,5.72,5.72,0,0,0,.07-0.6,65.74,65.74,0,0,0,1-8.64,0.78,0.78,0,0,0-.76-0.81h0a0.79,0.79,0,0,0-.79.76s-0.05,1.39-.29,3.53c-1.11-2.73-3.56-5.9-8.82-8.26-10.27-4.6-11.47-9.27-11.48-9.31a0.78,0.78,0,0,0-1.55.16,25.64,25.64,0,0,0,1.23,7.93c-3.17-2.33-7.7-6.34-9.18-11.12a0.78,0.78,0,0,0-1.52.08,23.57,23.57,0,0,0-.2,7.81,42.87,42.87,0,0,1-8.4-6.81C133.28,78.79,155.54,78.94,155.8,78.94Zm21.63,63.26a3.76,3.76,0,0,0-2.76.49c-1.34.8-2.3,2.36-2.84,4.63-1,4.09-5.34,4.32-6.65,4.29h-2.56c-1.2,0-5.66-.15-6.64-4.29-0.54-2.27-1.5-3.83-2.84-4.63a3.76,3.76,0,0,0-2.76-.49,0.78,0.78,0,0,0,.4,1.52,2.28,2.28,0,0,1,1.56.32,3.93,3.93,0,0,1,1.39,1.62c-3.31.09-5-1.56-5.52-3.27-0.6-2.05.36-5,3.86-6.68,6.46-3.08,10.9,2.53,11.08,2.77a1.17,1.17,0,0,0,1.53,0c0.19-.24,4.61-5.85,11.08-2.77,3.5,1.67,4.45,4.63,3.86,6.68-0.5,1.7-2.21,3.36-5.53,3.27,1.19-2.3,2.86-2,3-1.94A0.78,0.78,0,0,0,177.43,142.19Zm13.36,32.36a21.07,21.07,0,0,0,4.83.63h0.13a18.88,18.88,0,0,0,2.5-.18A17.35,17.35,0,0,1,193,188.43C193.77,185.14,194.4,179.31,190.78,174.56Zm0.44,4.11c1.95,5.59-.47,11.64-0.5,11.71a0.78,0.78,0,0,0,1.18.94,18.58,18.58,0,0,0,7.9-16.59,18.91,18.91,0,0,0,2.39-.68,0.7,0.7,0,0,1,.54.21c0.32,0.29.83,1.13,0.67,3.57-0.31,4.85-2.57,7.95-5,11.22-2.25,3.08-4.75,6.51-5.87,11.83,0-.16-0.06-0.31-0.1-0.47a0.78,0.78,0,0,0-.76-0.61h0a0.78,0.78,0,0,0-.76.63,42.09,42.09,0,0,1-2.61,7.81,29.07,29.07,0,0,0-4.6-8C189.71,193.11,191,183.47,191.23,178.67Zm14,3.84a32.21,32.21,0,0,1-4.48,8.13c-3.48,5.06-7.42,10.8-7,23.6a1,1,0,0,0,.17.48,18.56,18.56,0,0,0-2.58,6.12,7.77,7.77,0,0,0-1.14-.71A29.68,29.68,0,0,0,193,203.25c0.78-6.45,3.48-10.16,6.09-13.74,2.46-3.37,4.79-6.56,5.11-11.64,0.14-2.14-.19-3.56-1-4.23h0a19.8,19.8,0,0,0,3.06-1.65l-0.29.58C206.59,172.95,207.64,175.46,205.26,182.5Zm-30,44.46-0.62,0H153.23s-5.47-.44-9.33,2.77a5.74,5.74,0,0,1-3.71,1.29c-2.13,0-4.26-1.09-4.74-2.44a5.89,5.89,0,0,1,.93-4.95,6.41,6.41,0,0,1,5.6-2.56h43.83a6.44,6.44,0,0,1,5.48,2.41,1,1,0,0,0,.09.11l0,0a5.89,5.89,0,0,1,.93,4.95c-0.48,1.34-2.61,2.44-4.74,2.44a5.74,5.74,0,0,1-3.71-1.29A14,14,0,0,0,175.26,227Zm8.49,5.06c-1.52,1.16-5.56,3.45-14,3.59,2.49-.93,6.1-2.86,7.72-6.52a10.64,10.64,0,0,1,5.17,2.16A7.43,7.43,0,0,0,183.74,232ZM150,229.15c1.62,3.62,5.22,5.54,7.69,6.47-8.17-.14-12.24-2.32-13.86-3.5a7.4,7.4,0,0,0,1.29-.86A10.46,10.46,0,0,1,150,229.15Zm-23-38.52a32.21,32.21,0,0,1-4.48-8.13c-2.38-7-1.33-9.56-.72-9.93l-0.06,0-0.26-.63a19.78,19.78,0,0,0,3.09,1.67h0c-0.78.67-1.1,2.09-1,4.23,0.32,5.08,2.65,8.26,5.11,11.64,2.62,3.58,5.32,7.29,6.09,13.74a29.68,29.68,0,0,0,2.75,16.88,7.63,7.63,0,0,0-1.41.93,18.49,18.49,0,0,0-2.49-6.13,1,1,0,0,0,.34-0.7C134.44,201.43,130.5,195.69,127,190.63Zm8.88,0.69a0.78,0.78,0,0,0,1.18-.94c0-.08-2.45-6.12-0.5-11.71,0.24,4.8,1.52,14.44,7.48,21.59a29.07,29.07,0,0,0-4.6,8,42.09,42.09,0,0,1-2.61-7.81,0.78,0.78,0,0,0-.76-0.63,0.75,0.75,0,0,0-.77.61c0,0.16-.07.31-0.1,0.47-1.12-5.32-3.62-8.76-5.87-11.83-2.39-3.28-4.65-6.37-5-11.22-0.15-2.44.36-3.28,0.67-3.57a0.71,0.71,0,0,1,.54-0.21,18.92,18.92,0,0,0,2.39.68A18.58,18.58,0,0,0,135.89,191.32Zm-1.07-2.88A17.06,17.06,0,0,1,129.54,175a18.86,18.86,0,0,0,2.5.18h0.13a21.08,21.08,0,0,0,4.83-.63C133.39,179.31,134,185.15,134.83,188.44Zm40,23.21a0.78,0.78,0,0,0-.84-0.11c-0.11.05-2.15,1.06-3.21,4.35a12,12,0,0,0-3.19-4.42,0.78,0.78,0,0,0-.9-0.08,7.45,7.45,0,0,0-2.84,4.24,7.45,7.45,0,0,0-2.84-4.24,0.79,0.79,0,0,0-.9.08,12,12,0,0,0-3.19,4.42c-1.06-3.29-3.09-4.29-3.21-4.35a0.78,0.78,0,0,0-.84.11,11.14,11.14,0,0,0-3.14,4.49,10.65,10.65,0,0,0-3.63-6.07,0.78,0.78,0,0,0-1,0,9.15,9.15,0,0,0-2.47,3.33c3.35-11.3,11.74-18.8,21.16-18.8s17.81,7.51,21.16,18.8a9.15,9.15,0,0,0-2.47-3.33,0.78,0.78,0,0,0-1,0,10.65,10.65,0,0,0-3.63,6.07A11.13,11.13,0,0,0,174.87,211.65Zm2.34,7.49h-5.39l0-.08c0.29-3.64,1.75-5.24,2.48-5.83A10.85,10.85,0,0,1,177.21,219.14Zm-7,0h-5.37c0.25-3.65,1.56-5.38,2.25-6A12.26,12.26,0,0,1,170.21,219.14Zm-7.26,0h-5.37a12.27,12.27,0,0,1,3.12-6C161.39,213.78,162.7,215.53,163,219.14Zm-7-.08,0,0.08h-5.39a10.79,10.79,0,0,1,2.93-5.9C154.24,213.82,155.7,215.43,156,219.06Zm-12.22-3.88a8,8,0,0,1,2-3.42,10.59,10.59,0,0,1,2.89,7A13.86,13.86,0,0,1,143.77,215.18Zm2.16,4h-4a10.37,10.37,0,0,0-3,.41,28.45,28.45,0,0,1-2.76-15.23C137.62,208.61,140.56,215.64,145.93,219.14Zm36.14-7.38a8.05,8.05,0,0,1,2,3.42,13.86,13.86,0,0,1-4.84,3.62A10.59,10.59,0,0,1,182.07,211.76Zm9.46-7.44a28.57,28.57,0,0,1-2.76,15.23,10.37,10.37,0,0,0-3-.41h-4C187.24,215.64,190.17,208.62,191.53,204.32ZM185.73,213c-3.5-11.5-12.13-19.12-21.84-19.12s-18.34,7.62-21.84,19.12a28.33,28.33,0,0,1-1.65-2.76l0,0c3.51-10.81,12.94-18.08,23.46-18.08s19.95,7.27,23.46,18.08l0,0A28.35,28.35,0,0,1,185.73,213Zm-3-13.92a25,25,0,0,0-37.61,0c-5.35-6.56-6.63-15.51-6.92-20.16a11.07,11.07,0,0,0,3.13,4.39,0.78,0.78,0,0,0,1,0c0.16-.11,3.37-2.46,4.47-7.89a13.53,13.53,0,0,0,4,6,0.78,0.78,0,0,0,1.05,0,15.55,15.55,0,0,0,3.44-6.2,14.9,14.9,0,0,0,4.28,6.46,0.78,0.78,0,0,0,1.09-.08,17.37,17.37,0,0,0,3.33-7.08,17.37,17.37,0,0,0,3.33,7.08,0.78,0.78,0,0,0,1.09.08,14.9,14.9,0,0,0,4.28-6.46,15.55,15.55,0,0,0,3.44,6.2,0.78,0.78,0,0,0,1.05,0,13.53,13.53,0,0,0,4-6c1.1,5.43,4.31,7.78,4.47,7.89a0.78,0.78,0,0,0,1,0,11.07,11.07,0,0,0,3.13-4.39C189.33,183.55,188,192.5,182.7,199.05Zm-43.89-24.22,0.38-.42a0.78,0.78,0,0,0,.22-0.56c0.8-.29,1.61-0.61,2.42-1a0.77,0.77,0,0,0,.48.15,31.64,31.64,0,0,0,3.19-.35c-0.28,5.23-2.64,8-3.67,9A11,11,0,0,1,138.81,174.83Zm8.75-2.56a19.79,19.79,0,0,0,4.83-1.7,13.81,13.81,0,0,1,2.13-.91c0,0.6-.06,1.18-0.13,1.73a0.77,0.77,0,0,0,0,.34,16.61,16.61,0,0,1-3.21,8A13.42,13.42,0,0,1,147.56,172.27Zm8.54-3a20.47,20.47,0,0,1,4.51-.52h2.59a0.78,0.78,0,0,0-.23.55,19.35,19.35,0,0,1-3.1,10.63,15.4,15.4,0,0,1-3.94-8.14,21.92,21.92,0,0,0,.18-2.48S156.1,169.24,156.1,169.23Zm15.76,2.52a15.33,15.33,0,0,1-3.94,8.13,19.35,19.35,0,0,1-3.1-10.63,0.78,0.78,0,0,0-.23-0.55h2.61a19.69,19.69,0,0,1,4.49.52s0,0,0,0A22,22,0,0,0,171.86,171.75Zm1.41-2.08a13.9,13.9,0,0,1,2.13.91,19.8,19.8,0,0,0,4.83,1.7,13.35,13.35,0,0,1-3.58,7.43,16.61,16.61,0,0,1-3.21-8,0.77,0.77,0,0,0,0-.34C173.33,170.85,173.29,170.27,173.27,169.66Zm12.7,12c-1-1-3.4-3.75-3.67-9a31.64,31.64,0,0,0,3.19.35h0a0.77,0.77,0,0,0,.45-0.16c0.81,0.38,1.61.7,2.42,1a0.78,0.78,0,0,0,.22.56l0.38,0.42A10.91,10.91,0,0,1,186,181.64Zm-9.83-12.46a20.05,20.05,0,0,0-9-2.05h-6.55a20.22,20.22,0,0,0-9,2.05,21.79,21.79,0,0,1-6.67,2q8.89-5.4,18.16-18h1.49q9.24,12.59,18.17,18A21.77,21.77,0,0,1,176.14,169.19Zm-39.75-41.92a7.74,7.74,0,0,0,7.72-7.7c5.29,1.6,6.94,3.4,7.24,7.32a0.79,0.79,0,0,0,0,.09q-0.13.48-.26,1a6.63,6.63,0,0,0-4.17-2,13.52,13.52,0,0,0-3.15.54c-3.69.88-9.86,2.34-16.67-.29-7.19-2.78-8.53-10.46-8.78-13.29a24.28,24.28,0,0,0,7.22,2.64l3.71,0.74a8.45,8.45,0,0,0-.6,3.24A7.72,7.72,0,0,0,136.39,127.26Zm0-4.1a3.45,3.45,0,0,0,3.21-4.76q1.64,0.37,3,.72a0.78,0.78,0,0,0,0,.3v0.12a6.13,6.13,0,0,1-.8,3,6.24,6.24,0,0,1-5.35,3.13,6.15,6.15,0,0,1-6.14-6.14,6.72,6.72,0,0,1,.46-2.6,0.77,0.77,0,0,0,.07-0.34l0.7,0.14,2.48,0.49A3.46,3.46,0,0,0,136.39,123.17Zm-13.64-16.61a0.78,0.78,0,0,0,1.05-1.06c-0.83-1.59-.86-4.1-0.71-6,3.6,6.71,11.66,11.25,12,11.47a0.78,0.78,0,0,0,.8-1.35c-1.66-1-2.44-4.2-2.77-6.86,1.64,2,4.74,4.68,10.61,7.31,8.38,3.76,8.89,9.47,8.79,11.51-0.11.62-.23,1.26-0.37,1.92-1.91-4.63-7.64-5.75-20.4-8.25L125.88,114c-14.07-2.83-17.24-14.88-17.92-21.26C112.77,101.35,122.29,106.32,122.75,106.56Zm-19.92-2.64a20.77,20.77,0,0,1,9.11,14.94c-1.9-4.13-5.74-6.53-11.11-8.86-4-1.71-5-3.82-5.33-4.93C98.47,104.68,101,104.26,102.83,103.92Zm-36,1.57a0.18,0.18,0,0,1,0-.19,0.16,0.16,0,0,1,.16-0.06c9.2,1.62,19.85.92,27.69-.08,0.32,1.28,1.49,3.68,5.8,5.55,6.17,2.68,10.26,5.43,11.53,10.9a0.39,0.39,0,0,0,.38.3h0a0.39,0.39,0,0,0,.36-0.36,21.41,21.41,0,0,0-8.92-17.85c1.21-.23,2-0.4,2.11-0.43a1,1,0,0,0,.46-0.24c0.66-.62,1.33-1.22,2-1.81a23,23,0,0,0,8.22,10.69c0,0.93.34,12.1,9.84,15.77,7.27,2.81,13.73,1.27,17.6.35a13.78,13.78,0,0,1,2.7-.49,5.3,5.3,0,0,1,3.42,1.8,0.76,0.76,0,0,0,.35.24,45.64,45.64,0,0,1-3,7.4,0.75,0.75,0,0,0-.05.18c-2.31-2.16-10-8.28-18.54-4.28a33.83,33.83,0,0,0-4.89-.11c-6.24.29-10-2.07-13.48-4.45a0.76,0.76,0,0,0,0-.43,31.15,31.15,0,0,0-9.2-11.33,0.39,0.39,0,0,0-.2-0.22l-0.35-.16a20,20,0,0,0-8.15-3.32c-2.41-.82-4.9-1.53-7.46-2.13l-1.48-.37c-3.84-1-9.65-2.46-12.39.17a3.39,3.39,0,0,0-1.11,1.93A43.91,43.91,0,0,1,66.84,105.49Zm41.45,21.24-0.4-.25a15.1,15.1,0,0,0-6.2-2,0.76,0.76,0,0,0-.35-0.31c-8.71-3.58-16.17-7.9-16-9.23,0,0,.26-0.57,2.91-0.76C99.48,113.44,106,122.74,108.29,126.73ZM91,136.42A46.27,46.27,0,0,0,103,138a24.76,24.76,0,0,1-13.45,1.59A30.13,30.13,0,0,1,91,136.42Zm-1.73,3.9a25.15,25.15,0,0,0,4.25.37,24.07,24.07,0,0,0,11.62-2.88,0.39,0.39,0,0,0,.17-0.46,0.4,0.4,0,0,0-.41-0.27,42.08,42.08,0,0,1-13.52-1.37,26.74,26.74,0,0,1,1.91-2.94,48.47,48.47,0,0,0,10.84,1.89h0.06a1,1,0,0,0,.06-2,46.16,46.16,0,0,1-11-2h0a41.15,41.15,0,0,1-22-16.73,2.42,2.42,0,0,1,.69-2.89c2.42-2.32,8-.91,11.65,0l1.49,0.37q2.16,0.5,4.26,1.12c-0.39,0-.79,0-1.2,0-1.74.12-4.09,0.47-4.34,2.07-0.46,2.86,8.24,7.18,14.11,9.74a20.71,20.71,0,0,0-8.21,2.39,0.78,0.78,0,0,0,.53,1.46c0.1,0,10.38-1.94,16.29,3.84a25.14,25.14,0,0,0,13.46,7,9.74,9.74,0,0,0-3.92,5.52l-1-.45c-3.38-1.53-5.42-2.45-11.55-1.33a53.19,53.19,0,0,0-6.45,1.68c-3.25,1-5.81,1.8-9.13,1.16A27.43,27.43,0,0,1,89.32,140.31Zm2.79,12.34a1,1,0,0,0-1.82-.57l-1.87,3.1a24.52,24.52,0,0,1-.71-6.24,15.69,15.69,0,0,0,9.7,1c2.15-.41,3.92-0.85,5.48-1.25,4.87-1.23,7.09-1.79,11.22,1.17l0.18,0.12a13.85,13.85,0,0,0-1.11,7.8c-1.25.79-5.26,3.59-6.85,7.74a27.17,27.17,0,0,0-4.09,3.31,13,13,0,0,1-3.88,2.58,25.6,25.6,0,0,1-1.83-2.54c0.19-1,1.17-5.81,2.62-7.59,0.9-1.11,2.62-1.42,4.44-1.76a15.2,15.2,0,0,0,4.06-1.14c3-1.51,3.84-7.37,3.87-7.62a0.39,0.39,0,0,0-.68-0.32,24.8,24.8,0,0,1-4.61,4,12,12,0,0,1-3.75.86A16,16,0,0,0,96.16,157a7,7,0,0,0-3,4A28.82,28.82,0,0,1,92.11,152.65ZM114.52,162a24.73,24.73,0,0,0-7,2.73,18,18,0,0,1,5.81-6.16A14.9,14.9,0,0,0,114.52,162Zm-18.59,5.82a28.18,28.18,0,0,1-2.31-5.21,6.37,6.37,0,0,1,2.95-5,15.4,15.4,0,0,1,6-1.65,12.11,12.11,0,0,0,4-1,20.7,20.7,0,0,0,3.88-3.17c-0.4,1.76-1.34,4.81-3.2,5.75a14.63,14.63,0,0,1-3.85,1.07c-2,.36-3.82.71-4.91,2C97.24,162.36,96.32,166,95.93,167.84Zm-4.78,6.69c3.73-.14,8.6-1.1,12.18-4.61a24.13,24.13,0,0,1,13.68-6.8l1-.18a15.83,15.83,0,0,1,1.94-.21,18.34,18.34,0,0,0,10.92-3.85,0.78,0.78,0,0,0-1-1.24,16.73,16.73,0,0,1-10.07,3.53,16.9,16.9,0,0,0-2.15.24l-0.92.17-0.63.12a12.47,12.47,0,0,1-.48-10.88,26.38,26.38,0,0,0,13.62,3.55,32,32,0,0,0,3.8-.23,0.78,0.78,0,1,0-.19-1.56c-3.91.47-11.42,0.57-17.83-4-4.71-3.38-7.48-2.68-12.51-1.42-1.54.39-3.28,0.83-5.39,1.23a14.08,14.08,0,0,1-9.08-1c3.51,0.59,6.26-.27,9.52-1.27a52,52,0,0,1,6.27-1.64c5.64-1,7.41-.24,10.62,1.21a49.92,49.92,0,0,0,5.08,2c7.59,2.55,12.81.21,13,.11a0.78,0.78,0,0,0-.65-1.42s-4.91,2.16-11.88-.18c-0.93-.31-1.74-0.62-2.48-0.92,1.29-4.51,4.56-5.47,4.72-5.51a0.77,0.77,0,0,0,.3-0.17c0.47,0.06,1,.11,1.55.16a16.73,16.73,0,0,1,10.07,3.53,0.78,0.78,0,1,0,1-1.24,18.34,18.34,0,0,0-10.92-3.85,16,16,0,0,1-1.95-.22l-1-.18a24.13,24.13,0,0,1-13.68-6.8c-3.58-3.51-8.46-4.47-12.18-4.61,4.17-.88,8.6-0.43,11.62,1.4,0.78,0.47,1.55,1,2.37,1.55,3.67,2.48,7.82,5.28,14.8,5,7.8-.37,11.52,1.94,11.56,2a0.78,0.78,0,0,0,.86-1.31,14.3,14.3,0,0,0-4.3-1.59c7.3-1.6,13.45,4.15,14.59,5.31a6.36,6.36,0,0,0-.27,4.11c0.62,2.13,2.75,4.41,6.77,4.41,0.28,0,.56,0,0.86,0,0,0.16.09,0.32,0.13,0.49,0.91,3.82,4.23,5.16,6.77,5.44-8,10.68-15.78,17.23-23.2,19.54a0.82,0.82,0,0,0-.48.16,19.88,19.88,0,0,1-5.34.8h-0.14a18.22,18.22,0,0,1-12.74-5.45h0.55c8.4,0.4,12.33-2.11,12.49-2.22a0.78,0.78,0,0,0-.86-1.31s-3.74,2.33-11.56,2c-7-.32-11.13,2.48-14.8,5-0.82.55-1.59,1.08-2.37,1.55C99.75,175,95.32,175.41,91.15,174.53Zm21.46-5.32c-2.33,3.2-1.69,8.44,1.86,13.69,2.63,3.91,3.29,9.3,3.44,12.45a36,36,0,0,0-5.66-9,32.53,32.53,0,0,1-4.8-7.44c-1.46-3.57-1.32-5.41-1-6.31A27.84,27.84,0,0,1,112.61,169.21Zm-8.62,19c0-4.63-2.72-11-3.35-12.4a13.32,13.32,0,0,0,3-1.3c0.65-.39,1.28-0.82,1.94-1.26-0.16,1.22,0,3.1,1.2,6a33.07,33.07,0,0,0,4.91,7.62c2.56,3.29,5.21,6.69,6.31,11.27a0.39,0.39,0,0,0,.38.3h0a0.39,0.39,0,0,0,.36-0.37c0-.38.48-9.48-3.59-15.53-3.73-5.53-4.11-11-1-13.71a17.66,17.66,0,0,1,3.14-.53,18.86,18.86,0,0,0,3.15,3c-1,.94-2.47,3.76.29,11.94a34.27,34.27,0,0,0,4.73,8.61c3.33,4.84,6.76,9.86,6.66,21a22.84,22.84,0,0,0-7.18-5.6C114.14,201.66,104,192.43,104,188.17Zm104,25.62-1-1.54a1,1,0,0,0-1.72.11c-0.17.37-3.76,8.28-3.84,16.17a3.61,3.61,0,0,1-.83-1.7,1,1,0,0,0-1.88-.26c-0.08.18-7.78,18.11-24.71,18.11H154c-16.89,0-24.63-17.93-24.71-18.11a1,1,0,0,0-1.88.26,3.61,3.61,0,0,1-.83,1.7c-0.08-7.89-3.67-15.8-3.84-16.17a1,1,0,0,0-.83-0.57,1,1,0,0,0-.89.46l-1,1.54a29,29,0,0,0-2-8.33c2,1.26,4,2.43,6,3.44C134,214,134.42,222.6,134.43,223a0.89,0.89,0,0,0,0,.1,7.8,7.8,0,0,0-.85,6.21c0.77,2.17,3.54,3.74,6.58,3.74a8,8,0,0,0,2.85-.52c1.53,1.26,5.9,3.92,15.51,3.92q0.88,0,1.81,0a0.39,0.39,0,0,0,.06-0.78c-0.07,0-7.1-1.43-9.58-6.58a14.59,14.59,0,0,1,1.68-.1l0.62,0h22.11c0.34,0,.82,0,1.38.07-2.46,5.16-9.52,6.6-9.6,6.61a0.39,0.39,0,0,0,.06.78q0.94,0,1.81,0c9.85,0,14.19-2.79,15.61-4a7.92,7.92,0,0,0,3.07.61c3,0,5.81-1.57,6.58-3.74a7.85,7.85,0,0,0-1.11-6.64c0.17-1.64,1.44-9.12,10.42-13.72a71.87,71.87,0,0,0,6.77-4A28.64,28.64,0,0,0,208,213.79Zm15.47-25.62c0,4.26-10.16,13.49-20.9,19a23,23,0,0,0-6.87,5.24c0-10.9,3.37-15.86,6.67-20.66a34.27,34.27,0,0,0,4.73-8.61c2.76-8.17,1.31-11,.29-11.94a18.88,18.88,0,0,0,3.15-3,18.07,18.07,0,0,1,2.71.42c3.21,2.71,2.87,8.22-.91,13.82-4.08,6.05-3.62,15.14-3.59,15.53a0.39,0.39,0,0,0,.36.37h0a0.39,0.39,0,0,0,.38-0.3c1.11-4.58,3.75-8,6.31-11.27a33.13,33.13,0,0,0,4.91-7.62c1.25-3.06,1.38-5,1.16-6.2,0.78,0.53,1.53,1,2.29,1.5a13.13,13.13,0,0,0,2.68,1.21C226.33,176.91,223.49,183.45,223.49,188.17Zm-8.72-19.09a25.36,25.36,0,0,1,6.1,3.19c0.42,0.76.81,2.58-.84,6.61a32.55,32.55,0,0,1-4.8,7.44,36,36,0,0,0-5.67,9c0.15-3.15.81-8.54,3.44-12.45C216.6,177.57,217.22,172.27,214.77,169.08Zm16.77-1.24c-0.39-1.82-1.3-5.48-2.61-7.09-1.08-1.33-2.94-1.67-4.91-2a14.64,14.64,0,0,1-3.85-1.07c-1.86-.93-2.81-4-3.2-5.75a20.7,20.7,0,0,0,3.88,3.17,12.11,12.11,0,0,0,4,1,15.4,15.4,0,0,1,6,1.65,6.3,6.3,0,0,1,2.95,5A28.19,28.19,0,0,1,231.54,167.84Zm7.51-12.66-1.87-3.1a1,1,0,0,0-1.82.57,28.82,28.82,0,0,1-1,8.32,7,7,0,0,0-3-4,16,16,0,0,0-6.32-1.76,12,12,0,0,1-3.76-.86,24.8,24.8,0,0,1-4.61-4,0.39,0.39,0,0,0-.68.32c0,0.25.85,6.1,3.87,7.62a15.2,15.2,0,0,0,4.06,1.14c1.82,0.34,3.54.65,4.44,1.76,1.45,1.78,2.43,6.59,2.62,7.59a25.61,25.61,0,0,1-1.75,2.44,13,13,0,0,1-3.64-2.48,26.93,26.93,0,0,0-4.52-3.58c-1.54-3.73-5-6.32-6.46-7.28a13.87,13.87,0,0,0-1.08-8l0.18-.12c4.12-3,6.35-2.4,11.22-1.17,1.56,0.39,3.33.84,5.48,1.25a15.82,15.82,0,0,0,9.39-.82A24.56,24.56,0,0,1,239.05,155.18Zm-19.21,9.32a24.89,24.89,0,0,0-6.57-2.49,15,15,0,0,0,1.16-3.24A18,18,0,0,1,219.84,164.5Zm10.84-16.14c-2.11-.4-3.85-0.84-5.39-1.23-5-1.27-7.8-2-12.51,1.42-6.41,4.6-13.93,4.5-17.83,4a0.78,0.78,0,0,0-.19,1.56,32,32,0,0,0,3.8.23,26.38,26.38,0,0,0,13.62-3.55,12.47,12.47,0,0,1-.48,10.88l-0.63-.12-0.92-.17a16.9,16.9,0,0,0-2.15-.24,16.73,16.73,0,0,1-10.07-3.53,0.78,0.78,0,0,0-1,1.24,18.34,18.34,0,0,0,10.92,3.85,15.83,15.83,0,0,1,1.94.21l1,0.18a24.13,24.13,0,0,1,13.68,6.8c3.58,3.51,8.46,4.47,12.18,4.61-4.17.88-8.61,0.43-11.62-1.4-0.78-.47-1.55-1-2.37-1.55-3.67-2.48-7.83-5.29-14.8-5-7.8.37-11.5-1.93-11.56-2a0.78,0.78,0,0,0-.86,1.31c0.16,0.11,4.09,2.62,12.49,2.22h0.56a18.16,18.16,0,0,1-12.74,5.45h-0.11a19.88,19.88,0,0,1-5.36-.8,0.85,0.85,0,0,0-.49-0.16c-7.42-2.31-15.2-8.86-23.2-19.54,2.57-.29,5.87-1.63,6.78-5.44,0-.17.09-0.33,0.13-0.49,0.29,0,.58,0,0.85,0,4,0,6.15-2.28,6.77-4.41a6.36,6.36,0,0,0-.27-4.11c1.14-1.16,7.28-6.92,14.6-5.31a14.33,14.33,0,0,0-4.31,1.59,0.78,0.78,0,0,0,.86,1.31s3.74-2.34,11.56-2c7,0.33,11.13-2.48,14.8-5,0.82-.55,1.59-1.08,2.37-1.55,3-1.83,7.45-2.28,11.62-1.4-3.73.14-8.6,1.1-12.18,4.61a24.13,24.13,0,0,1-13.68,6.8l-1,.18a16,16,0,0,1-1.95.22,18.34,18.34,0,0,0-10.92,3.85,0.78,0.78,0,1,0,1,1.24,16.73,16.73,0,0,1,10.07-3.53c0.57,0,1.08-.09,1.55-0.16a0.77,0.77,0,0,0,.31.17s3.41,1,4.71,5.51c-0.74.3-1.55,0.61-2.48,0.92-7,2.34-11.82.2-11.88,0.18a0.78,0.78,0,0,0-.65,1.42c0.22,0.1,5.44,2.43,13-.11a49.94,49.94,0,0,0,5.08-2c3.2-1.45,5-2.25,10.62-1.21a52,52,0,0,1,6.27,1.64c3.23,1,6,1.85,9.45,1.28A14.11,14.11,0,0,1,230.67,148.36ZM219,127c2.1-3.8,8.68-13.64,20.17-12.83,2.65,0.19,2.9.75,2.91,0.76,0.22,1.33-7.24,5.65-16,9.23a0.77,0.77,0,0,0-.38.36,14.94,14.94,0,0,0-5.85,1.92Zm17.43,9.37a30,30,0,0,1,1.45,3.15A24.8,24.8,0,0,1,224.44,138,46.3,46.3,0,0,0,236.44,136.42ZM256.18,114a41.15,41.15,0,0,1-22,16.73h0a46.17,46.17,0,0,1-11,2,1,1,0,0,0,.06,2h0.06a48.49,48.49,0,0,0,10.84-1.89,26.6,26.6,0,0,1,1.92,2.94,42,42,0,0,1-13.53,1.38,0.4,0.4,0,0,0-.41.27,0.39,0.39,0,0,0,.17.46,24.07,24.07,0,0,0,11.62,2.88,25.14,25.14,0,0,0,4.26-.37,27.31,27.31,0,0,1,1.36,5.5c-3.18.54-5.69-.23-8.83-1.21a53.16,53.16,0,0,0-6.45-1.68c-6.13-1.12-8.17-.2-11.55,1.33l-1,.45a9.74,9.74,0,0,0-3.92-5.52,25.14,25.14,0,0,0,13.46-7c5.9-5.78,16.19-3.86,16.29-3.84a0.78,0.78,0,0,0,.52-1.46,20.73,20.73,0,0,0-8.5-2.4c5.86-2.57,14.53-6.88,14.07-9.73-0.26-1.6-2.6-2-4.34-2.07-0.41,0-.8,0-1.2,0q2.1-.61,4.26-1.12l1.49-.37c3.68-.93,9.23-2.35,11.65,0A2.42,2.42,0,0,1,256.18,114Zm4.46-8.49a43.9,43.9,0,0,1-3.49,7,3.38,3.38,0,0,0-1.11-1.93c-2.73-2.63-8.54-1.15-12.39-.17l-1.48.37c-2.57.6-5.06,1.32-7.48,2.14a20,20,0,0,0-8.07,3.28l-0.4.19a0.39,0.39,0,0,0-.2.24,31.22,31.22,0,0,0-9.2,11.32,0.78,0.78,0,0,0,0,.62c-3.45,2.32-7.14,4.56-13.21,4.27a34,34,0,0,0-4.88.11c-8.75-4.09-16.53,2.36-18.67,4.4l-0.27-.36a45.69,45.69,0,0,1-3-7.34,0.77,0.77,0,0,0,.35-0.24,5.23,5.23,0,0,1,3.41-1.8,14.55,14.55,0,0,1,2.7.49c3.86,0.92,10.33,2.46,17.6-.35,9.5-3.67,9.83-14.84,9.84-15.77A23,23,0,0,0,219,101.23c0.68,0.59,1.36,1.2,2,1.81a1,1,0,0,0,.46.24c0.15,0,.91.2,2.11,0.43a21.41,21.41,0,0,0-8.92,17.85,0.39,0.39,0,0,0,.36.36h0a0.39,0.39,0,0,0,.38-0.3c1.28-5.47,5.36-8.23,11.53-10.9,4.32-1.87,5.49-4.27,5.8-5.55,7.85,1,18.49,1.7,27.69.08a0.16,0.16,0,0,1,.16.06A0.18,0.18,0,0,1,260.64,105.49Z" transform="translate(-15.88 -13.35)"/><path class="cls-1" d="M128.85,92.32a35,35,0,0,1,7.3-.88c2.76,0,4.87.47,6.25,1.41,4,2.74,8.42,4.58,10.91,4.58h20.87c2.48,0,6.87-1.84,10.91-4.58,1.38-.94,3.49-1.41,6.25-1.41a35,35,0,0,1,7.3.88h0.11a0.39,0.39,0,0,0,.13-0.76c-0.77-.44-8-4.53-12.86-4.14a17.32,17.32,0,0,0-7,2.4,15.47,15.47,0,0,1-4.89,1.91,27.38,27.38,0,0,1-3.93.26,40.18,40.18,0,0,1-4.53-.26h-3.89a39.27,39.27,0,0,1-4.48.26,27.37,27.37,0,0,1-3.93-.26,15.47,15.47,0,0,1-4.9-1.91,17.32,17.32,0,0,0-7-2.4c-5-.41-12.62,4-12.92,4.17A0.39,0.39,0,0,0,128.85,92.32Zm12.57-4.11a16.69,16.69,0,0,1,6.68,2.32,16.08,16.08,0,0,0,5.15,2,28.17,28.17,0,0,0,4,.26,38.73,38.73,0,0,0,4.53-.26h3.79a40.16,40.16,0,0,0,4.58.26,28.18,28.18,0,0,0,4-.26,16.08,16.08,0,0,0,5.15-2,16.69,16.69,0,0,1,6.68-2.32c3.17-.25,7.51,1.56,10.14,2.84a32.69,32.69,0,0,0-4.87-.4c-2.92,0-5.18.52-6.69,1.55-4.53,3.07-8.52,4.44-10.47,4.44H153.3c-1.95,0-5.94-1.37-10.47-4.44-1.52-1-3.77-1.55-6.69-1.55a32.7,32.7,0,0,0-4.87.4C133.91,89.77,138.24,88,141.41,88.21Z" transform="translate(-15.88 -13.35)"/><path class="cls-1" d="M185.9,103.93c-0.57-.28-5.06-2.41-8.14-2.21a12.37,12.37,0,0,0-4.44,1.29,10.79,10.79,0,0,1-3.05,1,20.28,20.28,0,0,1-2.47.14c-1.55,0-2.8-.14-2.85-0.14h-2.46s-1.26.14-2.81,0.14a20.29,20.29,0,0,1-2.47-.14,10.78,10.78,0,0,1-3.05-1,12.37,12.37,0,0,0-4.44-1.29c-3.22-.22-8,2.14-8.2,2.23a0.39,0.39,0,0,0,.25.74,25.71,25.71,0,0,1,4.58-.47,8.06,8.06,0,0,1,3.88.74c2.56,1.47,5.35,2.46,6.93,2.46h13.15c1.58,0,4.37-1,6.93-2.46a8.07,8.07,0,0,1,3.88-.74,25.72,25.72,0,0,1,4.58.47h0.1A0.39,0.39,0,0,0,185.9,103.93Zm-4.78-.49a8.79,8.79,0,0,0-4.27.84,16,16,0,0,1-6.54,2.35H157.16a16,16,0,0,1-6.54-2.35,8.78,8.78,0,0,0-4.27-.84c-0.6,0-1.19,0-1.74.07a13.8,13.8,0,0,1,5.05-1,11.73,11.73,0,0,1,4.17,1.23,11.39,11.39,0,0,0,3.27,1.07,21,21,0,0,0,2.56.14c1.59,0,2.84-.14,2.84-0.14h2.39c0.05,0,1.3.14,2.9,0.14a20.94,20.94,0,0,0,2.56-.14,11.36,11.36,0,0,0,3.28-1.07,11.74,11.74,0,0,1,4.17-1.22,13.81,13.81,0,0,1,5.05,1C182.32,103.47,181.73,103.45,181.13,103.45Z" transform="translate(-15.88 -13.35)"/><path class="cls-1" d="M113.71,209.08A45.16,45.16,0,0,0,98,207.2a28.29,28.29,0,0,0-6.16,1c-2.15.64-4.77,1.6-5.94,3.41a7.73,7.73,0,0,0-.41,6.58,4.7,4.7,0,0,0,2.2,2.48,5.94,5.94,0,0,0,2.71.66c3.1,0,5.84-2.36,8.25-4.45,0.78-.67,1.51-1.31,2.18-1.79a23.5,23.5,0,0,1,6-2.87l0.42-.15a18.49,18.49,0,0,1,5.15-1.24,2.88,2.88,0,0,1,.83.1,1.31,1.31,0,0,0,.31,0A1,1,0,0,0,113.71,209.08Zm-7.11,1.19-0.42.14a25.28,25.28,0,0,0-6.51,3.13c-0.74.53-1.51,1.19-2.32,1.9-2.16,1.86-4.6,4-7,4a3.94,3.94,0,0,1-1.82-.45,2.74,2.74,0,0,1-1.27-1.48,5.8,5.8,0,0,1,.25-4.78c0.92-1.43,3.77-2.27,4.84-2.59a26.38,26.38,0,0,1,5.73-1c0.81-.05,1.65-0.08,2.48-0.08a43.06,43.06,0,0,1,7.54.68C107.58,209.93,107.06,210.11,106.6,210.27Z" transform="translate(-15.88 -13.35)"/><path class="cls-1" d="M111.12,216.9h0a29.36,29.36,0,0,0-9.22,4.62,18.5,18.5,0,0,0-3,2.79c-1,1.22-2.07,2.66-2,4.15a5.32,5.32,0,0,0,2.26,3.94,3.44,3.44,0,0,0,1.93.63l0.36,0c3.19-.37,4.12-3.71,4.81-6.15,0.18-.63.34-1.22,0.52-1.69a14.66,14.66,0,0,1,2.14-3.56l0.17-.23c0.59-.77,1.81-2.36,2.61-2.6A1,1,0,1,0,111.12,216.9Zm-6.19,7.57c-0.21.56-.39,1.19-0.58,1.86-0.74,2.64-1.4,4.53-3.15,4.73a1.42,1.42,0,0,1-1-.28,3.35,3.35,0,0,1-1.4-2.35c0-1,1.19-2.39,1.59-2.86a16.49,16.49,0,0,1,2.66-2.49,26,26,0,0,1,4.17-2.56A16.24,16.24,0,0,0,104.92,224.47Z" transform="translate(-15.88 -13.35)"/><path class="cls-1" d="M235.65,208.24a28.29,28.29,0,0,0-6.16-1,45.15,45.15,0,0,0-15.8,1.91,1,1,0,1,0,.57,1.87,2.88,2.88,0,0,1,.83-0.1,18.48,18.48,0,0,1,5.15,1.24l0.42,0.15a23.51,23.51,0,0,1,6,2.87c0.67,0.48,1.4,1.12,2.18,1.79,2.42,2.09,5.15,4.45,8.25,4.45a5.94,5.94,0,0,0,2.71-.66,4.7,4.7,0,0,0,2.2-2.48,7.73,7.73,0,0,0-.41-6.58C240.42,209.84,237.8,208.88,235.65,208.24Zm4.53,9.25a2.73,2.73,0,0,1-1.27,1.48,3.94,3.94,0,0,1-1.82.45c-2.37,0-4.82-2.11-7-4-0.81-.7-1.58-1.37-2.32-1.9a25.28,25.28,0,0,0-6.51-3.13l-0.42-.14c-0.45-.16-1-0.34-1.54-0.51a42.27,42.27,0,0,1,10-.6,26.37,26.37,0,0,1,5.73,1c1.07,0.32,3.92,1.16,4.84,2.59A5.8,5.8,0,0,1,240.18,217.49Z" transform="translate(-15.88 -13.35)"/><path class="cls-1" d="M225.58,221.52a29.35,29.35,0,0,0-9.22-4.62,1,1,0,1,0-.56,1.88h0c0.8,0.24,2,1.83,2.6,2.6l0.17,0.23a14.65,14.65,0,0,1,2.14,3.56c0.18,0.48.35,1.07,0.52,1.7,0.69,2.44,1.62,5.78,4.81,6.14l0.36,0a3.44,3.44,0,0,0,1.93-.63,5.32,5.32,0,0,0,2.26-3.94c0-1.49-1-2.93-2-4.15A18.5,18.5,0,0,0,225.58,221.52Zm1.66,9.26a1.39,1.39,0,0,1-1,.28c-1.74-.2-2.4-2.09-3.15-4.73-0.19-.67-0.37-1.3-0.58-1.86a16.24,16.24,0,0,0-2.33-3.95,26,26,0,0,1,4.17,2.56,16.53,16.53,0,0,1,2.66,2.49c0.4,0.47,1.6,1.9,1.58,2.86A3.36,3.36,0,0,1,227.24,230.78Z" transform="translate(-15.88 -13.35)"/></svg>