<?xml version="1.0" encoding="UTF-8" standalone="no"?>
<svg
   xmlns:dc="http://purl.org/dc/elements/1.1/"
   xmlns:cc="http://creativecommons.org/ns#"
   xmlns:rdf="http://www.w3.org/1999/02/22-rdf-syntax-ns#"
   xmlns:svg="http://www.w3.org/2000/svg"
   xmlns="http://www.w3.org/2000/svg"
   viewBox="0 0 333.38666 202.97333"
   height="202.97333"
   width="333.38666"
   xml:space="preserve"
   id="svg2"
   version="1.1"><metadata
     id="metadata8"><rdf:RDF><cc:Work
         rdf:about=""><dc:format>image/svg+xml</dc:format><dc:type
           rdf:resource="http://purl.org/dc/dcmitype/StillImage" /></cc:Work></rdf:RDF></metadata><defs
     id="defs6"><clipPath
       id="clipPath18"
       clipPathUnits="userSpaceOnUse"><path
         id="path16"
         d="M 0,152.23 H 250.04 V 0 H 0 Z" /></clipPath></defs><g
     transform="matrix(1.3333333,0,0,-1.3333333,0,202.97333)"
     id="g10"><g
       id="g12"><g
         clip-path="url(#clipPath18)"
         id="g14"><g
           transform="translate(212.4697,114.1714)"
           id="g20"><path
             id="path22"
             style="fill:#002f40;fill-opacity:1;fill-rule:nonzero;stroke:none"
             d="m 0,0 h -60.4 c -0.165,0 -0.299,-0.134 -0.299,-0.298 v -15.747 c 0,-0.164 0.134,-0.298 0.299,-0.298 h 20.432 v -53.672 c 0,-0.165 0.134,-0.298 0.298,-0.298 h 18.94 c 0.164,0 0.297,0.133 0.297,0.298 v 53.672 H 0 c 0.165,0 0.299,0.134 0.299,0.298 V -0.298 C 0.299,-0.134 0.165,0 0,0" /></g><g
           transform="translate(90.4936,72.0943)"
           id="g24"><path
             id="path26"
             style="fill:#002f40;fill-opacity:1;fill-rule:nonzero;stroke:none"
             d="m 0,0 v 15.492 c 0,0.165 -0.133,0.299 -0.298,0.299 h -22.561 v 9.943 H 5.338 c 0.165,0 0.298,0.134 0.298,0.298 v 15.747 c 0,0.164 -0.133,0.298 -0.298,0.298 h -47.416 c -0.165,0 -0.298,-0.134 -0.298,-0.298 v -69.717 c 0,-0.165 0.133,-0.298 0.298,-0.298 h 18.921 c 0.165,0 0.298,0.133 0.298,0.298 V -0.299 H -0.298 C -0.133,-0.299 0,-0.165 0,0" /></g><g
           transform="translate(106.2085,123.0074)"
           id="g28"><path
             id="path30"
             style="fill:#002f40;fill-opacity:1;fill-rule:nonzero;stroke:none"
             d="M 0,0 C 0.502,0 0.909,0.407 0.909,0.91 0.909,1.412 0.502,1.819 0,1.819 -0.502,1.819 -0.91,1.412 -0.91,0.91 -0.91,0.407 -0.502,0 0,0" /></g><g
           transform="translate(140.831,123.0074)"
           id="g32"><path
             id="path34"
             style="fill:#002f40;fill-opacity:1;fill-rule:nonzero;stroke:none"
             d="M 0,0 C 0.502,0 0.909,0.407 0.909,0.91 0.909,1.412 0.502,1.819 0,1.819 -0.502,1.819 -0.909,1.412 -0.909,0.91 -0.909,0.407 -0.502,0 0,0" /></g><g
           transform="translate(119.8877,118.8565)"
           id="g36"><path
             id="path38"
             style="fill:#002f40;fill-opacity:1;fill-rule:nonzero;stroke:none"
             d="M 0,0 -8.66,4.832 3.92,13.196 16.5,4.832 7.383,-0.255 7.691,-0.919 17.902,4.777 3.92,14.073 -10.062,4.777 -0.309,-0.664 Z" /></g><g
           transform="translate(119.3779,122.5884)"
           id="g40"><path
             id="path42"
             style="fill:#002f40;fill-opacity:1;fill-rule:nonzero;stroke:none"
             d="M 0,0 V 3.196 H 0.662 V 4.129 H -1.775 V 3.196 h 0.654 V 0 Z" /></g><g
           transform="translate(125.1533,122.5884)"
           id="g44"><path
             id="path46"
             style="fill:#002f40;fill-opacity:1;fill-rule:nonzero;stroke:none"
             d="M 0,0 V 4.137 H -1.121 V 2.64 H -1.737 V 4.137 H -2.858 V 0 h 1.121 v 1.722 h 0.616 V 0 Z" /></g><g
           transform="translate(129.8017,125.7847)"
           id="g48"><path
             id="path50"
             style="fill:#002f40;fill-opacity:1;fill-rule:nonzero;stroke:none"
             d="M 0,0 V 0.933 H -2.241 V -3.196 H 0 v 0.932 h -1.121 v 0.722 h 0.918 v 0.918 H -1.121 V 0 Z" /></g><g
           transform="translate(123.2617,83.334)"
           id="g52"><path
             id="path54"
             style="fill:#002f40;fill-opacity:1;fill-rule:nonzero;stroke:none"
             d="m 0,0 13.599,-30.756 h -27.198 z m -46.927,-64.034 h 18.708 l 8.22,18.867 h 40 l 8.355,-18.867 h 19.11 L 0.27,37.367 Z" /></g><g
           transform="translate(23.289,41.7495)"
           id="g56"><path
             id="path58"
             style="fill:#d73b25;fill-opacity:1;fill-rule:nonzero;stroke:none"
             d="M 0,0 4.143,-8.923 0,-17.846 H 55.188 L 63.495,0 Z" /></g><g
           transform="translate(222.6084,32.8267)"
           id="g60"><path
             id="path62"
             style="fill:#d73b25;fill-opacity:1;fill-rule:nonzero;stroke:none"
             d="m 0,0 4.143,8.923 h -66.472 l 8.306,-17.846 H 4.143 Z" /></g><g
           transform="translate(150,44.6831)"
           id="g64"><path
             id="path66"
             style="fill:#ffffff;fill-opacity:1;fill-rule:nonzero;stroke:none"
             d="m 0,0 h -53.397 c -0.148,0 -0.268,0.119 -0.268,0.267 0,0.148 0.12,0.267 0.268,0.267 H 0 C 0.147,0.534 0.268,0.415 0.268,0.267 0.268,0.119 0.147,0 0,0" /></g><g
           transform="translate(36.0927,29.4683)"
           id="g68"><path
             id="path70"
             style="fill:#f4eedd;fill-opacity:1;fill-rule:nonzero;stroke:none"
             d="m 0,0 c -0.66,-0.87 -1.249,-0.407 -1.838,-0.52 -0.8,0 -0.716,0.324 -0.787,0.464 0,0.954 -0.013,1.6 0.141,2.54 0,0.323 0.758,0.225 0.968,0.225 0.8,0 0.646,0.014 1.291,-0.225 C 0.323,1.937 0.323,1.782 0.323,1.053 0.323,0.099 -0.028,0.196 0,0 m -2.54,6.034 c 0.056,0.169 0.21,0.394 0.379,0.365 h 1.614 C -0.056,6.259 0.14,6.104 0.14,5.347 0.14,4.533 0,4.659 0,4.463 -0.239,4.225 -0.197,4.112 -0.547,4.098 H -2.119 C -2.204,4.154 -2.428,4.154 -2.54,4.421 Z M 1.066,3.313 c 0,0.055 0.015,0.224 0.042,0.28 0,0.253 0.324,0.575 0.324,0.828 0,0.337 0.041,0.518 0.041,1.754 C 0.996,7.803 0.421,7.466 0.182,7.704 0.084,7.719 -0.407,7.845 -0.547,7.831 h -3.144 c -0.21,-0.028 -0.126,-5.403 -0.323,-8.715 0,-0.238 -0.042,-0.674 -0.042,-0.744 -0.028,-0.126 0.098,-0.267 0.182,-0.267 0.422,0 2.218,-0.097 2.625,-0.097 0.505,0 0.562,0.027 1.066,0.097 0.211,0.084 0.548,0.225 0.787,0.408 0.042,0.055 0.364,0.379 0.462,0.463 0,0.042 0.127,0.238 0.183,0.281 0.238,0.238 0.267,0.771 0.323,0.827 0,0.421 0.042,0.66 0.042,1.755 0,0.224 -0.042,0.406 -0.182,0.743 0,-0.014 -0.366,0.688 -0.366,0.731" /></g><g
           transform="translate(41.0317,30.353)"
           id="g72"><path
             id="path74"
             style="fill:#f4eedd;fill-opacity:1;fill-rule:nonzero;stroke:none"
             d="M 0,0 C -0.294,0 -0.463,0.182 -0.463,0.463 V 0.547 C -0.14,2.413 0.21,3.367 0.225,3.382 0.267,3.438 0.281,3.424 0.365,3.424 0.688,3.438 1.095,0.813 1.095,0.505 1.095,-0.099 0.688,0 0,0 m 2.919,-2.33 c 0,0.099 -0.182,0.828 -0.182,0.912 C 2.695,-1.277 2.512,0 2.47,0.14 2.47,0.182 2.372,0.547 2.372,0.603 2.147,2.188 1.6,4.715 1.6,4.897 1.558,5.122 1.417,6.118 1.375,6.356 1.375,6.511 1.081,6.735 1.053,6.722 H -0.365 C -0.729,6.651 -0.729,6.132 -0.729,6.175 -0.912,5.262 -1.642,1.094 -1.824,0.182 c 0,-0.463 -0.477,-1.712 -0.59,-2.737 0,-0.295 -0.014,-0.337 0.997,-0.322 0.14,0.069 0.407,0.027 0.407,0.421 0,0.897 0.239,0.996 0.239,1.137 l 0.042,0.042 h 1.964 c -0.014,-0.042 0.182,-0.099 0.182,-0.267 0,-1.207 0.352,-1.333 0.407,-1.333 h 0.73 c 0.52,0 0.323,0.393 0.365,0.547" /></g><g
           transform="translate(49.9008,32.2046)"
           id="g76"><path
             id="path78"
             style="fill:#f4eedd;fill-opacity:1;fill-rule:nonzero;stroke:none"
             d="m 0,0 c -0.154,0.141 -0.547,0.604 -0.646,0.604 -0.266,0.028 -0.631,0.365 -0.926,0.365 -0.098,0.055 -0.786,0.196 -0.884,0.238 -0.393,0 -0.604,0.281 -0.702,0.281 -0.505,0.505 -0.463,0.519 -0.463,1.193 0,0.323 0.505,0.799 0.603,0.799 0.113,0.085 0.45,0.169 0.562,0.141 0.519,0 0.856,-0.421 0.968,-0.463 0.071,-0.056 0.085,-0.056 0.239,-0.056 0.351,0.239 0.786,0.281 0.786,0.323 0.14,0 0.224,0.238 0.28,0.238 0,0.449 -0.337,0.617 -0.982,1.109 -0.407,0.252 -0.814,0.323 -1.333,0.323 -0.576,0 -0.702,-0.183 -0.884,-0.183 -0.197,0 -0.365,-0.28 -0.505,-0.28 C -4.238,4.365 -4.491,4.07 -4.729,3.747 -4.729,3.522 -5.01,3.313 -5.01,3.06 c 0,-0.239 -0.084,-0.408 -0.084,-0.884 0,-1.011 0.729,-1.558 0.926,-1.712 0.056,-0.042 0.336,-0.225 0.365,-0.239 0.365,0 0.575,-0.323 0.842,-0.323 0.673,-0.224 1.529,-0.295 1.993,-0.968 0.252,-0.253 0.224,-0.842 0.224,-1.025 0,-0.196 -0.098,-0.308 -0.224,-0.603 -0.099,-0.042 -0.253,-0.365 -0.38,-0.365 -0.434,-0.154 -0.294,-0.253 -0.968,-0.224 -0.392,0.154 -0.631,0.126 -0.884,0.463 -0.196,0.196 -0.182,0.434 -0.603,0.968 -0.239,0 -0.155,0.028 -0.968,-0.281 -0.155,-0.042 -0.183,-0.224 -0.183,-0.365 0,-0.154 0.042,-0.547 0.505,-1.024 0.674,-0.702 1.32,-0.955 1.347,-0.968 0.519,-0.352 1.067,-0.211 1.39,-0.239 1.178,0 2.386,1.867 2.316,2.512 0,0.393 -0.029,0.87 -0.099,1.151 C 0.505,-0.646 0.098,-0.098 0,0" /></g><g
           transform="translate(55.8227,36.8218)"
           id="g80"><path
             id="path82"
             style="fill:#f4eedd;fill-opacity:1;fill-rule:nonzero;stroke:none"
             d="m 0,0 c -0.281,0 -0.66,0 -1.165,-0.014 -0.294,0.042 -0.589,0.056 -0.87,0.056 -0.295,0 -0.575,-0.014 -0.856,-0.014 -0.098,0 -0.94,0.042 -1.025,0.042 -0.42,0 -0.449,-0.196 -0.449,-0.322 0,-0.099 0.014,-0.786 0.043,-0.87 l 0.14,-0.141 h 1.557 c 0.351,0 0.408,-0.35 0.408,-0.744 0,-2.428 -0.141,-2.708 -0.141,-7.129 0.07,-0.14 0.197,-0.21 0.267,-0.21 h 0.842 c 0.154,0.042 0.252,0.182 0.267,0.267 v 7.283 c 0,0.351 0.126,0.491 0.828,0.491 0.042,0 0.49,-0.042 0.814,-0.042 0.434,0 0.49,0.267 0.49,0.576 v 0.336 0.113 C 1.123,-0.225 1.081,-0.154 1.024,-0.056 0.912,-0.042 0.884,0 0,0" /></g><g
           transform="translate(60.3691,30.353)"
           id="g84"><path
             id="path86"
             style="fill:#f4eedd;fill-opacity:1;fill-rule:nonzero;stroke:none"
             d="M 0,0 C -0.295,0 -0.463,0.182 -0.463,0.463 V 0.547 C -0.141,2.413 0.21,3.367 0.224,3.382 0.267,3.438 0.28,3.424 0.365,3.424 0.687,3.438 1.094,0.813 1.094,0.505 1.094,-0.099 0.687,0 0,0 m 2.919,-2.33 c 0,0.099 -0.183,0.828 -0.183,0.912 C 2.694,-1.277 2.512,0 2.47,0.14 2.47,0.182 2.372,0.547 2.372,0.603 2.147,2.188 1.6,4.715 1.6,4.897 1.558,5.122 1.417,6.118 1.375,6.356 1.375,6.511 1.081,6.735 1.052,6.722 H -0.365 C -0.73,6.651 -0.73,6.132 -0.73,6.175 -0.912,5.262 -1.642,1.094 -1.824,0.182 c 0,-0.463 -0.478,-1.712 -0.59,-2.737 0,-0.295 -0.014,-0.337 0.997,-0.322 0.14,0.069 0.406,0.027 0.406,0.421 0,0.897 0.239,0.996 0.239,1.137 l 0.042,0.042 h 1.965 c -0.014,-0.042 0.182,-0.099 0.182,-0.267 0,-1.207 0.351,-1.333 0.407,-1.333 h 0.73 c 0.519,0 0.323,0.393 0.365,0.547" /></g><g
           transform="translate(68.3535,33.5386)"
           id="g88"><path
             id="path90"
             style="fill:#f4eedd;fill-opacity:1;fill-rule:nonzero;stroke:none"
             d="m 0,0 c -0.07,-0.057 -0.323,-0.211 -0.505,-0.183 h -1.712 c -0.056,0.029 -0.224,0.029 -0.281,0.225 0,0.393 -0.042,0.547 -0.042,1.249 0,1.67 0.379,0.94 0.463,1.164 h 1.431 C -0.477,2.498 -0.154,2.175 0,2.175 0.141,2.175 0.449,1.529 0.463,1.389 0.463,0.687 0.407,0.309 0,0 m -0.323,3.704 c -0.8,0 -1.417,0.043 -3.34,0.043 L -3.845,3.662 v -7.367 c 0,-0.815 -0.084,-1.165 -0.084,-2.091 0,-0.266 0.561,-0.225 1.151,-0.225 0.378,0 0.308,0.534 0.378,0.562 0,0.968 -0.14,2.554 -0.14,3.186 0,0.645 0.14,0.785 0.407,0.841 h 1.207 c 0.239,-0.127 0.211,-0.491 0.28,-0.561 0.197,-0.604 0.814,-4.463 1.109,-4.028 0.323,0 0.842,-0.07 0.983,-0.041 0.168,0.027 0.308,0.097 0.28,0.546 0,0.057 -0.238,0.562 -0.238,0.604 -0.337,1.571 -1.025,3.172 -0.968,3.747 l 0.042,0.098 C 1.375,-0.253 1.628,0 1.628,0.28 1.67,0.364 1.726,0.603 1.726,0.646 v 1.066 c 0,0.21 -0.168,0.533 -0.421,0.926 C 1.123,3.073 0.73,3.62 -0.323,3.704" /></g><g
           transform="translate(75.3139,30.0864)"
           id="g92"><path
             id="path94"
             style="fill:#f4eedd;fill-opacity:1;fill-rule:nonzero;stroke:none"
             d="m 0,0 c 0,-0.478 -0.253,-0.491 -0.239,-0.604 0,-0.239 -0.631,-0.449 -0.645,-0.463 -0.211,0 -1.221,-0.168 -1.305,-0.098 -0.239,0 -0.421,0.112 -0.478,0.379 v 5.992 c 0,0.688 0.66,0.617 1.306,0.617 0,0.029 0.701,-0.112 0.617,-0.097 0.098,0 0.505,-0.352 0.505,-0.421 C -0.07,4.897 0.182,4.757 0.182,4.321 0.182,3.494 0.281,3.031 0.281,2.554 0.281,0.842 0.126,0.631 0,0 M 1.389,5.023 C 1.305,5.22 1.15,5.852 1.108,5.823 0.744,6.174 0.786,6.398 0.084,6.891 c -0.21,0.21 -0.674,0.28 -0.828,0.28 -0.056,0 -0.477,0.042 -0.561,0.042 h -0.14 c -0.38,0 -2.05,-0.042 -2.429,-0.042 -0.098,-0.07 -0.14,-0.196 -0.14,-0.323 0,-3.452 -0.042,-7.578 -0.042,-8.294 0,-0.281 -0.042,-0.786 -0.042,-0.786 -0.127,-0.533 0.716,-0.378 1.207,-0.378 0.94,0 1.333,0.042 1.867,0.042 0.35,0 0.954,0.336 1.024,0.336 0.365,0.197 0.533,0.393 0.828,0.688 0.014,0.126 0.337,0.379 0.337,0.519 -0.042,0 0.182,0.308 0.182,0.505 -0.028,0.056 0.183,0.576 0.183,0.8 0,0.351 0.14,0.786 0.14,1.067 0,0.94 0.098,1.993 -0.099,2.793 0,0.407 -0.182,0.589 -0.182,0.883" /></g><g
           transform="translate(171.6816,32.0786)"
           id="g96"><path
             id="path98"
             style="fill:#f4eedd;fill-opacity:1;fill-rule:nonzero;stroke:none"
             d="M 0,0 C -0.042,0 -0.099,-0.099 -0.099,-0.099 V -1.207 C 0,-1.375 0.099,-1.445 0.379,-1.445 c 0.379,0 0.323,-0.463 0.323,-0.562 0,-0.842 -0.407,-0.842 -0.561,-1.024 -0.169,-0.197 -0.492,-0.168 -0.646,-0.183 -0.828,0 -1.361,1.053 -1.361,1.123 -0.379,0.941 -0.407,2.232 -0.407,2.414 0,0.364 0.084,0.575 0.084,1.164 0.197,0.842 0.182,1.068 0.561,1.586 0.323,0.436 0.421,0.744 1.348,0.702 C -0.21,3.733 0.042,3.691 0.099,3.635 0.548,3.34 0.52,2.919 0.604,2.891 0.632,2.723 0.66,2.61 0.744,2.555 H 1.951 L 2.007,2.61 c 0,1.179 -0.477,1.586 -0.983,2.091 0.029,0.07 -0.996,0.463 -0.982,0.463 -0.309,0 -0.575,0.085 -0.604,0.043 -0.167,0 -0.449,-0.085 -0.603,-0.085 C -1.6,5.122 -2.161,4.701 -2.231,4.604 -2.624,4.435 -3.018,3.691 -3.018,3.578 -3.69,1.754 -3.635,1.487 -3.635,0.646 c 0,-0.379 0.057,-0.884 0.057,-1.25 0,-0.434 0.28,-1.122 0.28,-1.403 0.126,-0.253 0.323,-0.926 0.323,-0.926 0.126,-0.308 0.365,-0.519 0.365,-0.645 0.098,-0.099 0.421,-0.478 0.519,-0.52 0.112,-0.07 0.154,-0.112 0.562,-0.281 0.126,0 0.322,-0.182 0.364,-0.14 0.309,0 0.603,-0.112 0.885,-0.084 0.8,0 1.038,0.435 1.207,0.407 0.154,0 0.379,0.393 0.421,0.379 0.35,0.35 0.519,0.884 0.519,0.884 0,0.267 0.154,0.421 0.14,0.561 0,0.702 0.056,1.53 0.042,2.189 L 1.908,-0.042 C 1.895,-0.028 0.211,0 0,0" /></g><g
           transform="translate(177.0283,30.353)"
           id="g100"><path
             id="path102"
             style="fill:#f4eedd;fill-opacity:1;fill-rule:nonzero;stroke:none"
             d="M 0,0 C -0.295,0 -0.464,0.182 -0.464,0.463 V 0.547 C -0.141,2.413 0.21,3.367 0.225,3.382 0.267,3.438 0.28,3.424 0.364,3.424 0.687,3.438 1.095,0.813 1.095,0.505 1.095,-0.099 0.687,0 0,0 m 2.919,-2.33 c 0,0.099 -0.183,0.828 -0.183,0.912 C 2.694,-1.277 2.512,0 2.47,0.14 2.47,0.182 2.371,0.547 2.371,0.603 2.146,2.188 1.6,4.715 1.6,4.897 1.558,5.122 1.417,6.118 1.375,6.356 1.375,6.511 1.08,6.735 1.052,6.722 H -0.365 C -0.73,6.651 -0.73,6.132 -0.73,6.175 -0.912,5.262 -1.643,1.094 -1.824,0.182 c 0,-0.463 -0.478,-1.712 -0.59,-2.737 0,-0.295 -0.014,-0.337 0.996,-0.322 0.141,0.069 0.407,0.027 0.407,0.421 0,0.897 0.239,0.996 0.239,1.137 l 0.042,0.042 h 1.964 c -0.013,-0.042 0.183,-0.099 0.183,-0.267 0,-1.207 0.352,-1.333 0.407,-1.333 h 0.73 c 0.519,0 0.323,0.393 0.365,0.547" /></g><g
           transform="translate(186.5849,37.313)"
           id="g104"><path
             id="path106"
             style="fill:#f4eedd;fill-opacity:1;fill-rule:nonzero;stroke:none"
             d="m 0,0 h -1.039 c -0.196,0 -0.126,-1.01 -0.126,-1.487 0,-0.547 -0.057,-3.102 -0.057,-3.663 0,-0.407 -0.168,-0.45 -0.224,-0.407 -0.21,0 -0.21,0.21 -0.491,0.505 -0.225,0.604 -1.361,3.424 -1.585,4.028 0,0.266 -0.267,0.618 -0.267,0.744 0,0.266 -0.352,0.337 -0.365,0.379 h -1.081 c -0.028,-0.029 -0.183,-0.141 -0.183,-0.24 -0.056,-1.248 -0.14,-7.142 -0.182,-8.391 0,-0.309 -0.14,-1.151 0.309,-1.249 h 0.954 c 0.099,0.028 0.183,0.126 0.225,0.238 v 4.73 c 0,0.392 0.28,0.561 0.323,0.547 0.267,0.126 0.322,-0.281 0.406,-0.505 l 1.895,-4.73 c 0,-0.28 0.323,-0.309 0.323,-0.322 h 0.996 C -0.085,-9.795 0,-9.711 0,-9.641 c 0,2.723 0.182,5.164 0.182,8.112 0,0.098 0.098,0.967 0.098,1.066 C 0.28,-0.238 0.21,0 0,0" /></g><g
           transform="translate(191.4814,32.0786)"
           id="g108"><path
             id="path110"
             style="fill:#f4eedd;fill-opacity:1;fill-rule:nonzero;stroke:none"
             d="M 0,0 C -0.042,0 -0.098,-0.099 -0.098,-0.099 V -1.207 C 0,-1.375 0.099,-1.445 0.379,-1.445 c 0.379,0 0.323,-0.463 0.323,-0.562 0,-0.842 -0.407,-0.842 -0.561,-1.024 -0.168,-0.197 -0.492,-0.168 -0.646,-0.183 -0.828,0 -1.361,1.053 -1.361,1.123 -0.379,0.941 -0.407,2.232 -0.407,2.414 0,0.364 0.085,0.575 0.085,1.164 0.196,0.842 0.181,1.068 0.56,1.586 0.323,0.436 0.421,0.744 1.348,0.702 C -0.21,3.733 0.042,3.691 0.099,3.635 0.548,3.34 0.52,2.919 0.604,2.891 0.632,2.723 0.66,2.61 0.744,2.555 H 1.951 L 2.007,2.61 c 0,1.179 -0.477,1.586 -0.982,2.091 0.028,0.07 -0.997,0.463 -0.983,0.463 -0.309,0 -0.575,0.085 -0.603,0.043 -0.168,0 -0.449,-0.085 -0.603,-0.085 C -1.6,5.122 -2.161,4.701 -2.231,4.604 -2.624,4.435 -3.017,3.691 -3.017,3.578 -3.69,1.754 -3.635,1.487 -3.635,0.646 c 0,-0.379 0.057,-0.884 0.057,-1.25 0,-0.434 0.28,-1.122 0.28,-1.403 0.127,-0.253 0.323,-0.926 0.323,-0.926 0.126,-0.308 0.365,-0.519 0.365,-0.645 0.098,-0.099 0.422,-0.478 0.519,-0.52 0.112,-0.07 0.154,-0.112 0.562,-0.281 0.126,0 0.322,-0.182 0.365,-0.14 0.309,0 0.603,-0.112 0.884,-0.084 0.8,0 1.038,0.435 1.207,0.407 0.154,0 0.379,0.393 0.421,0.379 0.35,0.35 0.519,0.884 0.519,0.884 0,0.267 0.154,0.421 0.14,0.561 0,0.702 0.056,1.53 0.042,2.189 l -0.14,0.141 C 1.895,-0.028 0.211,0 0,0" /></g><g
           transform="translate(198.4707,29.4683)"
           id="g112"><path
             id="path114"
             style="fill:#f4eedd;fill-opacity:1;fill-rule:nonzero;stroke:none"
             d="m 0,0 c -0.66,-0.87 -1.249,-0.407 -1.839,-0.52 -0.8,0 -0.716,0.324 -0.786,0.464 0,0.954 -0.014,1.6 0.141,2.54 0,0.323 0.757,0.225 0.968,0.225 0.8,0 0.646,0.014 1.291,-0.225 C 0.322,1.937 0.322,1.782 0.322,1.053 0.322,0.099 -0.028,0.196 0,0 m -2.541,6.034 c 0.057,0.169 0.211,0.394 0.38,0.365 h 1.613 C -0.057,6.259 0.14,6.104 0.14,5.347 0.14,4.533 0,4.659 0,4.463 -0.239,4.225 -0.197,4.112 -0.548,4.098 H -2.119 C -2.204,4.154 -2.428,4.154 -2.541,4.421 Z M 1.066,3.313 c 0,0.055 0.014,0.224 0.042,0.28 0,0.253 0.323,0.575 0.323,0.828 0,0.337 0.042,0.518 0.042,1.754 C 0.996,7.803 0.421,7.466 0.182,7.704 0.084,7.719 -0.407,7.845 -0.548,7.831 h -3.143 c -0.211,-0.028 -0.126,-5.403 -0.323,-8.715 0,-0.238 -0.043,-0.674 -0.043,-0.744 -0.027,-0.126 0.099,-0.267 0.183,-0.267 0.421,0 2.218,-0.097 2.625,-0.097 0.505,0 0.561,0.027 1.066,0.097 0.21,0.084 0.547,0.225 0.787,0.408 0.042,0.055 0.364,0.379 0.462,0.463 0,0.042 0.126,0.238 0.183,0.281 0.238,0.238 0.267,0.771 0.322,0.827 0,0.421 0.042,0.66 0.042,1.755 0,0.224 -0.042,0.406 -0.182,0.743 0,-0.014 -0.365,0.688 -0.365,0.731" /></g><g
           transform="translate(203.4091,30.353)"
           id="g116"><path
             id="path118"
             style="fill:#f4eedd;fill-opacity:1;fill-rule:nonzero;stroke:none"
             d="M 0,0 C -0.294,0 -0.463,0.182 -0.463,0.463 V 0.547 C -0.14,2.413 0.211,3.367 0.225,3.382 0.267,3.438 0.281,3.424 0.365,3.424 0.687,3.438 1.095,0.813 1.095,0.505 1.095,-0.099 0.687,0 0,0 m 2.919,-2.33 c 0,0.099 -0.182,0.828 -0.182,0.912 C 2.694,-1.277 2.513,0 2.471,0.14 2.471,0.182 2.372,0.547 2.372,0.603 2.147,2.188 1.601,4.715 1.601,4.897 1.559,5.122 1.418,6.118 1.376,6.356 1.376,6.511 1.081,6.735 1.053,6.722 H -0.364 C -0.729,6.651 -0.729,6.132 -0.729,6.175 -0.912,5.262 -1.642,1.094 -1.824,0.182 c 0,-0.463 -0.477,-1.712 -0.589,-2.737 0,-0.295 -0.015,-0.337 0.996,-0.322 0.141,0.069 0.407,0.027 0.407,0.421 0,0.897 0.239,0.996 0.239,1.137 l 0.042,0.042 h 1.964 c -0.013,-0.042 0.183,-0.099 0.183,-0.267 0,-1.207 0.351,-1.333 0.406,-1.333 h 0.731 c 0.519,0 0.322,0.393 0.364,0.547" /></g><g
           transform="translate(212.9658,37.313)"
           id="g120"><path
             id="path122"
             style="fill:#f4eedd;fill-opacity:1;fill-rule:nonzero;stroke:none"
             d="m 0,0 h -1.038 c -0.196,0 -0.127,-1.01 -0.127,-1.487 0,-0.547 -0.056,-3.102 -0.056,-3.663 0,-0.407 -0.168,-0.45 -0.224,-0.407 -0.21,0 -0.21,0.21 -0.492,0.505 -0.224,0.604 -1.361,3.424 -1.585,4.028 0,0.266 -0.267,0.618 -0.267,0.744 0,0.266 -0.351,0.337 -0.364,0.379 H -5.234 C -5.263,0.07 -5.417,-0.042 -5.417,-0.141 -5.473,-1.389 -5.558,-7.283 -5.6,-8.532 c 0,-0.309 -0.139,-1.151 0.309,-1.249 h 0.955 c 0.098,0.028 0.183,0.126 0.225,0.238 v 4.73 c 0,0.392 0.28,0.561 0.322,0.547 0.267,0.126 0.323,-0.281 0.407,-0.505 l 1.895,-4.73 c 0,-0.28 0.322,-0.309 0.322,-0.322 h 0.997 C -0.084,-9.795 0,-9.711 0,-9.641 c 0,2.723 0.183,5.164 0.183,8.112 0,0.098 0.098,0.967 0.098,1.066 C 0.281,-0.238 0.211,0 0,0" /></g><g
           transform="translate(218.2001,30.0864)"
           id="g124"><path
             id="path126"
             style="fill:#f4eedd;fill-opacity:1;fill-rule:nonzero;stroke:none"
             d="m 0,0 c 0,-0.478 -0.253,-0.491 -0.239,-0.604 0,-0.239 -0.631,-0.449 -0.645,-0.463 -0.211,0 -1.221,-0.168 -1.305,-0.098 -0.239,0 -0.421,0.112 -0.478,0.379 v 5.992 c 0,0.688 0.66,0.617 1.306,0.617 0,0.029 0.701,-0.112 0.617,-0.097 0.098,0 0.505,-0.352 0.505,-0.421 C -0.07,4.897 0.183,4.757 0.183,4.321 0.183,3.494 0.28,3.031 0.28,2.554 0.28,0.842 0.126,0.631 0,0 M 1.571,4.14 C 1.571,4.547 1.39,4.729 1.39,5.023 1.305,5.22 1.15,5.852 1.108,5.823 0.743,6.174 0.786,6.398 0.084,6.891 c -0.21,0.21 -0.674,0.28 -0.828,0.28 -0.056,0 -0.477,0.042 -0.562,0.042 h -0.139 c -0.379,0 -2.049,-0.042 -2.428,-0.042 -0.099,-0.07 -0.141,-0.196 -0.141,-0.323 0,-3.452 -0.042,-7.578 -0.042,-8.294 0,-0.281 -0.042,-0.786 -0.042,-0.786 -0.127,-0.533 0.716,-0.378 1.207,-0.378 0.94,0 1.333,0.042 1.867,0.042 0.35,0 0.954,0.336 1.024,0.336 0.365,0.197 0.533,0.393 0.828,0.688 0.014,0.126 0.336,0.379 0.336,0.519 -0.041,0 0.183,0.308 0.183,0.505 -0.028,0.056 0.182,0.576 0.182,0.8 0,0.351 0.141,0.786 0.141,1.067 0,0.94 0.098,1.993 -0.099,2.793" /></g><g
           transform="translate(207.9414,106.1021)"
           id="g128"><path
             id="path130"
             style="fill:#ffffff;fill-opacity:1;fill-rule:nonzero;stroke:none"
             d="m 0,0 2.701,2.702 c 0.116,0.116 0.116,0.305 0,0.422 -0.116,0.116 -0.305,0.116 -0.422,0 L -0.546,0.298 h -48.527 l -2.825,2.826 c -0.117,0.116 -0.305,0.116 -0.422,0 -0.117,-0.117 -0.117,-0.306 0,-0.422 L -49.618,0 -52.32,-2.701 c -0.117,-0.117 -0.117,-0.306 0,-0.422 0.058,-0.058 0.134,-0.087 0.211,-0.087 0.077,0 0.153,0.029 0.211,0.087 l 2.825,2.825 h 23.176 v -51.581 c 0,-0.006 0.005,-0.009 0.005,-0.015 l -2.831,-2.83 c -0.116,-0.117 -0.116,-0.305 0,-0.422 0.117,-0.117 0.306,-0.117 0.422,0 l 2.701,2.702 2.703,-2.702 c 0.057,-0.058 0.133,-0.087 0.21,-0.087 0.077,0 0.153,0.029 0.211,0.087 0.117,0.117 0.117,0.305 0,0.422 l -2.831,2.83 c 0,0.006 0.006,0.009 0.006,0.015 V -0.298 H -0.546 L 2.279,-3.123 C 2.338,-3.181 2.414,-3.21 2.49,-3.21 c 0.076,0 0.153,0.029 0.211,0.087 0.116,0.116 0.116,0.305 0,0.422 z" /></g><g
           transform="translate(58.3408,54.1079)"
           id="g132"><path
             id="path134"
             style="fill:#ffffff;fill-opacity:1;fill-rule:nonzero;stroke:none"
             d="M 0,0 C 0.018,0.038 0.048,0.07 0.048,0.115 V 25.64 H 24.64 l 2.825,-2.826 c 0.058,-0.058 0.135,-0.087 0.211,-0.087 0.076,0 0.153,0.029 0.211,0.087 0.116,0.117 0.116,0.306 0,0.422 l -2.701,2.702 2.701,2.701 c 0.116,0.117 0.116,0.306 0,0.422 -0.116,0.117 -0.305,0.117 -0.422,0 L 24.64,26.236 H 0.048 v 25.46 h 29.1 l 2.825,-2.825 c 0.058,-0.058 0.134,-0.087 0.211,-0.087 0.076,0 0.152,0.029 0.211,0.087 0.116,0.116 0.116,0.305 0,0.422 l -2.702,2.701 2.702,2.702 c 0.116,0.116 0.116,0.305 0,0.422 -0.117,0.116 -0.306,0.116 -0.422,0 L 29.148,52.292 H -0.25 c -0.165,0 -0.298,-0.133 -0.298,-0.298 V 0.238 l -2.969,-2.967 c -0.116,-0.118 -0.116,-0.306 0,-0.422 0.117,-0.118 0.306,-0.118 0.422,0 l 2.701,2.701 2.702,-2.701 c 0.058,-0.059 0.134,-0.088 0.211,-0.088 0.076,0 0.152,0.029 0.21,0.088 0.117,0.116 0.117,0.304 0,0.422 z" /></g><g
           transform="translate(159.3818,25.9468)"
           id="g136"><path
             id="path138"
             style="fill:#ffffff;fill-opacity:1;fill-rule:nonzero;stroke:none"
             d="m 0,0 -35.616,76.304 c -0.063,0.134 -0.222,0.191 -0.356,0.129 -0.095,-0.045 -0.132,-0.141 -0.134,-0.24 0,-0.002 -0.003,-0.002 -0.003,-0.003 l -36.12,-76.104 -2.662,-2.662 c -0.105,-0.105 -0.105,-0.274 0,-0.378 0.104,-0.105 0.273,-0.105 0.378,0 l 2.418,2.418 c 0.001,0 0.002,0.001 0.004,0.001 l 2.419,-2.419 c 0.052,-0.053 0.12,-0.078 0.189,-0.078 0.068,0 0.136,0.025 0.189,0.078 0.104,0.104 0.104,0.273 0,0.378 L -71.74,-0.131 -35.838,75.515 -0.543,-0.1 -3.021,-2.576 c -0.103,-0.105 -0.103,-0.274 0,-0.378 0.105,-0.105 0.275,-0.105 0.378,0 l 2.366,2.365 c 0.048,-0.038 0.102,-0.064 0.163,-0.064 0.004,0 0.007,0.002 0.01,0.002 l 2.302,-2.303 c 0.053,-0.053 0.121,-0.078 0.19,-0.078 0.068,0 0.136,0.025 0.188,0.078 0.105,0.104 0.105,0.273 0,0.378 z" /></g></g></g></g></svg>