<svg id="ecusson" xmlns="http://www.w3.org/2000/svg" xmlns:xlink="http://www.w3.org/1999/xlink" viewBox="0 0 273.53 273.53"><defs><style>.cls-1,.cls-2,.cls-5,.cls-7{fill:none;}.cls-2{stroke:#051b25;stroke-width:6.48px;}.cls-3{fill:#f2efd4;}.cls-4{fill:url(#Nouvelle_nuance_de_motif_16);}.cls-5,.cls-7{stroke:#f2efd4;stroke-miterlimit:10;}.cls-5{stroke-width:8.21px;}.cls-6{fill:#051b25;}.cls-7{stroke-linecap:round;stroke-width:2.26px;}</style><pattern id="Nouvelle_nuance_de_motif_16" data-name="Nouvelle nuance de motif 16" width="72.5" height="71.28" patternTransform="translate(-293.84 78.56) scale(0.75)" patternUnits="userSpaceOnUse" viewBox="0 0 72.5 71.28"><rect class="cls-1" width="72.5" height="71.28"/><line class="cls-2" y1="68.04" x2="72.5" y2="68.04"/><line class="cls-2" y1="53.64" x2="72.5" y2="53.64"/><line class="cls-2" y1="39.24" x2="72.5" y2="39.24"/><line class="cls-2" y1="24.84" x2="72.5" y2="24.84"/><line class="cls-2" y1="10.44" x2="72.5" y2="10.44"/><line class="cls-2" y1="60.84" x2="72.5" y2="60.84"/><line class="cls-2" y1="46.44" x2="72.5" y2="46.44"/><line class="cls-2" y1="32.04" x2="72.5" y2="32.04"/><line class="cls-2" y1="17.64" x2="72.5" y2="17.64"/><line class="cls-2" y1="3.24" x2="72.5" y2="3.24"/></pattern></defs><title>Main</title><circle class="cls-3" cx="137.33" cy="136.77" r="132.09"/><circle class="cls-4" cx="142.72" cy="145.57" r="103.98" transform="translate(-34.2 25.73) rotate(-12.56)"/><circle class="cls-5" cx="142.72" cy="145.57" r="132.63" transform="translate(-34.2 25.73) rotate(-12.56)"/><path class="cls-6" d="M142.82,32.37A113.28,113.28,0,1,1,118.1,35.1a113.22,113.22,0,0,1,24.72-2.73m0-13.58v0a127.48,127.48,0,0,0-27.68,3.06A126.76,126.76,0,0,0,64,244.89a126.47,126.47,0,0,0,106.33,24.4,126.76,126.76,0,0,0,51.19-223,127.22,127.22,0,0,0-78.65-27.46h0Z" transform="translate(-5.95 -8.8)"/><path class="cls-6" d="M222.46,201.77l3.69,2.6A105,105,0,0,1,201,229.28l-2.58-3.71A100.44,100.44,0,0,0,222.46,201.77Z" transform="translate(-5.95 -8.8)"/><path class="cls-6" d="M202.25,231.15A107.24,107.24,0,0,0,228,205.68l1.17,0.82-5.6,7.14a30.08,30.08,0,0,1-3,3.39l-3.14,3.27c3.21,0.88,7.43-1.41,9.25-2.86l0.06,0.05c-1.2,1.9-2.39,4.74-.65,6.72,2.6,3,6.38-1.09,8-3.39,2.34-2.86,4.33-5.92,1.18-8.59-0.52-.47-1.92-1.24-2.53-0.45a2.13,2.13,0,0,0,0,1.27,2.42,2.42,0,0,1-.5,2,2.39,2.39,0,0,1-3.56.22,2.76,2.76,0,0,1-.35-3.81c2.13-2.72,6.23-1.07,8.55.54,4.11,2.82,4.4,7.94.59,12.72A8.69,8.69,0,0,1,232,228a7,7,0,0,1-5.7-1.49,8.44,8.44,0,0,1-2.35-3.29l-3.23.8-0.7,3.29a8.24,8.24,0,0,1,3.26,2.34c2.84,3.47,1.63,8-2,11.19a13.1,13.1,0,0,1-3.51,2.18,9.1,9.1,0,0,1-3.59.45,7.55,7.55,0,0,1-5.7-3.4c-1.62-2.36-3.12-6.44-.32-8.38a2.75,2.75,0,0,1,3.79.29,2.52,2.52,0,0,1-.21,3.66,2.63,2.63,0,0,1-2,.41,2.17,2.17,0,0,0-1.33-.06c-0.75.52,0,2,.37,2.51,2.35,3.36,6.5,1.07,8.86-1.26,2.11-1.84,6.31-5.18,3.35-7.77-2-1.72-5-.76-6.9.5l-0.05-.06c1.51-1.92,4-5.66,3-9.19a70.79,70.79,0,0,1-6.73,6.08c-1.16,1-2.27,2-3.48,2.91l-3.73,2.58Z" transform="translate(-5.95 -8.8)"/><path class="cls-6" d="M198.37,225.57l2.58,3.71a102.94,102.94,0,0,1-32.12,14.93l-1.15-4.37A98.42,98.42,0,0,0,198.37,225.57Z" transform="translate(-5.95 -8.8)"/><path class="cls-6" d="M169.41,246.41a105.22,105.22,0,0,0,32.84-15.26l0.82,1.17-3.72,2.58c-1.23.87-2.62,1.5-3.92,2.27-2.68,1.4-5.19,3.12-8,4.19,2.83,2.17,7.38,1.08,9.62.4l0,0.07c-1.81,1.32-3.78,3.82-2.84,6.26,1.44,3.75,6.18.82,8.64-.52a23.26,23.26,0,0,0,2.33-1.38,7.57,7.57,0,0,0,1.68-1.78,4.08,4.08,0,0,0,0-4.58c-0.33-.62-1.38-1.82-2.2-1.25a2.28,2.28,0,0,0-.38,1.24,2.55,2.55,0,0,1-1.09,1.74,2.43,2.43,0,0,1-3.45-1.06,2.78,2.78,0,0,1,1-3.67c2.83-2,6.1.94,7.72,3.25a7.51,7.51,0,0,1,1.21,6.5,9.28,9.28,0,0,1-1.68,3.2,11.93,11.93,0,0,1-3.28,2.54c-4.25,2.3-8.86,1.86-11.13-2a8.26,8.26,0,0,1-1.06-3.87l-3.36-.47-1.84,2.74a8.42,8.42,0,0,1,2.27,3.35,7,7,0,0,1-.6,5.87,8.83,8.83,0,0,1-5.07,4c-5.77,1.89-10.5-.11-11.74-5a10.6,10.6,0,0,1-.21-4.67,4.18,4.18,0,0,1,2.73-3.48,2.77,2.77,0,0,1,3.48,1.63,2.43,2.43,0,0,1-1.48,3.28,2.48,2.48,0,0,1-2-.2,2,2,0,0,0-1.21-.46c-0.87.28-.66,1.92-0.49,2.55,1.06,4,5.62,2.85,8.73,1.75,2.71-.75,7.63-2.84,5.76-6.25-1.26-2.33-4.32-2.16-6.57-1.73l0-.07c2.1-1.21,5.56-4.29,5.94-7.68l-4.16,1.81a29.41,29.41,0,0,1-4.23,1.63c-2.89.89-5.74,2-8.66,2.73Z" transform="translate(-5.95 -8.8)"/><path class="cls-6" d="M167.68,239.83l1.15,4.37a100.11,100.11,0,0,1-35.32,2.94l0.4-4.5A95.59,95.59,0,0,0,167.68,239.83Z" transform="translate(-5.95 -8.8)"/><path class="cls-6" d="M133.31,249.41a102.38,102.38,0,0,0,36.11-3l0.37,1.38-8.85,2-9,1.13c1.9,2.75,6.57,3.5,8.92,3.71v0.08c-2.17.54-4.88,2.12-4.83,4.72,0.07,3.94,5.57,3.17,8.31,2.6,3.62-.72,7.11-1.82,6.42-5.9-0.1-.69-0.67-2.18-1.65-2a2.16,2.16,0,0,0-.79,1,2.45,2.45,0,0,1-1.64,1.2,2.35,2.35,0,0,1-2.86-2.09,2.8,2.8,0,0,1,2.18-3.18c3.37-.75,5.45,3.14,6.19,5.86,1.33,4.8-1.73,9-7.71,10.22-4.77.7-9-1.6-9.79-5.83a8.51,8.51,0,0,1,.32-4l-3-1.42a30.59,30.59,0,0,1-2.66,1.94,8.57,8.57,0,0,1,1,3.95c-0.07,4.32-3.89,7.16-8.72,7.35-6.07-.12-9.82-3.95-9.32-8.85,0.27-2.85,1.74-7,5.14-6.73a2.9,2.9,0,0,1,2.72,2.82,2.33,2.33,0,0,1-2.5,2.5,2.57,2.57,0,0,1-1.81-.94,2.1,2.1,0,0,0-1-.88c-0.92-.06-1.27,1.54-1.33,2.19-0.36,4.08,4.31,4.83,7.6,4.8,2.8-.11,8.15-0.07,7.55-4-0.39-2.58-3.33-3.73-5.6-3.93V256c2.39-.6,6.7-1.91,8.21-5.08-3,.2-6.05.2-9.08,0.31s-6-.33-9.07-0.45Z" transform="translate(-5.95 -8.8)"/><path class="cls-6" d="M133.91,242.64l-0.4,4.5a102.89,102.89,0,0,1-34.16-9.27l1.93-4.09A98.37,98.37,0,0,0,133.91,242.64Z" transform="translate(-5.95 -8.8)"/><path class="cls-6" d="M98.38,239.93a105.17,105.17,0,0,0,34.93,9.48l-0.13,1.43a71.24,71.24,0,0,1-9-1.22c-1.49-.27-3-0.44-4.46-0.79l-4.37-1.18c0.82,3.32,4.91,5.82,7.1,6.54v0.08a9.08,9.08,0,0,0-3.63.58,3.76,3.76,0,0,0-2.54,2.33c-0.63,1.86.37,3.17,1.93,3.92a22.41,22.41,0,0,0,5,1.24,12.88,12.88,0,0,0,5.09.23,4,4,0,0,0,2.94-3.5c0.15-.69.11-2.27-0.88-2.34a2.56,2.56,0,0,0-1.09.71,2.36,2.36,0,0,1-1.94.5,2.45,2.45,0,0,1-2-3,2.67,2.67,0,0,1,3.12-2.14c3.41,0.54,4.07,4.62,3.83,7.5a7.69,7.69,0,0,1-3.25,5.82c-1.88,1.27-4.49,1.62-7.48,1.12a9.18,9.18,0,0,1-5.68-3,7.18,7.18,0,0,1-1.55-5.73,8.35,8.35,0,0,1,1.68-3.67l-2.29-2.46-3.18,1a8.32,8.32,0,0,1-.41,4,7.21,7.21,0,0,1-4.25,4.17,9.66,9.66,0,0,1-6.45-.27c-2.81-1.09-4.89-2.69-5.86-4.77a7.7,7.7,0,0,1,.12-6.68c1.26-2.64,3.95-5.76,7.12-4.51a2.7,2.7,0,0,1,1.64,3.43,2.49,2.49,0,0,1-3.26,1.61,2.43,2.43,0,0,1-1.42-1.41,2.32,2.32,0,0,0-.61-1.19c-0.82-.41-1.7,1-2,1.56a3.74,3.74,0,0,0,.9,4.58,14.47,14.47,0,0,0,4.64,2.41,21,21,0,0,0,4.88,1.39,3,3,0,0,0,3.53-2.39,3.84,3.84,0,0,0-1-3.32,8.87,8.87,0,0,0-2.87-2.35l0-.07a15.22,15.22,0,0,0,4.67.13,9,9,0,0,0,4.79-2.17l-4.39-1.18-4.25-1.6a67.17,67.17,0,0,1-8.37-3.49Z" transform="translate(-5.95 -8.8)"/><path class="cls-6" d="M101.28,233.78l-1.93,4.09c-2.62-1.4-5.39-2.5-7.89-4.11L83.92,229l-7-5.5c-2.35-1.82-4.33-4.06-6.52-6.05l3.2-3.19c2.1,1.9,4,4.05,6.23,5.79l6.71,5.26,7.21,4.55C96.12,231.4,98.78,232.44,101.28,233.78Z" transform="translate(-5.95 -8.8)"/><path class="cls-6" d="M68.77,219.06c2.24,2,4.26,4.33,6.67,6.19l7.17,5.62,7.7,4.86c2.56,1.64,5.39,2.78,8.07,4.2l-0.61,1.29c-2.67-1.41-5.48-2.56-8-4.17l-7.67-4.84c-0.31,3.31,2.82,6.85,4.5,8.5l0,0.07c-2-1-5.14-1.46-6.77.56-2.52,3.12,2.32,5.85,4.67,7.37,3.23,1.79,6.66,3.09,8.75-.47,0.37-.59.89-2.1,0-2.55a2.22,2.22,0,0,0-1.26.28,2.5,2.5,0,0,1-2-.11,2.31,2.31,0,0,1-.86-3.41,2.86,2.86,0,0,1,3.73-1.07c3.09,1.54,2.19,5.84,1,8.4-2,4.49-7.17,5.88-12.5,2.9-4.07-2.59-5.89-7-3.76-10.73a8.56,8.56,0,0,1,2.85-2.9l-1.39-3-3.24-.28a8.54,8.54,0,0,1-1.77,3.66c-2.83,3.27-7.59,3-11.43.07-4.54-4-5-9.34-1.44-12.78,2-2,5.81-4.22,8.27-1.85a2.9,2.9,0,0,1,.27,3.9,2.33,2.33,0,0,1-3.53.31,2.57,2.57,0,0,1-.79-1.88,2.1,2.1,0,0,0-.19-1.3c-0.66-.64-2,0.36-2.43.83-2.91,2.9.22,6.45,2.72,8.58,2.22,1.7,6.31,5.15,8.35,1.79,1.36-2.22-.17-5-1.78-6.59l0-.06c2.2,1.09,6.42,2.77,9.54,1.4l-7.15-5.61c-2.38-1.87-4.41-4.14-6.65-6.18Z" transform="translate(-5.95 -8.8)"/><path class="cls-6" d="M73.58,214.26l-3.2,3.19A102.89,102.89,0,0,1,50.16,188.4l4.1-1.89A98.37,98.37,0,0,0,73.58,214.26Z" transform="translate(-5.95 -8.8)"/><path class="cls-6" d="M48.09,189.35a105.18,105.18,0,0,0,20.68,29.7l-1,1a67,67,0,0,1-6.09-6.7l-2.93-3.46-2.58-3.73a8.7,8.7,0,0,0-.43,5.22,15.91,15.91,0,0,0,1.67,4.35l-0.06,0a8.8,8.8,0,0,0-3.15-1.89,3.86,3.86,0,0,0-3.46.16,3,3,0,0,0-1,4.23,22.44,22.44,0,0,0,3,4.19,12.88,12.88,0,0,0,3.75,3.46,4.06,4.06,0,0,0,4.51-.81c0.55-.43,1.54-1.67.83-2.36a2.43,2.43,0,0,0-1.3-.14,2.36,2.36,0,0,1-1.8-.87,2.46,2.46,0,0,1,.45-3.59,2.67,2.67,0,0,1,3.76.37c2.28,2.59.16,6.15-1.88,8.19a7.69,7.69,0,0,1-6.23,2.37c-2.28-.21-4.48-1.65-6.45-3.95a9.49,9.49,0,0,1-2.44-5.94,7.21,7.21,0,0,1,2.51-5.39,8.34,8.34,0,0,1,3.64-1.73l-0.17-3.36-3.06-1.3A8.34,8.34,0,0,1,46,210.25a7.18,7.18,0,0,1-5.93.46,9.34,9.34,0,0,1-4.78-4.34c-1.45-2.64-2-5.22-1.43-7.42a7.7,7.7,0,0,1,4.38-5c2.67-1.22,6.72-1.87,8.37,1.12a2.71,2.71,0,0,1-1,3.69,2.48,2.48,0,0,1-3.53-.86,2.43,2.43,0,0,1-.18-2,2.42,2.42,0,0,0,.29-1.3c-0.37-.84-1.92-0.36-2.52-0.08a3.7,3.7,0,0,0-2.24,4.08,14.47,14.47,0,0,0,2,4.83,21,21,0,0,0,2.83,4.2c1.23,1.16,2.76,1.63,4.27.42a3.75,3.75,0,0,0,1.34-3.19,9.22,9.22,0,0,0-.7-3.64l0.07,0c1.47,1.92,5.07,4.8,8.56,4.52L53.21,202c-0.82-1.27-1.49-2.63-2.25-3.94A71.48,71.48,0,0,1,46.79,190Z" transform="translate(-5.95 -8.8)"/><path class="cls-6" d="M54.26,186.5l-4.1,1.89A100.12,100.12,0,0,1,41,154.15l4.5-.38A95.6,95.6,0,0,0,54.26,186.5Z" transform="translate(-5.95 -8.8)"/><path class="cls-6" d="M38.78,154.34a102.39,102.39,0,0,0,9.32,35l-1.3.6c-1.13-2.8-2.57-5.48-3.47-8.37s-1.93-5.73-2.75-8.64c-2.47,2.37-2.24,7.05-2,9.4l-0.07,0c-0.94-2-3-4.41-5.58-3.91-3.93.77-2,6-1.12,8.64,1.28,3.46,3.11,6.66,7,5.27,0.66-.21,2-1,1.63-2a2.22,2.22,0,0,0-1.14-.6,2.5,2.5,0,0,1-1.49-1.39,2.31,2.31,0,0,1,1.53-3.16,2.86,2.86,0,0,1,3.55,1.58c1.38,3.16-2.07,5.88-4.63,7.08-4.44,2.12-9.29-.09-11.43-5.81-1.48-4.59-.08-9.11,4-10.63a8.59,8.59,0,0,1,4.05-.39,31,31,0,0,1,.93-3.19l-2.33-2.29a8.49,8.49,0,0,1-3.71,1.66c-4.25.68-7.85-2.57-8.83-7.29-0.77-6,2.1-10.34,7.07-10.7,2.85-.23,7.18.5,7.6,3.89a2.83,2.83,0,0,1-2.25,3.16,2.38,2.38,0,0,1-2.94-2,2.52,2.52,0,0,1,.58-1.94,2,2,0,0,0,.68-1.12c-0.11-.91-1.75-1-2.41-0.93-4.12.36-3.85,5.05-3.36,8.31,0.42,2.76,1.55,8,5.22,6.75,2.47-.83,3-3.92,2.82-6.18h0.08c1,2.25,3.21,6.23,6.5,7.19l-2-8.87-1.12-9Z" transform="translate(-5.95 -8.8)"/><path class="cls-6" d="M45.55,153.76l-4.5.38a102.93,102.93,0,0,1,3.26-35.27l4.36,1.18A98.41,98.41,0,0,0,45.55,153.76Z" transform="translate(-5.95 -8.8)"/><path class="cls-6" d="M42.11,118.28a105.21,105.21,0,0,0-3.33,36.06l-1.43.12c-0.26-3-.21-6-0.34-9.06a29.18,29.18,0,0,1,.11-4.53l0.31-4.52c-3,1.39-4.81,5.86-5.24,8.14H32.12c-0.35-2.23-1.22-5.17-3.84-5.57-3.93-.61-4.15,4.93-3.94,7.73,0,3.7.45,7.33,4.58,7.35,0.7,0,2.27-.29,2.24-1.28a2.11,2.11,0,0,0-.84-1,2.43,2.43,0,0,1,1.73-4.28,2.74,2.74,0,0,1,2.7,2.7,4.14,4.14,0,0,1-2.37,3.74,10.75,10.75,0,0,1-4.46,1.34c-5.07.49-8.54-3.25-8.66-9.36a8.67,8.67,0,0,1,2.07-6.11,7,7,0,0,1,5.32-2.52,8.44,8.44,0,0,1,3.92,1l2-2.69-1.58-3a8.24,8.24,0,0,1-4,.3c-4.4-.83-6.36-5.07-5.66-9.85a12,12,0,0,1,1.3-3.92,9.39,9.39,0,0,1,2.46-2.66,7.53,7.53,0,0,1,6.54-1.06c2.75,0.76,6.53,2.92,5.64,6.22a2.81,2.81,0,0,1-3.12,2.21A2.46,2.46,0,0,1,32,120.93a2.62,2.62,0,0,1,1.27-1.61,2.16,2.16,0,0,0,1.06-.81c0.24-.89-1.27-1.52-1.9-1.68-3.93-1.06-5.69,3.36-6,6.66-0.43,2.77-1.48,8,2.45,8.11,2.61,0.06,4.31-2.63,4.95-4.82h0.08c0.1,2.45.58,6.91,3.61,9,0.06-3,.83-6,1.25-9,0.28-1.49.41-3,.82-4.46l1.18-4.38Z" transform="translate(-5.95 -8.8)"/><path class="cls-6" d="M48.67,120.06l-4.36-1.18a105,105,0,0,1,15-32.11L63,89.37A100.44,100.44,0,0,0,48.67,120.06Z" transform="translate(-5.95 -8.8)"/><path class="cls-6" d="M57.42,85.46a107.24,107.24,0,0,0-15.32,32.82l-1.38-.37,1.17-4.38c0.45-1.44,1.05-2.83,1.57-4.25a71,71,0,0,1,3.46-8.37c-3.57.15-6.36,3.91-7.63,5.87l-0.07,0c0.54-2.18.42-5.36-1.86-6.63-3.51-1.94-5.25,3.35-6.27,6-1.52,3.39-1.94,7.08,1.89,8.5,0.65,0.26,2.22.51,2.48-.46a2.29,2.29,0,0,0-.51-1.2,2.56,2.56,0,0,1-.29-2A2.48,2.48,0,0,1,38,109.51a2.72,2.72,0,0,1,1.57,3.44c-0.89,3.33-5.26,3.21-8,2.48a7.54,7.54,0,0,1-5.11-4.21,9,9,0,0,1-.77-3.53,13.06,13.06,0,0,1,.9-4c1.76-4.5,5.59-7.12,9.81-5.62a8.26,8.26,0,0,1,3.3,2.29l2.88-1.8-0.35-3.28a8.42,8.42,0,0,1-3.89-1.11A7,7,0,0,1,35,89.24a8.85,8.85,0,0,1,1.27-6.36c3.23-5.14,8.17-6.62,12.21-3.7,2.33,1.66,5.19,5,3.36,7.9a2.79,2.79,0,0,1-3.73,1,2.41,2.41,0,0,1-1-3.46,2.49,2.49,0,0,1,1.67-1.13,2,2,0,0,0,1.23-.43c0.49-.78-0.72-1.89-1.26-2.26C45.45,78.41,42.67,82.2,41,85c-1.62,2.29-4,7.1-.39,8.5,2.45,1,4.72-1.11,6.13-2.91l0.07,0c-0.8,2.3-1.49,6.86.4,9.71l2-4.06a30.29,30.29,0,0,1,2.18-4l4.85-7.69Z" transform="translate(-5.95 -8.8)"/><path class="cls-6" d="M63,89.37l-3.69-2.6a105,105,0,0,1,25.2-24.9l2.58,3.71A100.44,100.44,0,0,0,63,89.37Z" transform="translate(-5.95 -8.8)"/><path class="cls-6" d="M83.19,60A107.25,107.25,0,0,0,57.42,85.46l-1.17-.82,5.6-7.14a30,30,0,0,1,3-3.39L68,70.84c-3.21-.88-7.43,1.41-9.25,2.86l-0.06-.05c1.2-1.9,2.39-4.74.65-6.72-2.6-3-6.38,1.09-8,3.39C49,73.17,47,76.23,50.16,78.9c0.52,0.47,1.92,1.24,2.53.45a2.12,2.12,0,0,0,0-1.27,2.42,2.42,0,0,1,.5-2,2.39,2.39,0,0,1,3.56-.22,2.76,2.76,0,0,1,.35,3.81c-2.13,2.72-6.23,1.07-8.55-.54-4.11-2.82-4.4-7.94-.59-12.72a8.69,8.69,0,0,1,5.52-3.34,7,7,0,0,1,5.7,1.49A8.44,8.44,0,0,1,61.5,67.9l3.23-.8,0.7-3.29a8.24,8.24,0,0,1-3.26-2.34c-2.84-3.47-1.63-8,2-11.19a13.09,13.09,0,0,1,3.51-2.18,9.1,9.1,0,0,1,3.59-.45,7.55,7.55,0,0,1,5.7,3.4c1.62,2.36,3.12,6.44.32,8.38a2.75,2.75,0,0,1-3.79-.29,2.52,2.52,0,0,1,.21-3.66,2.63,2.63,0,0,1,2-.41,2.17,2.17,0,0,0,1.33.06c0.75-.52,0-2-0.37-2.51-2.35-3.36-6.5-1.07-8.86,1.26-2.11,1.84-6.31,5.18-3.35,7.77,2,1.72,5,.76,6.9-0.5l0.05,0.06c-1.51,1.92-4,5.66-3,9.19a70.76,70.76,0,0,1,6.73-6.08c1.16-1,2.27-2,3.48-2.91l3.73-2.58Z" transform="translate(-5.95 -8.8)"/><path class="cls-6" d="M87.07,65.57l-2.58-3.71a102.94,102.94,0,0,1,32.12-14.93l1.15,4.37A98.42,98.42,0,0,0,87.07,65.57Z" transform="translate(-5.95 -8.8)"/><path class="cls-6" d="M116,44.73A105.21,105.21,0,0,0,83.19,60l-0.82-1.17,3.72-2.58c1.23-.87,2.62-1.5,3.92-2.27,2.68-1.4,5.19-3.12,8-4.19-2.83-2.17-7.38-1.08-9.62-.4l0-.07C90.2,48,92.16,45.48,91.22,43c-1.44-3.75-6.18-.82-8.64.52a23.22,23.22,0,0,0-2.33,1.38,7.58,7.58,0,0,0-1.68,1.78,4.08,4.08,0,0,0,0,4.58c0.33,0.62,1.38,1.82,2.2,1.25a2.28,2.28,0,0,0,.38-1.24,2.55,2.55,0,0,1,1.09-1.74,2.43,2.43,0,0,1,3.45,1.06,2.78,2.78,0,0,1-1,3.67c-2.83,2-6.1-.94-7.72-3.25a7.51,7.51,0,0,1-1.21-6.5,9.28,9.28,0,0,1,1.68-3.2,11.93,11.93,0,0,1,3.28-2.54c4.25-2.3,8.86-1.86,11.13,2a8.26,8.26,0,0,1,1.06,3.87l3.36,0.47,1.84-2.74a8.41,8.41,0,0,1-2.27-3.35,7,7,0,0,1,.6-5.87,8.83,8.83,0,0,1,5.07-4c5.77-1.89,10.5.1,11.74,5a10.6,10.6,0,0,1,.21,4.67,4.17,4.17,0,0,1-2.73,3.48,2.77,2.77,0,0,1-3.48-1.63,2.43,2.43,0,0,1,1.48-3.28,2.48,2.48,0,0,1,2,.2,2,2,0,0,0,1.21.46c0.87-.28.66-1.92,0.49-2.55-1.06-4-5.62-2.85-8.73-1.75-2.71.75-7.63,2.84-5.76,6.25,1.26,2.33,4.32,2.16,6.57,1.73l0,0.07c-2.1,1.21-5.56,4.29-5.94,7.68l4.16-1.81A29.41,29.41,0,0,1,107,46.08c2.89-.89,5.74-2,8.66-2.73Z" transform="translate(-5.95 -8.8)"/><path class="cls-6" d="M117.76,51.31l-1.15-4.37A100.11,100.11,0,0,1,151.93,44l-0.4,4.5A95.59,95.59,0,0,0,117.76,51.31Z" transform="translate(-5.95 -8.8)"/><path class="cls-6" d="M152.13,41.73a102.38,102.38,0,0,0-36.11,3l-0.37-1.38,8.85-2,9-1.13c-1.9-2.75-6.57-3.5-8.92-3.71V36.46c2.17-.54,4.88-2.12,4.83-4.72-0.07-3.94-5.57-3.17-8.31-2.6-3.62.72-7.11,1.82-6.42,5.9,0.1,0.69.67,2.18,1.65,2a2.16,2.16,0,0,0,.79-1,2.45,2.45,0,0,1,1.64-1.2,2.35,2.35,0,0,1,2.86,2.09,2.8,2.8,0,0,1-2.18,3.18c-3.37.75-5.45-3.14-6.19-5.86-1.33-4.8,1.73-9,7.71-10.22,4.77-.7,9,1.6,9.79,5.83a8.51,8.51,0,0,1-.32,4l3,1.42a30.67,30.67,0,0,1,2.66-1.94,8.57,8.57,0,0,1-1-3.95c0.07-4.32,3.89-7.16,8.72-7.35,6.07,0.12,9.82,3.95,9.32,8.85-0.27,2.85-1.74,7-5.14,6.73a2.9,2.9,0,0,1-2.72-2.82,2.33,2.33,0,0,1,2.5-2.5,2.57,2.57,0,0,1,1.81.94,2.1,2.1,0,0,0,1,.88c0.91,0.06,1.27-1.54,1.33-2.19,0.36-4.08-4.31-4.83-7.6-4.8-2.8.11-8.15,0.07-7.55,4,0.39,2.58,3.33,3.73,5.6,3.93v0.08c-2.39.6-6.7,1.91-8.21,5.08,3-.2,6.05-0.2,9.08-0.31s6,0.33,9.07.45Z" transform="translate(-5.95 -8.8)"/><path class="cls-6" d="M151.52,48.5l0.4-4.5a102.89,102.89,0,0,1,34.16,9.27l-1.93,4.09A98.37,98.37,0,0,0,151.52,48.5Z" transform="translate(-5.95 -8.8)"/><path class="cls-6" d="M187.06,51.21a105.17,105.17,0,0,0-34.93-9.48l0.13-1.43a71.23,71.23,0,0,1,9,1.22c1.49,0.27,3,.44,4.46.79l4.37,1.18c-0.82-3.32-4.91-5.82-7.1-6.54V36.88a9.08,9.08,0,0,0,3.63-.58A3.76,3.76,0,0,0,169.15,34c0.63-1.86-.37-3.17-1.93-3.92a22.4,22.4,0,0,0-5-1.24,12.88,12.88,0,0,0-5.09-.23,4,4,0,0,0-2.94,3.5c-0.15.69-.11,2.27,0.88,2.34a2.57,2.57,0,0,0,1.09-.71,2.36,2.36,0,0,1,1.94-.5,2.45,2.45,0,0,1,2,3,2.67,2.67,0,0,1-3.12,2.14c-3.41-.54-4.07-4.62-3.83-7.5a7.69,7.69,0,0,1,3.25-5.82c1.88-1.27,4.49-1.62,7.48-1.12a9.18,9.18,0,0,1,5.68,3,7.18,7.18,0,0,1,1.55,5.73,8.35,8.35,0,0,1-1.68,3.67l2.29,2.46,3.18-1a8.32,8.32,0,0,1,.41-4,7.21,7.21,0,0,1,4.25-4.17,9.66,9.66,0,0,1,6.45.27c2.81,1.09,4.89,2.69,5.86,4.77a7.7,7.7,0,0,1-.13,6.68c-1.26,2.64-3.95,5.76-7.12,4.51a2.7,2.7,0,0,1-1.64-3.43,2.49,2.49,0,0,1,3.26-1.61,2.43,2.43,0,0,1,1.42,1.41,2.32,2.32,0,0,0,.61,1.19c0.82,0.41,1.7-1,2-1.56a3.74,3.74,0,0,0-.9-4.58,14.48,14.48,0,0,0-4.64-2.41,21,21,0,0,0-4.88-1.39,3,3,0,0,0-3.53,2.39,3.84,3.84,0,0,0,1,3.32,8.87,8.87,0,0,0,2.87,2.35l0,0.07a15.22,15.22,0,0,0-4.67-.13,9,9,0,0,0-4.79,2.16L175,44.83l4.25,1.6a67.17,67.17,0,0,1,8.37,3.49Z" transform="translate(-5.95 -8.8)"/><path class="cls-6" d="M184.16,57.36l1.93-4.09c2.62,1.4,5.39,2.5,7.89,4.11l7.54,4.76,7,5.5c2.35,1.82,4.33,4.06,6.52,6.05l-3.2,3.19c-2.1-1.9-4-4.05-6.23-5.79l-6.71-5.26-7.21-4.55C189.32,59.74,186.66,58.7,184.16,57.36Z" transform="translate(-5.95 -8.8)"/><path class="cls-6" d="M216.67,72.08c-2.24-2-4.26-4.33-6.67-6.19l-7.17-5.62-7.7-4.86c-2.56-1.64-5.39-2.78-8.07-4.2l0.61-1.29c2.67,1.41,5.48,2.56,8,4.17l7.67,4.84c0.31-3.31-2.82-6.85-4.5-8.5l0-.07c2,1,5.14,1.46,6.77-.56,2.52-3.12-2.32-5.85-4.67-7.37-3.23-1.79-6.66-3.09-8.75.47-0.37.59-.89,2.1,0,2.55a2.22,2.22,0,0,0,1.26-.28,2.5,2.5,0,0,1,2,.11,2.31,2.31,0,0,1,.86,3.41,2.86,2.86,0,0,1-3.73,1.07c-3.09-1.54-2.19-5.84-1-8.4,2-4.49,7.17-5.88,12.5-2.9,4.07,2.59,5.89,7,3.76,10.73a8.56,8.56,0,0,1-2.85,2.9l1.39,3,3.24,0.28a8.55,8.55,0,0,1,1.77-3.66c2.83-3.27,7.59-3,11.43-.07,4.54,4,5,9.34,1.44,12.78-2,2-5.81,4.22-8.27,1.85a2.89,2.89,0,0,1-.27-3.9,2.33,2.33,0,0,1,3.53-.31,2.57,2.57,0,0,1,.79,1.88,2.1,2.1,0,0,0,.19,1.3c0.66,0.64,2-.36,2.43-0.83,2.91-2.9-.22-6.45-2.72-8.58-2.22-1.7-6.31-5.15-8.35-1.79-1.36,2.22.17,5,1.78,6.59l0,0.06c-2.2-1.09-6.42-2.77-9.54-1.4L211,64.89c2.38,1.87,4.41,4.14,6.65,6.18Z" transform="translate(-5.95 -8.8)"/><path class="cls-6" d="M211.85,76.88l3.2-3.19a102.9,102.9,0,0,1,20.22,29.05l-4.1,1.89A98.37,98.37,0,0,0,211.85,76.88Z" transform="translate(-5.95 -8.8)"/><path class="cls-6" d="M237.34,101.79a105.17,105.17,0,0,0-20.68-29.7l1-1a67,67,0,0,1,6.09,6.7l2.93,3.46L229.28,85a8.7,8.7,0,0,0,.43-5.22A15.91,15.91,0,0,0,228,75.39l0.06,0a8.8,8.8,0,0,0,3.15,1.89,3.86,3.86,0,0,0,3.46-.16,3,3,0,0,0,1-4.23,22.44,22.44,0,0,0-3-4.19A12.87,12.87,0,0,0,229,65.2a4.06,4.06,0,0,0-4.51.81c-0.55.43-1.54,1.67-.83,2.36a2.43,2.43,0,0,0,1.3.14,2.36,2.36,0,0,1,1.8.87,2.46,2.46,0,0,1-.45,3.59,2.67,2.67,0,0,1-3.76-.37c-2.28-2.59-.16-6.15,1.88-8.19A7.69,7.69,0,0,1,230.62,62c2.28,0.21,4.48,1.65,6.45,3.95a9.49,9.49,0,0,1,2.44,5.94A7.21,7.21,0,0,1,237,77.31,8.34,8.34,0,0,1,233.36,79l0.17,3.36,3.06,1.3a8.34,8.34,0,0,1,2.89-2.81,7.18,7.18,0,0,1,5.93-.46,9.34,9.34,0,0,1,4.78,4.34c1.45,2.64,2,5.22,1.43,7.42a7.7,7.7,0,0,1-4.38,5c-2.67,1.22-6.72,1.87-8.37-1.12a2.71,2.71,0,0,1,1-3.69,2.48,2.48,0,0,1,3.53.86,2.43,2.43,0,0,1,.18,2,2.43,2.43,0,0,0-.29,1.3c0.37,0.84,1.92.36,2.52,0.08A3.7,3.7,0,0,0,248,92.57a14.48,14.48,0,0,0-2-4.83,21,21,0,0,0-2.83-4.2c-1.23-1.16-2.76-1.63-4.27-.42a3.76,3.76,0,0,0-1.34,3.19,9.22,9.22,0,0,0,.7,3.64l-0.07,0c-1.47-1.92-5.07-4.8-8.56-4.52l2.59,3.73c0.82,1.27,1.49,2.63,2.25,3.94a71.47,71.47,0,0,1,4.17,8.06Z" transform="translate(-5.95 -8.8)"/><path class="cls-6" d="M231.17,104.63l4.1-1.89A100.11,100.11,0,0,1,244.39,137l-4.5.38A95.6,95.6,0,0,0,231.17,104.63Z" transform="translate(-5.95 -8.8)"/><path class="cls-6" d="M246.66,136.8a102.4,102.4,0,0,0-9.31-35l1.3-.6c1.13,2.8,2.57,5.48,3.47,8.37s1.93,5.73,2.75,8.64c2.47-2.37,2.24-7.05,2-9.4l0.07,0c0.94,2,3,4.41,5.58,3.91,3.93-.77,2-6,1.12-8.64-1.28-3.46-3.11-6.66-7-5.27-0.66.21-2,1-1.63,2a2.22,2.22,0,0,0,1.14.6,2.5,2.5,0,0,1,1.49,1.39,2.31,2.31,0,0,1-1.53,3.16,2.86,2.86,0,0,1-3.55-1.58c-1.38-3.16,2.07-5.88,4.63-7.08,4.44-2.12,9.29.09,11.43,5.81,1.48,4.59.08,9.11-4,10.63a8.59,8.59,0,0,1-4.05.39,30.86,30.86,0,0,1-.93,3.19l2.33,2.29a8.49,8.49,0,0,1,3.71-1.66c4.25-.68,7.85,2.57,8.83,7.29,0.77,6-2.1,10.34-7.07,10.7-2.85.23-7.18-.5-7.6-3.89a2.83,2.83,0,0,1,2.25-3.16,2.38,2.38,0,0,1,2.94,2,2.52,2.52,0,0,1-.58,1.95,2,2,0,0,0-.68,1.12c0.11,0.91,1.75,1,2.41.93,4.12-.36,3.85-5.05,3.36-8.31-0.42-2.76-1.55-8-5.22-6.75-2.47.83-3,3.92-2.82,6.18H251.5c-1-2.25-3.21-6.23-6.5-7.19l2,8.87,1.12,9Z" transform="translate(-5.95 -8.8)"/><path class="cls-6" d="M239.89,137.38l4.5-.38a102.93,102.93,0,0,1-3.26,35.27l-4.36-1.18A98.41,98.41,0,0,0,239.89,137.38Z" transform="translate(-5.95 -8.8)"/><path class="cls-6" d="M243.33,172.86a105.22,105.22,0,0,0,3.33-36.06l1.43-.12c0.26,3,.21,6,0.34,9.06a29.18,29.18,0,0,1-.11,4.53L248,154.79c3-1.39,4.81-5.86,5.24-8.14h0.08c0.35,2.23,1.22,5.17,3.84,5.57,3.93,0.61,4.15-4.93,3.94-7.73,0-3.7-.45-7.33-4.58-7.35-0.7,0-2.27.29-2.24,1.28a2.11,2.11,0,0,0,.84,1,2.43,2.43,0,0,1-1.73,4.28,2.74,2.74,0,0,1-2.7-2.7,4.14,4.14,0,0,1,2.37-3.74,10.75,10.75,0,0,1,4.46-1.34c5.07-.49,8.54,3.25,8.66,9.36a8.67,8.67,0,0,1-2.07,6.11,7,7,0,0,1-5.32,2.52,8.44,8.44,0,0,1-3.92-1l-2,2.69,1.58,3a8.24,8.24,0,0,1,4-.3c4.4,0.83,6.36,5.07,5.66,9.85a12,12,0,0,1-1.3,3.92,9.39,9.39,0,0,1-2.46,2.66,7.53,7.53,0,0,1-6.54,1.06c-2.75-.76-6.53-2.92-5.64-6.22a2.81,2.81,0,0,1,3.12-2.21,2.46,2.46,0,0,1,2.16,2.93,2.62,2.62,0,0,1-1.27,1.61,2.16,2.16,0,0,0-1.06.81c-0.24.89,1.27,1.52,1.9,1.68,3.93,1.06,5.69-3.36,6-6.66,0.43-2.77,1.48-8-2.45-8.11-2.61-.06-4.31,2.63-4.95,4.82h-0.08c-0.1-2.45-.58-6.91-3.61-9-0.06,3-.83,6-1.25,9-0.28,1.49-.41,3-0.82,4.46l-1.18,4.38Z" transform="translate(-5.95 -8.8)"/><path class="cls-6" d="M236.77,171.08l4.36,1.18a105,105,0,0,1-15,32.11l-3.69-2.6A100.44,100.44,0,0,0,236.77,171.08Z" transform="translate(-5.95 -8.8)"/><path class="cls-6" d="M228,205.68a107.25,107.25,0,0,0,15.32-32.83l1.38,0.37-1.17,4.38c-0.45,1.44-1.05,2.83-1.57,4.25a71,71,0,0,1-3.46,8.37c3.57-.15,6.36-3.91,7.63-5.87l0.07,0c-0.54,2.18-.42,5.36,1.86,6.63,3.51,1.94,5.25-3.35,6.27-6,1.52-3.39,1.94-7.08-1.89-8.5-0.65-.26-2.22-0.51-2.48.46a2.3,2.3,0,0,0,.51,1.2,2.56,2.56,0,0,1,.29,2,2.48,2.48,0,0,1-3.36,1.39,2.72,2.72,0,0,1-1.57-3.44c0.89-3.33,5.26-3.21,8-2.48a7.54,7.54,0,0,1,5.11,4.21,9,9,0,0,1,.77,3.53,13.06,13.06,0,0,1-.9,4c-1.76,4.5-5.59,7.12-9.81,5.62a8.26,8.26,0,0,1-3.3-2.28l-2.88,1.8,0.35,3.28a8.42,8.42,0,0,1,3.89,1.11,7,7,0,0,1,3.31,4.89,8.85,8.85,0,0,1-1.27,6.36c-3.23,5.14-8.17,6.62-12.21,3.7-2.33-1.66-5.19-5-3.36-7.9a2.79,2.79,0,0,1,3.73-1,2.41,2.41,0,0,1,1,3.46,2.49,2.49,0,0,1-1.67,1.13,2,2,0,0,0-1.23.43c-0.49.78,0.72,1.89,1.26,2.26,3.38,2.38,6.16-1.42,7.84-4.24,1.62-2.29,4-7.1.39-8.5-2.45-1-4.72,1.11-6.13,2.91l-0.07,0c0.8-2.3,1.49-6.86-.4-9.71l-2,4.06a30.27,30.27,0,0,1-2.18,4l-4.85,7.69Z" transform="translate(-5.95 -8.8)"/><path class="cls-3" d="M172.84,213.39a37.6,37.6,0,0,0,8.12-4.25,16.88,16.88,0,0,0,4.47-5.38c0.47-1.17.85-2.37,1.42-3.51,0.69-1.39,1.63-2.66,2.41-4a31.22,31.22,0,0,1,3.15-4.08,24.61,24.61,0,0,0,3.27-4,1.84,1.84,0,0,1-.33-0.1,8,8,0,0,1-1.56-1.12s0-.06,0-0.05a2,2,0,0,1,.66.33,2.56,2.56,0,0,0,.55.27c0.09,0,.25,0,0.18.11a0.51,0.51,0,0,1,.18-0.13,0.33,0.33,0,0,1,.33,0l0,0a4.28,4.28,0,0,0,.18-0.41l0,0a30.49,30.49,0,0,1,1-3.25c-0.48-2.37.67-4,2-6,1.09-1.58,1.78-3.51,3.88-3.63a10.09,10.09,0,0,0,.45-1c0.86-2.3-.73-3.6-2.48-4.62-3.54-1.14-6.81,1.38-9,4.51-1.09,1.55-2,3.21-3,4.83-0.5.81-1,1.6-1.52,2.42-0.22.37-.41,0.75-0.6,1.12l-0.32.78a4.7,4.7,0,0,0-.22,1.86c0.05,0.88,1.48,1.3,2,1.73a0.08,0.08,0,0,1-.05.14,3.49,3.49,0,0,1-2.83-2.08l-0.24.38a2.79,2.79,0,0,1,.63.66,0,0,0,0,1,0,.08,2.46,2.46,0,0,0-.49-0.07,4.32,4.32,0,0,1-.46.1,1.44,1.44,0,0,0-.33.12,20,20,0,0,1-2.49,2.28c-1.7,1.39-2.83,3.43-4.18,5.13a15.27,15.27,0,0,1-1.24,1.27h0a4.18,4.18,0,0,0,.6,3c0.33,0.4.74,0.73,1.06,1.14a7.89,7.89,0,0,0,1.58,1.73,0,0,0,0,1,0,.08,3.68,3.68,0,0,1-1.3-1.09,18.89,18.89,0,0,0-2-2,2.59,2.59,0,0,1-.74-1c0,0.28-.08.56-0.11,0.85l0,0a0.34,0.34,0,0,1,.52.12c0.07,0.14.16,0.25,0.23,0.38a0,0,0,0,1,0,0c-0.48-.1-0.72.73-0.88,1.08l0,0.09c0,0.1,0,.2,0,0.3s0,0.3,0,.44a7.53,7.53,0,0,1,1.34-.78,0.21,0.21,0,0,1,.3,0,5.4,5.4,0,0,1,.41.43,0.05,0.05,0,0,1-.06.08,1.5,1.5,0,0,0-.36-0.13,6.63,6.63,0,0,0-.63,1,6.13,6.13,0,0,1-.84,1.36c-0.06.12-.11,0.23-0.16,0.35s-0.06.53-.11,0.81c-0.68,3.75-3.22,6.16-6.17,8.34-1.48,1.09-2.92,2.32-4.38,3.52a28.52,28.52,0,0,1,2.9-1c2-.62,4-1,6-1.72s3.65-1.46,5.47-2.17a0,0,0,0,1,0,0,86.08,86.08,0,0,1-9.46,4.22c-1.54.59-3.13,1-4.66,1.68-0.92.39-1.87,1.14-2.86,1.6,0.38-.11.76-0.22,1.16-0.3A56.87,56.87,0,0,0,172.84,213.39Zm15.32-28.57c-0.69-.27-0.88-0.39-0.84-1l0,0.06h0a0.36,0.36,0,0,1-.66,0c-0.69-1.65,1.86-4.57,2.67-5.93a31.8,31.8,0,0,1,2.49-3.53,40.08,40.08,0,0,1,2.53-3.29s0.07,0,0,0c-1.39,1.92-2.67,4-4,6.05a27.28,27.28,0,0,0-3,6.28c0.27,0.39.56,0.76,0.83,1.15A0.08,0.08,0,0,1,188.16,184.82Zm-9,13.3a7.4,7.4,0,0,1-1.91-2.44,0.89,0.89,0,0,1,.1-0.93c0.29-.6.13-1.53,0.52-2.06s1.14-.93,1.56-1.42c0.63-.74,1.24-1.49,1.88-2.23a11.78,11.78,0,0,1,3.69-2.94s0.06,0,0,.05c-2.3,1.6-3.77,3.76-5.37,6a17.08,17.08,0,0,0-1.66,3,4.34,4.34,0,0,0,.66,1.81,11.11,11.11,0,0,1,.68,1C179.4,198.12,179.26,198.19,179.19,198.12Zm3.62,6.57c1-.53.28,0.76,1.31-1.21a19.1,19.1,0,0,1,1.39-2.52,0.06,0.06,0,0,1,.11.06c-0.46,1-.87,2.1-1.34,3.12-0.12.25-.29,1.14-0.75,1.26-0.2,0-.41,1-0.67,1.22a12,12,0,0,1-2.3,1.33,0,0,0,0,1,0-.06c0.69-.64,1.6-1.18,1.75-2.19A1.42,1.42,0,0,1,182.81,204.7Z" transform="translate(-5.95 -8.8)"/><path class="cls-3" d="M97.17,244.43a10.68,10.68,0,0,0-.38-1.45c-0.47-1.21-.58.41-0.52,0.75a9.06,9.06,0,0,0,.24.93,5.86,5.86,0,0,1,.2,1.65c0,0.26,0,.52,0,0.78a8.43,8.43,0,0,1-.68,3.7l0.59,0.39A14,14,0,0,0,97.17,244.43Z" transform="translate(-5.95 -8.8)"/><path class="cls-3" d="M197.82,181.74a20.86,20.86,0,0,1,2.73-4.26,22.41,22.41,0,0,0,1.88-2.56,8.16,8.16,0,0,0-3.15,3A8.69,8.69,0,0,0,197.82,181.74Z" transform="translate(-5.95 -8.8)"/><path class="cls-3" d="M64.77,218.2l0.12,0a52.47,52.47,0,0,1,8-6.1s0.06,0,0,0a64.33,64.33,0,0,0-8.07,7.43,1.26,1.26,0,0,0-.2.27,116.39,116.39,0,0,0,12,14.74l0.1-.05a11.14,11.14,0,0,1,2.78-1.16,0.06,0.06,0,0,1,0,.12,16.14,16.14,0,0,0-2.34,1.68l1.38,1.39c0.21-.09.43-0.17,0.64-0.28a34.89,34.89,0,0,1,6.09-2.62h0a37.94,37.94,0,0,0-5.93,3.67l0.88,0.85c1-.44,2-0.77,3-1.25,2.49-1.25,5.26-2,7.55-3.62a0,0,0,0,1,0,0c-1.75,1.61-3.9,2.54-5.89,3.82-0.85.54-1.69,1.11-2.49,1.72a9.37,9.37,0,0,0,1.09-.1,12.79,12.79,0,0,0,2.5-.7c0.63-.31,1.3-0.56,1.94-0.82l1.71-.78a0.12,0.12,0,0,1,.09,0l0.49-.18,0.78-.37a20.82,20.82,0,0,1,9.42-1.85c2.12,0,4.24.17,6.34,0.13,4.46-.08,9-0.54,13.38-1,3.83-.43,7.61-1.21,11.43-1.68A88.59,88.59,0,0,0,142,230a14.44,14.44,0,0,0,5.08-2.25,32.2,32.2,0,0,0,3.75-3.67c0.37-.38.76-0.74,1.15-1.09a49.56,49.56,0,0,1,9-9.48c3.69-3.13,7-6.82,10.67-9.89l0.14-.12a0.46,0.46,0,0,1,.67.63c-3.13,3.8-7.49,6.54-11.16,9.78a51.9,51.9,0,0,0-4.27,4.3l0.44-.34c1.53-1.16,3.29-1.92,4.77-3.17a25.2,25.2,0,0,1,3.15-2.25c0.58-.47,1.17-0.93,1.77-1.38a20.15,20.15,0,0,0,6.06-6.27,11.67,11.67,0,0,0,.5-1.66,4.63,4.63,0,0,0,.08-1.09,3.27,3.27,0,0,0-1.13-1c-0.35-.15-0.73-0.26-1.09-0.38h-0.07a0.88,0.88,0,0,1-.6-0.13c-0.22-.12,0-0.42.16-0.42a2.16,2.16,0,0,1,.84.36c0.27,0.11.54,0.19,0.81,0.28l0.5,0.09c0.16-.06.32-0.06,0.49-0.14a1.65,1.65,0,0,0,.83-1.19c0-.05,0-0.1,0-0.16a3.32,3.32,0,0,1,0-1.07s0-.07,0-0.11a5.16,5.16,0,0,1,0-.88,61.05,61.05,0,0,0-.71-6.23c-0.56-3.85-.67-7.62-2-11.32-0.43-1-.82-2-1.22-3a22,22,0,0,0-2.92-4.79,1.7,1.7,0,0,1-.13.42c-0.4.87-1.42,0.13-1.81-.25a14.54,14.54,0,0,1-2.56-3.56,10.32,10.32,0,0,1-1.16-2.72,1.59,1.59,0,0,1,.35-0.73,2.57,2.57,0,0,0,.71-2.27c0-.09,0-0.19,0-0.28a7.46,7.46,0,0,0-1-.9,3.82,3.82,0,0,0-2.42-.33,3.62,3.62,0,0,0-1.77.86,6.87,6.87,0,0,0-.92,5.36,16.83,16.83,0,0,0,2.06,5.28,31.65,31.65,0,0,1,2.25,5c0.68,2.05,1.64,4.39,3.8,5.25a0.18,0.18,0,0,1-.05.34c-1,.73-0.84,2.27-0.86,3.38a29.89,29.89,0,0,1-.5,4.19,10.31,10.31,0,0,0,.69,5.51h0a4.75,4.75,0,0,1-.06-0.69,55.06,55.06,0,0,1,.51-7.48,0,0,0,0,1,.06,0,52.81,52.81,0,0,0,.07,5.82c0.09,1.64.11,3,1.23,4.35a0.17,0.17,0,0,1,0,.17c0.32,0.21.66,0.4,1,.61,0,0,0,.13,0,0.12l-0.69-.17a5.16,5.16,0,0,0-3.17.28,2.58,2.58,0,0,0-.68.48c-1.15,1.73-1.32,4.27-1.69,6.3a8.17,8.17,0,0,1-1.28,3.2,41,41,0,0,1-5.55,6.91c-0.91,1-1.87,1.91-2.82,2.86a27,27,0,0,0-3.34,4.48,0,0,0,0,1-.08,0c0.34-2.36,2.23-4.22,3.78-5.9,1.89-2,3.6-4.21,5.37-6.36,0.94-1.14,2.32-2.32,2.63-3.84a9.7,9.7,0,0,0,.17-1.63h0a1.6,1.6,0,0,0-.6-0.46,2.34,2.34,0,0,0-.64-0.18l-0.26,0c-1.6.38-3.3,1.25-4.8,0.53-0.05,0,0-.11,0-0.1a6.9,6.9,0,0,0,3.86-.64c0.3-.12.62-0.29,0.93-0.43,0.37-.45.82-0.85,1.18-1.3a2.56,2.56,0,0,0,.43-0.77,9,9,0,0,0-.54-3.91,28,28,0,0,1-1-3.06,26.08,26.08,0,0,1-1.16-4.77c-0.1-.21-0.2-0.43-0.32-0.63a3.81,3.81,0,0,0-1.25-1.19,5.22,5.22,0,0,0-1.64.1h0a0.5,0.5,0,0,1-.43,0,0.12,0.12,0,0,1,0-.13,0.44,0.44,0,0,1,.48-0.17,0.11,0.11,0,0,1,.08,0,2.93,2.93,0,0,1,.82-0.32c0.56-.44,1.2-0.73,1.14-1.56a4.05,4.05,0,0,0-.34-1.17,1.55,1.55,0,0,0-.36-0.21,1.57,1.57,0,0,0-.79-0.22,5,5,0,0,0-.82.23,0,0,0,0,1,0-.07,2.19,2.19,0,0,1,1-.64,1.47,1.47,0,0,0,.1-0.59v0a18.35,18.35,0,0,0-3.41-2.82c-0.38-.27-0.74-0.55-1.08-0.85a0,0,0,0,1-.06,0l-0.12-.16c-0.16-.15-0.32-0.3-0.47-0.45-0.92-.72-2.28-1.07-3.13-1.94-1.16-1.18-2.61-2.17-3.41-3.64a0.28,0.28,0,0,1,.08-0.33,4.49,4.49,0,0,0,1-1.5c-1.52-.63-3.25.11-4.44,1.56a25.64,25.64,0,0,0-.86,3.89,9.36,9.36,0,0,0,1.79,5.71,25.08,25.08,0,0,0,3.44,3.5c0.67,0.69,1.35,1.44,2,2.21a11.78,11.78,0,0,0,1.26,1.09c0.72,0.11,1.11-.88,1.85-0.56a0.09,0.09,0,0,1,0,.18h0v0l0,0a3.44,3.44,0,0,0-1.58,1.73c-0.1.35-.22,0.69-0.34,1a19.89,19.89,0,0,0-.4,3.82,8.15,8.15,0,0,0,1.19,3.4,11.92,11.92,0,0,0,1.64,1.89,12.38,12.38,0,0,1,1.38.86,0,0,0,0,1,0,0,5.36,5.36,0,0,1-1.24-.3l-0.22-.08a8.84,8.84,0,0,0-1.7-.51,1.13,1.13,0,0,0-.54,0,6.75,6.75,0,0,1-1,.76v0a11.14,11.14,0,0,0-2.85,3.83,12.54,12.54,0,0,0-.72,5.69,10.28,10.28,0,0,1,.24,1.51l0.1,0.47c0.13,0.61.5,1.66,0.1,2.24a0.22,0.22,0,0,1-.14.1,0.3,0.3,0,0,1-.5-0.12,11.3,11.3,0,0,1-.26-2,9.53,9.53,0,0,0-.83-2.57,6.26,6.26,0,0,0-4.41-3.38c-3.7-.7-5.51,3-6.82,5.88a27.62,27.62,0,0,1-1,4.65,0.29,0.29,0,0,1-.56-0.13,0.31,0.31,0,0,1-.05-0.15,8.87,8.87,0,0,1,.17-1.87,12.89,12.89,0,0,0-.59-2.71,9.68,9.68,0,0,0-2.75-3.66c-2-1.7-4.7-2-6.69-3.67-1-.81-1.53-1.91-2.59-2.68a19.19,19.19,0,0,0-4.95-2.08,32.26,32.26,0,0,1-6.46-2.65c-1-.34-2-0.67-3.08-0.93-2.33-.57-4.7-1-7.06-1.5a0.3,0.3,0,0,1-.28.17,4.12,4.12,0,0,1-.46-0.1,0.26,0.26,0,0,1-.09-0.5,0.67,0.67,0,0,1,.75.08,0.29,0.29,0,0,1,.11.28,67.5,67.5,0,0,1,10.46,2.12,32.62,32.62,0,0,0,6.07,1.54,32.13,32.13,0,0,0,6.05,0c1.69-.13,3.39-0.24,5.08-0.28,3.07-.76,6.38-1.5,7.75-4.79,1.07-2.55-.6-5.82-1.88-7.93,0,0,0-.06,0-0.05a0.14,0.14,0,0,1,.19-0.1,16.52,16.52,0,0,0,3.5,1.18,8.22,8.22,0,0,0,3.44-.42,5.88,5.88,0,0,0,4.34-4.86l-0.14-.25-0.06-.13c-1.45,1.79-4,6.66-6.73,4.8a0.16,0.16,0,0,1,.06-0.28c0.91-.15,1.56.29,2.46-0.28a7.42,7.42,0,0,0,1.82-1.9,32.12,32.12,0,0,1,2-3.13h0a15.14,15.14,0,0,1-.71-2.46l-0.16-.35c-1,1-3.69,1.13-4.8,1.3a22.42,22.42,0,0,1-4,.24,48,48,0,0,1-6.16-.06,0,0,0,0,1,0-.06c1.52,0.15,3-.22,4.47-0.21a25.47,25.47,0,0,0,5-.33,13.89,13.89,0,0,0,3-.79,18.25,18.25,0,0,1,2.41-1.13l0-.31a3.29,3.29,0,0,1,0-.84c-3.43,2-7.63,1.72-11.47,1.83-5.35.15-10.82,0.35-16.13,1A40.6,40.6,0,0,0,97,184a34.86,34.86,0,0,0-9.15,7.1c0.86-.69,1.74-1.36,2.65-2,3.92-2.76,7.63-5.48,12.48-6.17,0,0,0,0,0,0-4.34,1.12-7.91,3.81-11.48,6.38a49.12,49.12,0,0,0-5.32,4.31,19.45,19.45,0,0,0-2.75,3.58,18.7,18.7,0,0,1,2.19-1.42s0.05,0,0,0c-0.68.65-1.32,1.37-1.94,2.08a3.45,3.45,0,0,0-.29.39c0.35-.07.69-0.13,1-0.17,1.39-.16,2.37-1.16,3.74-1.34a0,0,0,0,1,0,.07,9.42,9.42,0,0,0-2.42,1.44A4.24,4.24,0,0,1,85,199a7.22,7.22,0,0,0-1.93,2.91,22.93,22.93,0,0,0-1.48,6.68c0,0.1-.18.12-0.19,0a17.8,17.8,0,0,1,.63-5.66c0-1.36-.15-2.91-2-2.31a12.25,12.25,0,0,0-2.68,1.69,14.4,14.4,0,0,1-1.67,1.35c-1.64,1.09-3.11,2.4-4.72,3.53a0.12,0.12,0,0,1-.08,0l-1.11.83c-1.81,2-4.1,3.43-5.69,5.66a6.69,6.69,0,0,0-1.24,3.31l0.74,1.14A1.25,1.25,0,0,0,64.77,218.2ZM158,166.54a1.93,1.93,0,0,1-.34-1.13,10.36,10.36,0,0,0,.11-1.57,1.06,1.06,0,0,1,.57-1,5.81,5.81,0,0,1,1.27-.58,0.14,0.14,0,0,1,.14.22,0.6,0.6,0,0,1-.29.26c-0.73.1-.71,0.79-1,1.23a4.08,4.08,0,0,0-.35,2.52A0,0,0,0,1,158,166.54Zm7.57,15.81c-1.64-.25-2.15-2.17-2.79-3.44a43.48,43.48,0,0,1-2.5-6.73,0.1,0.1,0,0,1,.18-0.08c0.87,1.84,1.21,3.84,2.23,5.63,0.6,1.06,1.06,2.22,1.73,3.23,0.47,0.71,1.05.55,1.24,1.3A0.08,0.08,0,0,1,165.59,182.34Zm1.49,1a0.05,0.05,0,0,1,0,.07,0.46,0.46,0,0,1-.22,0,0.19,0.19,0,0,0-.23.08,0.05,0.05,0,0,1-.07,0l-0.21-.11a0.11,0.11,0,0,1,0,.1,0.43,0.43,0,0,1-.38.07,0.18,0.18,0,0,1-.22-0.1,0.88,0.88,0,0,1,0-.1,0.23,0.23,0,0,1,.36-0.22l0.13,0.07h0a1,1,0,0,0,.34.16c0.12-.22.32-0.17,0.54-0.07l0,0a0.26,0.26,0,0,1,0-.14,0.29,0.29,0,1,1,.54.17A0.29,0.29,0,0,1,167.08,183.38Zm6,7.26c-0.22-1.28-.49-2.55-0.76-3.82-0.12-.58.19-2.05-0.18-2.62a0.43,0.43,0,0,1-.54-0.07,1.1,1.1,0,0,1-.36-0.52,0.24,0.24,0,0,1,.24-0.34c-0.12,0,.64.09,0.43,0.17a0.31,0.31,0,0,1,.43.31,20.79,20.79,0,0,0,.29,3c0.17,1.7.74,3.41,1,5.1a33.43,33.43,0,0,1,.46,4.61,24.94,24.94,0,0,1,.09,2.61,4.07,4.07,0,0,1-.22.37,0.36,0.36,0,0,1,.07.24v0a0.39,0.39,0,0,1-.22.33,0.71,0.71,0,0,1-.2.05,0.46,0.46,0,0,1-.53-0.48c0-1.31.47-2.51,0.48-3.86A29.38,29.38,0,0,0,173,190.64Zm-9.9,11.84c0.29-.72.57-1.86,1.4-2.13,0-.11,0-0.22.08-0.35a0.3,0.3,0,0,1,.31-0.2c0.52,0.08,1,.27,1.52.35a0.07,0.07,0,0,1,0,.14c-0.47.14-1.27-.23-1.18,0.34a0.41,0.41,0,0,1-.32.46c-0.55.15-1.51,2.12-1.75,2.61-0.83,1.66-1.3,3.5-2.41,5a0.08,0.08,0,0,1-.13-0.07C161.4,206.55,162.28,204.53,163.12,202.49Zm-22.32-27.94a0.23,0.23,0,0,1-.37-0.14,0.81,0.81,0,0,1,.7-0.74,0.09,0.09,0,0,1,.09.14c-0.07.12-.15,0.24-0.2,0.37A0.67,0.67,0,0,1,140.81,174.55Zm1.25-1.44a0.24,0.24,0,0,1-.17.46A0.24,0.24,0,0,1,142.05,173.11Zm5.65,16.69c-1.13-.17-2.18-2-2.93-2.68a23.78,23.78,0,0,1-3.2-3.61,17.37,17.37,0,0,1-2-4c-0.47-1.15.27-2.74,0.65-3.8a0,0,0,0,1,.05,0,9.16,9.16,0,0,0-.08,3.6,11.74,11.74,0,0,0,2,4.43,17.85,17.85,0,0,0,2.82,3.07c0.46,0.41,1,.78,1.43,1.2a4,4,0,0,0,1,.69c0.49,0.45.62,0.52,0.37,0.23a0.21,0.21,0,0,1,.33.18c0,0.11,0,.23,0,0.34A0.38,0.38,0,0,1,147.7,189.8Zm5.46-.27a0.19,0.19,0,0,1,.13-0.36A0.19,0.19,0,0,1,153.16,189.53Zm3.86,4.24a0.16,0.16,0,0,1,.11-0.29A0.16,0.16,0,0,1,157,193.77Zm-26.15-6.95,0.48,0.25a4,4,0,0,1,.36.28,0.12,0.12,0,0,1,0,.21,2.18,2.18,0,0,1-.31.13,1,1,0,0,1-.49-0.11c-0.22-.09-0.76-0.38-0.61-0.7A0.39,0.39,0,0,1,130.86,186.82Zm-2.2-.54a0.29,0.29,0,0,1,.26.31,0.28,0.28,0,0,1-.1.2l-0.06,0h0a0.22,0.22,0,0,1-.23,0h0l-0.09-.07A0.29,0.29,0,0,1,128.66,186.28Zm-13.82-5.7c0.8-.29,1.36-0.88,2.25-0.67s2-.46,2.89.27c0,0,0,.09,0,0.08-1-.18-1.78.3-2.7,0.27a0.42,0.42,0,0,1-.33.14,10.36,10.36,0,0,1-2,.19C114.75,180.86,114.68,180.64,114.84,180.58Zm-29.3,43.78a0.31,0.31,0,0,1-.27,0,0.26,0.26,0,0,1,.18-0.48,0.32,0.32,0,0,1,.21.18A0.23,0.23,0,0,1,85.55,224.36Zm1.55,2a1,1,0,0,1-1-1.08,0.15,0.15,0,0,1,.16-0.1,0.93,0.93,0,0,1,.53.32c0.07,0.08.1,0.18,0.17,0.26a1.12,1.12,0,0,0,.3.23C87.53,226.14,87.31,226.43,87.1,226.38Zm9.94,5.5c-0.47-.21-2.61-1-3.16-0.6a1,1,0,0,1-1.06-.06,13,13,0,0,1-3.95-3.12,0.12,0.12,0,0,1,.16-0.17c1.43,0.93,2.92,1.31,4.31,2.31,1.05,0.75,2.64.73,3.74,1.56C97.11,231.84,97.08,231.9,97,231.88ZM99,229.61a1.36,1.36,0,0,1-.64.29,8.93,8.93,0,0,1-5.86-2.07c-2-1.44-4.11-2.62-5.8-4.49a0.13,0.13,0,0,1,.17-0.18,26.18,26.18,0,0,0,6,3.89c1.9,0.76,3.93.85,5.88,1.32a29.36,29.36,0,0,0,12.71.48c0.06,0,.1.09,0,0.11a21,21,0,0,1-6.4.9,22.19,22.19,0,0,1-3.59-.36C100.81,229.39,99.59,229.13,99,229.61Zm20.82,1.87a58.56,58.56,0,0,0-6.5.14,27.5,27.5,0,0,1-5,.21,14.85,14.85,0,0,0-5.58.41c-1.63.46-2.42,0.08-4-.29a0.19,0.19,0,0,1,0-.34c1.4-.49,2.5.32,3.9,0a15.33,15.33,0,0,1,5.11-.48,37.81,37.81,0,0,0,6.12-.12,56.09,56.09,0,0,1,6,.29C119.92,231.33,119.9,231.48,119.8,231.48Zm1.34-.05a0.33,0.33,0,0,1-.34-0.12,0.32,0.32,0,0,1,.19-0.52,0.31,0.31,0,0,1,.37.3A0.27,0.27,0,0,1,121.14,231.43Zm3.85-.76a5.19,5.19,0,0,1-1,.37,3.51,3.51,0,0,0-1.25.07,0.5,0.5,0,0,1-.55-0.14,0.08,0.08,0,0,1,0-.11c0.19-.14.31-0.36,0.5-0.51a1.58,1.58,0,0,1,1-.17,3.65,3.65,0,0,0,.88.12l1.21-.21a0.11,0.11,0,0,1,.08.18A2.11,2.11,0,0,1,125,230.67Zm5-1.13a0.09,0.09,0,0,1-.05-0.16c1.44-.83,3.43-0.91,5-1.22,2.34-.46,4.75-0.36,7.08-0.83a0,0,0,0,1,0,.06C138.2,228.84,134,228.65,130,229.53Zm16.48-4.22c0.13,0.66-1,1.08-1.48,1.22a18.9,18.9,0,0,1-2.38.59,0,0,0,0,1,0-.08c0.58-.36,1.2-0.65,1.78-1a7.15,7.15,0,0,1,1-.58,4.8,4.8,0,0,0,.64-0.31A0.29,0.29,0,0,1,146.48,225.31ZM159,207.07a0.07,0.07,0,0,1,.13,0c0.21,1.94-2.25,3.3-3.35,4.54s-2.12,2-3,3.21a33.11,33.11,0,0,1-2.37,2.95c-0.07.07-.16,0-0.12-0.11C152.67,213.78,156.34,210.77,159,207.07Zm-15.36,14.51a1.16,1.16,0,0,1,.19,1.23,4.87,4.87,0,0,0,.76-0.2c0.44-.1.94,0,1.39-0.1,0.92-.14,1.5-1.35,2-2a0,0,0,0,1,.07,0,9.07,9.07,0,0,1-1.75,2.74,2.52,2.52,0,0,1-1.45.59,2.39,2.39,0,0,1-1.45-.7,0.2,0.2,0,0,1-.08-0.18,3.26,3.26,0,0,1,.06-1.37A0.16,0.16,0,0,1,143.63,221.59Zm15.05-19.5a1.09,1.09,0,0,1,.49-1.06,0.37,0.37,0,0,1,.4.22h0a1.63,1.63,0,0,1-.14,1.27c-0.38.73-1.36,0.89-1.94,1.39a0.27,0.27,0,0,1-.33,0,1,1,0,0,1-.44.51,1.33,1.33,0,0,1-.88.2,0.08,0.08,0,0,1,0-.16,5.72,5.72,0,0,0,1.29-.59,0.27,0.27,0,0,1,0-.33,2.25,2.25,0,0,1,.64-0.68A1.85,1.85,0,0,0,158.68,202.08ZM147,203.5l0.27-.25a1.73,1.73,0,0,1,1.45-.42,0.34,0.34,0,0,1,.28.2,2.54,2.54,0,0,0,.85.33,2,2,0,0,1,.62.4,0,0,0,0,1,0,0,2.87,2.87,0,0,0-2-.19,2.72,2.72,0,0,0-.88.19,5.07,5.07,0,0,0-.76.92,5.27,5.27,0,0,1-1.33,1.78,0,0,0,0,1-.06-0.06c0.54-.74.31-1.69,0.78-2.44A1.19,1.19,0,0,1,147,203.5Zm-3,11a9.3,9.3,0,0,1-.35-5.36c0.15-.75.07-2.75,1.42-2.33a0.25,0.25,0,0,1,.16.19c0.13,0.91-.68,1.49-1,2.27a11.13,11.13,0,0,0-.18,5.19A0,0,0,0,1,144,214.49Zm13.42-19.55a0.37,0.37,0,0,1,.51.36,8.17,8.17,0,0,0,.78,2.87,3.25,3.25,0,0,1,.29,2,0.08,0.08,0,0,1-.15,0c-0.23-.58-0.28-1.23-0.5-1.83s-0.5-1.22-.72-1.85C157.52,196.12,156.94,195.09,157.43,194.94Zm-19.48,29.43a4.14,4.14,0,0,0,3.5-2.11,17.82,17.82,0,0,0,.7-2.41,0.06,0.06,0,0,1,.11,0c-0.27,2.65-.85,4.38-3.47,5.48a9.42,9.42,0,0,1-3.44.44,16.23,16.23,0,0,0-2.62,0c-0.94.16-1.84,0.51-2.77,0.71a0.28,0.28,0,0,1-.3-0.16c-0.49-1-2-1.56-1.4-2.84a0.27,0.27,0,0,1,.34-0.16,3.61,3.61,0,0,1,1.11,1.32,1.76,1.76,0,0,1,.54,1.13s2.41-.65,2.81-0.77A28.69,28.69,0,0,1,137.95,224.37Zm-2.61-14.08a0.44,0.44,0,0,1-.26.37l-0.27.1a0.24,0.24,0,0,1-.33-0.18l0-.25a0.46,0.46,0,0,1,.6-0.5c0.7,0.18,1.73-.4,2.42-0.55a2,2,0,0,1,1.76.64,7.54,7.54,0,0,1,2.25,4.25,0.05,0.05,0,0,1-.1,0,4.62,4.62,0,0,0-2.31-3.36C138.57,210.62,135.37,209.71,135.34,210.3Zm-16.25,16.55c1.27-.31,2.5-0.22,3.77-0.65,1-.36,1.36.45,2.69-0.5a13.06,13.06,0,0,1,1.3-.9c0.07,0,.12.06,0.07,0.11a11.58,11.58,0,0,1-5.89,3.4c-1.53.25-2.94-.27-4.46-0.16a6.11,6.11,0,0,0-2.95.88,1,1,0,0,1-.83.16c-0.92-.16-0.77-1.62.13-1.43s0.74,0.54,1.72.34C116.13,227.79,117.6,227.21,119.09,226.84ZM112,203.3a9.26,9.26,0,0,1,3.52,1.54c0.78,0.5,2.19,1.32,2.6,2.21a1.67,1.67,0,0,0,.46,1c0.8,0.51,1.58,1,2.44,1.45a18.58,18.58,0,0,1,4.35,2.35,0,0,0,0,1,0,.06c-2.2-1.42-4.81-2.06-7.08-3.4-1.45-.85-0.47-0.94-1.65-2.31s-3.07-1.87-4.66-2.66C111.79,203.53,111.82,203.28,112,203.3Zm-6.14-2.47a13,13,0,0,1,2.37.94,3.15,3.15,0,0,1,1.85,1.12c0,0.06,0,.12-0.1.1a9.29,9.29,0,0,1-2.55-1,2.67,2.67,0,0,0-1.11-.63,0.87,0.87,0,0,1-.59-0.33A0.14,0.14,0,0,1,105.86,200.83Zm-17.12,20.9a13.3,13.3,0,0,1,1.74,1.58,8.35,8.35,0,0,0,2.42,2c0.71,0.32,1.46.5,2.16,0.85,0,0,0,.06,0,0.06a20.15,20.15,0,0,1-4.66-1.92,21.07,21.07,0,0,1-2.66-2,3.57,3.57,0,0,1-1.43-2.2,0.08,0.08,0,0,1,.14-0.07A8.34,8.34,0,0,0,88.74,221.73Zm11.57-23.26a1.82,1.82,0,0,1,.79.18,1.19,1.19,0,0,1,.71.35,0.08,0.08,0,0,1,0,.13,3.12,3.12,0,0,1-.84-0.15,0.88,0.88,0,0,1-.7-0.34A0.12,0.12,0,0,1,100.31,198.46Zm-17,14.23a4.91,4.91,0,0,1,.5,1.4,10.78,10.78,0,0,0,.68,1.66c0.12,0.24-.24.39-0.37,0.17-0.53-.87-1.37-2.12-1.06-3.19A0.15,0.15,0,0,1,83.26,212.69ZM81.79,215a0.09,0.09,0,0,1-.15.09,2.81,2.81,0,0,1-.57-1.75C81,212.56,81,211.77,81,211a0.29,0.29,0,0,1,.32-0.3l0-.06a0.21,0.21,0,0,1,.39.15l0,0.23a0.36,0.36,0,0,1,0,.17c0,0.51-.11,1-0.15,1.49A5.62,5.62,0,0,0,81.79,215Zm10.6-18.52a2,2,0,0,1,.41.39,0,0,0,0,1,0,.07,0.94,0.94,0,0,0-.36.26,1.16,1.16,0,0,1-.62.15c-0.2,0-.38-0.1-0.58-0.1a2.66,2.66,0,0,0-.54,0,0.06,0.06,0,0,1,0-.1,3,3,0,0,1,.46-0.36,2.32,2.32,0,0,1,.57-0.38A1,1,0,0,1,92.39,196.47Zm-2.83-4.69a0.24,0.24,0,0,1,.43-0.2l0,0a0.11,0.11,0,0,1,0,.12l0,0.09A0.25,0.25,0,0,1,89.56,191.78Zm1.36-.36c-0.35.34-.73-0.52-0.16-0.5,0.79,0,1.59-1.16,2-1.66a4.3,4.3,0,0,1,1.23-.76c1.49-.81,3-1.45,4.53-2.14a0,0,0,0,1,0,0,35.27,35.27,0,0,0-3.79,2.54C93.64,190,92,190.34,90.92,191.42ZM89.6,197.9a2,2,0,0,1-.58.29,0.25,0.25,0,0,1-.2-0.44,1.42,1.42,0,0,1,.31-0.18,1,1,0,0,1,.37-0.14c0.11,0,.4,0,0.4.16A0.55,0.55,0,0,1,89.6,197.9Zm-6.36,6.29a8.67,8.67,0,0,1,1.26-2.81,23.34,23.34,0,0,1,2.42-1.88c-0.1-1.23,1.58.2,0.48,0.34-2.2.28-3.32,3.79-3.71,5.53s-0.17,3.49-.72,5.12a0,0,0,0,1,0,0A13,13,0,0,1,83.24,204.19ZM77.56,208c-0.19,1-.35,2.07-0.54,3.07a19.53,19.53,0,0,0,.06,4.91c0.31,3.5,2.59,6.49,4.25,9.45a0,0,0,0,1-.08,0,22.72,22.72,0,0,1-4.52-8.85c-0.38-1.82,0-3.72-.45-5.52a6.12,6.12,0,0,1,.58-3.26A0.36,0.36,0,0,1,77.56,208Zm-13.62,7.59c3.23-2.9,6.63-5.61,9.88-8.48,0.74-.65,2.55-2.57,4-2.7,0.33-.19.66-0.39,1-0.55a0.29,0.29,0,0,1,.42.27l0,0.06a1.12,1.12,0,0,1,.08.51,0.06,0.06,0,0,1-.1,0c-0.22-.29-0.11,0-0.22.36a0.26,0.26,0,0,1-.4.12,0.93,0.93,0,0,0-.68-0.08l-0.15.08a2.28,2.28,0,0,1-.6.19c-0.61.3-1.21,0.76-1.55,1a17.75,17.75,0,0,0-2.74,2q-4.36,3.79-8.7,7.57A0.23,0.23,0,0,1,63.94,215.62Z" transform="translate(-5.95 -8.8)"/><path class="cls-3" d="M64.06,208.36a4.83,4.83,0,0,1,2.51-1.77,6.34,6.34,0,0,0-.72-0.07c-2.31-.1-4.12,1.39-5.79,2.78a5.83,5.83,0,0,0-.87,1.74q1,1.82,2.12,3.6A14,14,0,0,1,64.06,208.36Z" transform="translate(-5.95 -8.8)"/><path class="cls-3" d="M153.89,175.33a9.67,9.67,0,0,0-2,.28c-1.17.31-2.32,0.7-3.33,1a16.61,16.61,0,0,1,.84,1.47c1.18,1.15,2,2.63,3.35,3.68a29.45,29.45,0,0,1,2.88,2.26,3.31,3.31,0,0,1,1.11-.48,5.44,5.44,0,0,0,1.55-.64,9.39,9.39,0,0,0,1.13-.93,0.06,0.06,0,0,1,.08.08,12.07,12.07,0,0,1-1.88,1.9,5.28,5.28,0,0,1-1.28.9,5.24,5.24,0,0,1,.31.48l0.4-.09a9.39,9.39,0,0,0,1.58-.67c1.36-.54,1.65-1.73,2-2.94a23.41,23.41,0,0,1-1.47-2.9c-0.51-1.07-1.12-2.07-1.63-3.11a5.33,5.33,0,0,0-1.95-.48A14.93,14.93,0,0,1,153.89,175.33Z" transform="translate(-5.95 -8.8)"/><path class="cls-3" d="M167,170.88l0,0h0a2.09,2.09,0,0,0-.46.27c-0.2.7-1-.38-1.11-0.61-0.29-.5-0.51-1-0.82-1.52a7.39,7.39,0,0,1-1.19-2.22s0-.05.07,0c0.5,0.9,1.24,1.7,1.68,2.62,0.19,0.4.67,1.59,1.23,1.53a0.8,0.8,0,0,1,.42-0.56,31.56,31.56,0,0,1-1.52-3.87,13.08,13.08,0,0,0-1.52-3.22,7,7,0,0,1-.79,2.21c-0.69,1.09.5,2.7,1.05,3.63a10.12,10.12,0,0,0,2.15,2.71c0.86,0.7,1.06.08,1-.74Z" transform="translate(-5.95 -8.8)"/><path class="cls-3" d="M196,188a0.24,0.24,0,0,1-.18.16,13.68,13.68,0,0,1-2.12,3.43c-0.5.69-1,1.39-1.47,2.1-0.28.58-.58,1.15-0.82,1.74a4.48,4.48,0,0,0-.29,1.07c1-.75,2.06-1.25,3-2a32.46,32.46,0,0,1,5.14-3.7,0.08,0.08,0,0,1,.08.13,38.45,38.45,0,0,0-5.62,4.9c-0.61.66-1,1.47-1.6,2.12a18.57,18.57,0,0,0,2-1.17c1.67-1.16,2.77-2.94,4.43-4.12a11,11,0,0,1,2.5-1.14,5.49,5.49,0,0,0,2.29-1.63,3.35,3.35,0,0,0-.71-4.14,7.84,7.84,0,0,0-4.92-1.67,17.49,17.49,0,0,1-1.56,3.25A3.12,3.12,0,0,1,196,188Z" transform="translate(-5.95 -8.8)"/><path class="cls-3" d="M148.1,177.93a1.34,1.34,0,0,0-.37-0.06,0.77,0.77,0,0,1-.32-0.12,0.07,0.07,0,0,1,0-.12,3,3,0,0,0,.37-0.18,0.36,0.36,0,0,1,.18,0s0-.06,0-0.09c-0.1-.18-0.2-0.36-0.29-0.54l-0.06-.09a0.56,0.56,0,0,1-.16-0.23c-0.49-.75-1-1.53-1.47-2.3a4.26,4.26,0,0,0-1.16-1.22,1.29,1.29,0,0,1-.07.27,3.49,3.49,0,0,1-.66,1,1.59,1.59,0,0,1-.3.25c-0.2.15,1.1,1.29,1.12,1.31a23.56,23.56,0,0,0,3.69,3l0.2,0.12a6.91,6.91,0,0,1-.54-1A0.2,0.2,0,0,1,148.1,177.93Z" transform="translate(-5.95 -8.8)"/><path class="cls-6" d="M204.15,186.23c-1.21-1.91-3.83-3-6-3.17a13.79,13.79,0,0,1,1.75-3.33,48.35,48.35,0,0,0,3.64-5c1.37-2.34,1.07-4.7-.66-5.94a4.87,4.87,0,0,0-4.41-1.58,8.91,8.91,0,0,0-5.72,3,33.34,33.34,0,0,0-4.18,6.12c-1.1,1.84-3.16,4-3.43,6.23a19.22,19.22,0,0,1-1.84,2.29l-0.08.09c-0.73.79-1.49,1.54-2.24,2.35-1.81,1.94-3.6,3.89-5.44,5.79a4.33,4.33,0,0,0-.59.74c-0.08-1-.15-2-0.23-3a43.16,43.16,0,0,0-1.78-10,21.92,21.92,0,0,0-1.94-5.76c-1.06-1.94-2.73-3.32-3.61-5.35-1-2.28-1.53-4.8-2.75-7a3.57,3.57,0,0,0-1.7-1.65c-2.19-1.51-5.28-.54-6.91,2.1a8.93,8.93,0,0,0-.84,6.23c0.33,1.65.62,3.52,1.66,4.88-0.56,0-1.54.06-1.65,0.08-0.73.13-1.45,0.14-2.19,0.21h-0.11a16.1,16.1,0,0,0-4.89,1c-0.47-.66-1-1.3-1.51-2a6,6,0,0,0-2.67-2.34,3.89,3.89,0,0,0-3.13.72,3.58,3.58,0,0,0-1.51,2.45,7.5,7.5,0,0,0-.88,2.06l-0.47.18a21.12,21.12,0,0,1-7.16,1.44c-2.5,0-5,.05-7.48.17-5.23.26-10.47-.17-15.63,0.86a42.63,42.63,0,0,0-13,4.73,28.05,28.05,0,0,0-9,8.42c-0.47.51-.94,1-1.42,1.56a16.3,16.3,0,0,0-2,2.39c-0.24.27-.48,0.54-0.72,0.81a55.82,55.82,0,0,1-6.55,5.85c-1.64,1.29-3.31,2.54-5,3.78-0.81-.72-2.94-1-3.9-1a8.22,8.22,0,0,0-4.31,1.42,22.69,22.69,0,0,0-3.14,2.38L59.19,211a5.83,5.83,0,0,1,.87-1.74c1.67-1.39,3.48-2.87,5.79-2.78a6.34,6.34,0,0,1,.72.07,4.83,4.83,0,0,0-2.51,1.77,14,14,0,0,0-2.75,6.28q0.75,1.22,1.52,2.42a6.69,6.69,0,0,1,1.24-3.31c1.6-2.23,3.88-3.7,5.69-5.66l1.11-.83a0.12,0.12,0,0,0,.08,0c1.61-1.13,3.08-2.44,4.72-3.53a14.4,14.4,0,0,0,1.67-1.35A12.25,12.25,0,0,1,80,200.66c1.89-.6,2,0.95,2,2.31a17.8,17.8,0,0,0-.63,5.66c0,0.11.17,0.09,0.19,0a22.93,22.93,0,0,1,1.48-6.68A7.22,7.22,0,0,1,85,199a4.24,4.24,0,0,0,.75-0.72,9.42,9.42,0,0,1,2.42-1.44,0,0,0,0,0,0-.07c-1.36.18-2.35,1.19-3.74,1.34-0.33,0-.67.09-1,0.17a3.45,3.45,0,0,1,.29-0.39c0.62-.71,1.26-1.43,1.94-2.08,0,0,0-.07,0,0a18.7,18.7,0,0,0-2.19,1.42,19.45,19.45,0,0,1,2.75-3.58,49.12,49.12,0,0,1,5.32-4.31c3.57-2.57,7.14-5.26,11.48-6.38a0,0,0,0,0,0,0c-4.87.69-8.57,3.41-12.49,6.17-0.91.64-1.79,1.31-2.65,2A34.86,34.86,0,0,1,97,184a40.6,40.6,0,0,1,13.55-3.91c5.31-.62,10.79-0.82,16.13-1,3.84-.11,8,0.15,11.47-1.83a3.29,3.29,0,0,0,0,.84l0,0.31a18.25,18.25,0,0,0-2.41,1.13,13.89,13.89,0,0,1-3,.79,25.47,25.47,0,0,1-5,.33c-1.51,0-2.95.35-4.47,0.21a0,0,0,0,0,0,.06,48,48,0,0,0,6.16.06,22.42,22.42,0,0,0,4-.24c1.1-.17,3.78-0.26,4.8-1.3l0.16,0.35a14.24,14.24,0,0,0,.71,2.45l0,0a32.12,32.12,0,0,0-2,3.13,7.42,7.42,0,0,1-1.82,1.9c-0.9.57-1.55,0.13-2.46,0.28a0.16,0.16,0,0,0-.06.28c2.75,1.86,5.27-3,6.73-4.8l0.06,0.13,0.14,0.25a5.88,5.88,0,0,1-4.34,4.86,8.22,8.22,0,0,1-3.44.42,16.52,16.52,0,0,1-3.5-1.18,0.14,0.14,0,0,0-.19.1s-0.07,0,0,.05c1.28,2.11,2.95,5.38,1.88,7.93-1.37,3.29-4.67,4-7.75,4.79-1.69,0-3.39.15-5.08,0.28a32.13,32.13,0,0,1-6.05,0,32.62,32.62,0,0,1-6.07-1.54,67.5,67.5,0,0,0-10.46-2.12,0.29,0.29,0,0,0-.11-0.28,0.67,0.67,0,0,0-.75-0.08,0.26,0.26,0,0,0,.09.5,4.12,4.12,0,0,0,.46.1,0.3,0.3,0,0,0,.28-0.17c2.35,0.49,4.72.93,7.06,1.5,1.05,0.26,2.07.59,3.08,0.93a32.26,32.26,0,0,0,6.46,2.65,19.19,19.19,0,0,1,4.95,2.08c1.06,0.77,1.62,1.86,2.59,2.68,2,1.66,4.69,2,6.69,3.67a9.68,9.68,0,0,1,2.75,3.66,12.89,12.89,0,0,1,.59,2.71,8.87,8.87,0,0,0-.17,1.87,0.31,0.31,0,0,0,.05.15,0.29,0.29,0,0,0,.56.13,27.62,27.62,0,0,0,1-4.65c1.31-2.86,3.12-6.58,6.82-5.88a6.26,6.26,0,0,1,4.41,3.38,9.53,9.53,0,0,1,.83,2.57,11.3,11.3,0,0,0,.26,2,0.3,0.3,0,0,0,.5.12,0.22,0.22,0,0,0,.14-0.1c0.4-.59,0-1.63-0.1-2.24l-0.1-.47a10.28,10.28,0,0,0-.24-1.51,12.54,12.54,0,0,1,.72-5.69,11.14,11.14,0,0,1,2.85-3.83h0a6.92,6.92,0,0,0,1-.77,1.13,1.13,0,0,1,.54,0,8.84,8.84,0,0,1,1.7.51l0.22,0.08a5.36,5.36,0,0,0,1.24.3,0,0,0,0,0,0,0,12.38,12.38,0,0,0-1.38-.86,11.92,11.92,0,0,1-1.64-1.89,8.15,8.15,0,0,1-1.19-3.4,19.89,19.89,0,0,1,.4-3.82c0.13-.34.24-0.67,0.34-1a3.51,3.51,0,0,1,1.57-1.73l0,0v0h0a0.09,0.09,0,0,0,0-.18c-0.73-.32-1.13.67-1.85,0.56a11.78,11.78,0,0,1-1.26-1.09c-0.65-.77-1.33-1.52-2-2.21a25.08,25.08,0,0,1-3.44-3.5,9.36,9.36,0,0,1-1.79-5.71,25.64,25.64,0,0,1,.86-3.89c1.19-1.45,2.91-2.18,4.44-1.56a4.49,4.49,0,0,1-1,1.5,0.28,0.28,0,0,0-.08.33c0.81,1.47,2.26,2.46,3.41,3.64,0.85,0.87,2.2,1.21,3.13,1.94,0.15,0.15.3,0.3,0.47,0.45l0.12,0.16a0,0,0,0,0,.06,0c0.34,0.29.71,0.58,1.08,0.85a18.35,18.35,0,0,1,3.41,2.82v0a1.51,1.51,0,0,1-.1.6,2.19,2.19,0,0,0-1,.64,0,0,0,0,0,0,.07,5,5,0,0,1,.82-0.23,1.57,1.57,0,0,1,.79.22,1.55,1.55,0,0,1,.36.21,4.05,4.05,0,0,1,.34,1.17c0.06,0.83-.59,1.12-1.14,1.56a2.93,2.93,0,0,0-.82.32,0.11,0.11,0,0,0-.08,0,0.44,0.44,0,0,0-.48.17,0.12,0.12,0,0,0,0,.13,0.5,0.5,0,0,0,.43,0h0a5.33,5.33,0,0,1,1.66-.1,3.81,3.81,0,0,1,1.25,1.19c0.11,0.2.22,0.42,0.32,0.63a26.08,26.08,0,0,0,1.16,4.77,28,28,0,0,0,1,3.06,9,9,0,0,1,.54,3.91,2.56,2.56,0,0,1-.43.77c-0.36.46-.8,0.85-1.18,1.3-0.32.14-.63,0.31-0.93,0.43a6.9,6.9,0,0,1-3.86.64c-0.06,0-.07.08,0,0.1,1.5,0.72,3.2-.15,4.8-0.53l0.26,0a2.34,2.34,0,0,1,.64.18,1.6,1.6,0,0,1,.6.46h0a9.7,9.7,0,0,1-.17,1.63c-0.31,1.51-1.7,2.7-2.63,3.84-1.77,2.15-3.48,4.32-5.37,6.36-1.55,1.68-3.43,3.55-3.78,5.9a0,0,0,0,0,.08,0,27,27,0,0,1,3.34-4.48c0.94-.94,1.91-1.88,2.82-2.86a41,41,0,0,0,5.55-6.91,8.17,8.17,0,0,0,1.28-3.2c0.37-2,.54-4.57,1.69-6.3a2.58,2.58,0,0,1,.68-0.48,5.16,5.16,0,0,1,3.17-.28l0.69,0.17c0.06,0,.09-0.08,0-0.12-0.32-.21-0.66-0.4-1-0.61a0.17,0.17,0,0,0,0-.17c-1.12-1.32-1.14-2.71-1.23-4.35a52.81,52.81,0,0,1-.07-5.82,0,0,0,0,0-.06,0,55.06,55.06,0,0,0-.51,7.48,4.75,4.75,0,0,0,.06.69h0a10.31,10.31,0,0,1-.69-5.51,29.89,29.89,0,0,0,.5-4.19c0-1.11-.1-2.65.86-3.38a0.18,0.18,0,0,0,.05-0.34c-2.16-.85-3.12-3.19-3.8-5.25a31.65,31.65,0,0,0-2.25-5,16.83,16.83,0,0,1-2.06-5.28,6.87,6.87,0,0,1,.92-5.36,3.62,3.62,0,0,1,1.77-.86,3.82,3.82,0,0,1,2.42.33,7.46,7.46,0,0,1,1,.9c0,0.09,0,.18,0,0.28a2.57,2.57,0,0,1-.71,2.27,1.59,1.59,0,0,0-.35.73,10.32,10.32,0,0,0,1.16,2.72,14.54,14.54,0,0,0,2.56,3.56c0.4,0.38,1.42,1.12,1.81.25a1.7,1.7,0,0,0,.13-0.42,22,22,0,0,1,2.92,4.79c0.4,1,.78,2,1.22,3,1.29,3.7,1.4,7.47,2,11.32a61.05,61.05,0,0,1,.71,6.23,5.16,5.16,0,0,0,0,.88s0,0.07,0,.11a3.32,3.32,0,0,0,0,1.07c0,0.05,0,.1,0,0.16a1.65,1.65,0,0,1-.83,1.19c-0.17.08-.33,0.08-0.49,0.14l-0.5-.09c-0.27-.09-0.55-0.17-0.81-0.28a2.16,2.16,0,0,0-.84-0.36c-0.2,0-.38.3-0.16,0.42a0.88,0.88,0,0,0,.6.13h0.07c0.37,0.12.74,0.24,1.09,0.38a3.27,3.27,0,0,1,1.13,1,4.63,4.63,0,0,1-.08,1.09,11.67,11.67,0,0,1-.5,1.66,20.15,20.15,0,0,1-6.06,6.27c-0.6.45-1.19,0.91-1.77,1.38a25.2,25.2,0,0,0-3.15,2.25c-1.47,1.25-3.24,2-4.77,3.17l-0.44.34a51.9,51.9,0,0,1,4.27-4.3c3.67-3.24,8-6,11.16-9.78a0.46,0.46,0,0,0-.67-0.63l-0.14.12c-3.66,3.07-7,6.75-10.67,9.89a49.56,49.56,0,0,0-9,9.48c-0.39.36-.78,0.71-1.15,1.09a32.2,32.2,0,0,1-3.75,3.67A14.44,14.44,0,0,1,142,230a88.59,88.59,0,0,1-10.38,1.48c-3.83.47-7.6,1.25-11.43,1.68-4.42.5-8.92,1-13.38,1-2.1,0-4.22-.12-6.34-0.13a20.82,20.82,0,0,0-9.42,1.85l-0.78.37-0.49.18a0.12,0.12,0,0,0-.09,0l-1.71.78c-0.64.26-1.31,0.52-1.94,0.82a12.79,12.79,0,0,1-2.5.7,9.37,9.37,0,0,1-1.09.1c0.8-.61,1.64-1.18,2.49-1.72,2-1.27,4.14-2.21,5.89-3.82a0,0,0,0,0,0,0c-2.3,1.61-5.06,2.37-7.55,3.62-1,.49-2,0.81-3,1.25a118.21,118.21,0,0,0,13.47,11.06l0.4,0.28,0.29,0.2,1.6,1.1a8.43,8.43,0,0,0,.68-3.7c0-.26,0-0.52,0-0.78a5.86,5.86,0,0,0-.2-1.65,9.06,9.06,0,0,1-.24-0.93c-0.06-.34.05-2,0.52-0.75a10.68,10.68,0,0,1,.38,1.45,14,14,0,0,1-.51,6.75l0.58,0.38a14.92,14.92,0,0,0,.48-8c-0.32-1.54-.76-3-1.13-4.57-0.31-1.26-.34-2.57-0.74-3.8a25.88,25.88,0,0,1,5.29-.26,139.15,139.15,0,0,0,23.36-1c3.72-.48,7.41-1.08,11.15-1.51a33.58,33.58,0,0,0,9.27-2,12.2,12.2,0,0,0,3.87-2.4c1.27-1.23,2.25-2.73,3.5-4,1.76-1.76,3.83-3.12,5.71-4.7,0.91-.41,1.75-0.95,2.71-1.3a41.51,41.51,0,0,1,5.12-1.47,50.77,50.77,0,0,0,9.2-3.16c2.67-1.17,5.82-2.35,7.93-4.44a15.67,15.67,0,0,0,3.56-6,7,7,0,0,1,1.8-2.26,14.72,14.72,0,0,1,3.13-1.56,13.54,13.54,0,0,0,4.89-3.27,18.85,18.85,0,0,1,2.25-2.31,12.19,12.19,0,0,1,2.77-1.37,6.78,6.78,0,0,0,1.81-1C204.79,190.34,205,187.58,204.15,186.23Zm-55.52-7.43a23.56,23.56,0,0,1-3.69-3s-1.32-1.16-1.12-1.31a1.59,1.59,0,0,0,.3-0.25,3.49,3.49,0,0,0,.66-1,1.29,1.29,0,0,0,.07-0.27,4.26,4.26,0,0,1,1.16,1.22c0.51,0.78,1,1.55,1.47,2.3a0.56,0.56,0,0,0,.16.23l0.06,0.09c0.09,0.18.19,0.36,0.29,0.54,0,0,0,.06,0,0.09a0.36,0.36,0,0,0-.18,0,3,3,0,0,1-.37.18,0.07,0.07,0,0,0,0,.12,0.77,0.77,0,0,0,.32.12,1.34,1.34,0,0,1,.37.06,0.2,0.2,0,0,0,.19,0,6.91,6.91,0,0,0,.54,1Zm8.93-3.17c0.51,1,1.12,2,1.63,3.11a23.41,23.41,0,0,0,1.47,2.9c-0.35,1.21-.65,2.4-2,2.94a9.39,9.39,0,0,1-1.58.67l-0.4.09a5.24,5.24,0,0,0-.31-0.48,5.28,5.28,0,0,0,1.28-.9,12.07,12.07,0,0,0,1.88-1.9,0.06,0.06,0,0,0-.08-0.08,9.39,9.39,0,0,1-1.13.93,5.44,5.44,0,0,1-1.55.64,3.31,3.31,0,0,0-1.11.48,29.45,29.45,0,0,0-2.88-2.26c-1.37-1-2.17-2.52-3.35-3.68a16.61,16.61,0,0,0-.84-1.47c1-.31,2.16-0.7,3.33-1a9.67,9.67,0,0,1,2-.28,14.93,14.93,0,0,0,1.72-.19A5.33,5.33,0,0,1,157.56,175.63Zm8.53-3.82a10.12,10.12,0,0,1-2.15-2.71c-0.55-.93-1.74-2.54-1.05-3.63a7,7,0,0,0,.79-2.21,13.08,13.08,0,0,1,1.52,3.22,31.56,31.56,0,0,0,1.52,3.87,0.8,0.8,0,0,0-.42.56c-0.55.07-1-1.12-1.23-1.53-0.44-.93-1.18-1.72-1.68-2.62,0,0-.08,0-0.07,0a7.39,7.39,0,0,0,1.19,2.22c0.31,0.49.53,1,.82,1.52,0.13,0.24.91,1.31,1.11,0.61a2.09,2.09,0,0,1,.46-0.27h0l0,0,0.16,0.19C167.16,171.89,167,172.51,166.1,171.81Zm34.45,5.67a20.86,20.86,0,0,0-2.73,4.26,8.69,8.69,0,0,1,1.46-3.8,8.16,8.16,0,0,1,3.15-3A22.41,22.41,0,0,1,200.55,177.48ZM181,209.14a37.6,37.6,0,0,1-8.12,4.25,56.87,56.87,0,0,1-9.51,2.87c-0.39.09-.78,0.19-1.16,0.3,1-.46,1.94-1.21,2.86-1.6,1.53-.64,3.11-1.09,4.66-1.68a86.08,86.08,0,0,0,9.46-4.22,0,0,0,0,0,0,0c-1.83.71-3.62,1.52-5.47,2.17s-4,1.1-6,1.72a28.52,28.52,0,0,0-2.9,1c1.46-1.2,2.89-2.42,4.38-3.52,2.95-2.18,5.49-4.59,6.17-8.34,0.05-.28.08-0.54,0.11-0.81s0.1-.23.16-0.35a6.13,6.13,0,0,0,.84-1.36,6.63,6.63,0,0,1,.63-1,1.5,1.5,0,0,1,.36.13,0.05,0.05,0,0,0,.06-0.08,5.4,5.4,0,0,0-.41-0.43,0.21,0.21,0,0,0-.3,0,7.53,7.53,0,0,0-1.34.78c0-.15,0-0.3,0-0.44s0-.2,0-0.3l0-.09c0.16-.35.41-1.17,0.88-1.08a0,0,0,0,0,0,0c-0.07-.13-0.16-0.24-0.23-0.38a0.34,0.34,0,0,0-.52-0.12l0,0c0-.29.06-0.57,0.11-0.85a2.59,2.59,0,0,0,.74,1,18.89,18.89,0,0,1,2,2,3.68,3.68,0,0,0,1.3,1.09,0,0,0,0,0,0-.08,7.89,7.89,0,0,1-1.58-1.73c-0.32-.41-0.74-0.74-1.06-1.14a4.18,4.18,0,0,1-.6-3h0a15.27,15.27,0,0,0,1.24-1.27c1.34-1.7,2.48-3.74,4.18-5.13a20,20,0,0,0,2.49-2.28,1.44,1.44,0,0,1,.33-0.12,4.32,4.32,0,0,0,.46-0.1,2.46,2.46,0,0,1,.49.07,0,0,0,0,0,0-.08,2.79,2.79,0,0,0-.63-0.66l0.24-.38a3.49,3.49,0,0,0,2.83,2.08,0.08,0.08,0,0,0,.05-0.14c-0.57-.43-2-0.85-2-1.73a4.7,4.7,0,0,1,.22-1.86l0.32-.78c0.19-.37.38-0.75,0.6-1.12,0.49-.82,1-1.6,1.52-2.42,1-1.62,1.89-3.28,3-4.83,2.21-3.13,5.48-5.65,9-4.51,1.74,1,3.34,2.32,2.48,4.62a10.09,10.09,0,0,1-.45,1c-2.09.12-2.78,2.05-3.88,3.63-1.38,2-2.53,3.65-2,6a30.49,30.49,0,0,0-1,3.25l0,0-0.17.41,0,0a0.33,0.33,0,0,0-.33,0,0.51,0.51,0,0,0-.18.13c0.07-.12-0.09-0.08-0.18-0.11a2.56,2.56,0,0,1-.55-0.27,2,2,0,0,0-.66-0.33s0,0,0,.05a8,8,0,0,0,1.56,1.12,1.84,1.84,0,0,0,.33.1,24.61,24.61,0,0,1-3.27,4,31.22,31.22,0,0,0-3.15,4.08c-0.77,1.35-1.71,2.62-2.41,4-0.57,1.14-.95,2.35-1.42,3.51A16.88,16.88,0,0,1,181,209.14Zm20.1-17.68a11,11,0,0,0-2.5,1.14c-1.66,1.18-2.77,3-4.43,4.12a18.57,18.57,0,0,1-2,1.17c0.63-.65,1-1.46,1.6-2.12a38.45,38.45,0,0,1,5.62-4.9,0.08,0.08,0,0,0-.08-0.13,32.46,32.46,0,0,0-5.14,3.7c-1,.78-2,1.29-3,2a4.48,4.48,0,0,1,.29-1.07c0.24-.59.54-1.16,0.82-1.74,0.49-.71,1-1.41,1.47-2.1a13.68,13.68,0,0,0,2.12-3.43A0.24,0.24,0,0,0,196,188a3.12,3.12,0,0,0,.14-0.69,17.49,17.49,0,0,0,1.56-3.25,7.84,7.84,0,0,1,4.92,1.67,3.35,3.35,0,0,1,.71,4.14A5.49,5.49,0,0,1,201.07,191.46Z" transform="translate(-5.95 -8.8)"/><path class="cls-6" d="M128.74,186.83h0l0.07,0a0.28,0.28,0,0,0,.1-0.2,0.29,0.29,0,1,0-.51.16l0.09,0.07A0.22,0.22,0,0,0,128.74,186.83Z" transform="translate(-5.95 -8.8)"/><path class="cls-6" d="M128.51,186.82h0Z" transform="translate(-5.95 -8.8)"/><path class="cls-6" d="M130.87,187.58a1,1,0,0,0,.49.11,2.18,2.18,0,0,0,.31-0.13,0.12,0.12,0,0,0,0-.21,4,4,0,0,0-.36-0.28l-0.48-.25a0.39,0.39,0,0,0-.59.06C130.12,187.21,130.65,187.49,130.87,187.58Z" transform="translate(-5.95 -8.8)"/><path class="cls-6" d="M157,193.77a0.16,0.16,0,0,0,.11-0.29A0.16,0.16,0,0,0,157,193.77Z" transform="translate(-5.95 -8.8)"/><path class="cls-6" d="M86.85,223.16a0.13,0.13,0,0,0-.17.18c1.69,1.87,3.78,3,5.8,4.49a8.93,8.93,0,0,0,5.86,2.07,1.36,1.36,0,0,0,.64-0.29c0.61-.48,1.83-0.22,2.55-0.12a22.19,22.19,0,0,0,3.59.36,21,21,0,0,0,6.4-.9c0.06,0,0-.12,0-0.11a29.36,29.36,0,0,1-12.71-.48c-1.94-.48-4-0.56-5.88-1.32A26.18,26.18,0,0,1,86.85,223.16Z" transform="translate(-5.95 -8.8)"/><path class="cls-6" d="M114.89,180.88a10.36,10.36,0,0,0,2-.19,0.42,0.42,0,0,0,.33-0.14c0.92,0,1.75-.45,2.7-0.27,0,0,.06-0.06,0-0.08-0.88-.73-1.9,0-2.89-0.27s-1.45.38-2.25,0.67C114.68,180.64,114.75,180.86,114.89,180.88Z" transform="translate(-5.95 -8.8)"/><path class="cls-6" d="M139.55,179.52a17.37,17.37,0,0,0,2,4,23.78,23.78,0,0,0,3.2,3.61c0.76,0.69,1.81,2.5,2.93,2.68a0.38,0.38,0,0,0,.41-0.34c0-.12,0-0.23,0-0.34a0.21,0.21,0,0,0-.33-0.18c0.25,0.3.12,0.22-.37-0.23a4,4,0,0,1-1-.69c-0.46-.42-1-0.78-1.43-1.2a17.85,17.85,0,0,1-2.82-3.07,11.74,11.74,0,0,1-2-4.43,9.16,9.16,0,0,1,.08-3.6,0,0,0,0,0-.05,0C139.82,176.77,139.08,178.36,139.55,179.52Z" transform="translate(-5.95 -8.8)"/><path class="cls-6" d="M89,227.94a0.12,0.12,0,0,0-.16.17,13,13,0,0,0,3.95,3.12,1,1,0,0,0,1.06.06c0.55-.42,2.69.39,3.16,0.6,0,0,.07,0,0-0.07-1.1-.83-2.69-0.81-3.74-1.56C91.94,229.25,90.45,228.87,89,227.94Z" transform="translate(-5.95 -8.8)"/><path class="cls-6" d="M87.1,226.38c0.22,0,.43-0.24.2-0.38a1.12,1.12,0,0,1-.3-0.23c-0.07-.08-0.1-0.18-0.17-0.26a0.93,0.93,0,0,0-.53-0.32,0.15,0.15,0,0,0-.16.1A1,1,0,0,0,87.1,226.38Z" transform="translate(-5.95 -8.8)"/><path class="cls-6" d="M85.45,223.88a0.26,0.26,0,0,0-.18.48,0.31,0.31,0,0,0,.27,0,0.23,0.23,0,0,0,.12-0.31A0.32,0.32,0,0,0,85.45,223.88Z" transform="translate(-5.95 -8.8)"/><path class="cls-6" d="M153.29,189.17a0.19,0.19,0,0,0-.13.36A0.19,0.19,0,0,0,153.29,189.17Z" transform="translate(-5.95 -8.8)"/><path class="cls-6" d="M79.56,233.33a11.14,11.14,0,0,0-2.78,1.16l-0.1.05,0.57,0.59a16.14,16.14,0,0,1,2.34-1.68A0.06,0.06,0,0,0,79.56,233.33Z" transform="translate(-5.95 -8.8)"/><path class="cls-6" d="M159.76,162.5a0.14,0.14,0,0,0-.14-0.22,5.81,5.81,0,0,0-1.27.58,1.06,1.06,0,0,0-.57,1,10.36,10.36,0,0,1-.11,1.57,1.93,1.93,0,0,0,.34,1.13,0,0,0,0,0,.07,0,4.08,4.08,0,0,1,.35-2.52c0.31-.44.3-1.13,1-1.23A0.6,0.6,0,0,0,159.76,162.5Z" transform="translate(-5.95 -8.8)"/><path class="cls-6" d="M85.35,233.62a34.89,34.89,0,0,0-6.09,2.62c-0.21.11-.42,0.19-0.64,0.28l0.8,0.79a37.94,37.94,0,0,1,5.93-3.67h0Z" transform="translate(-5.95 -8.8)"/><path class="cls-6" d="M141.88,173.56a0.24,0.24,0,0,0,.17-0.46A0.24,0.24,0,0,0,141.88,173.56Z" transform="translate(-5.95 -8.8)"/><path class="cls-6" d="M119.82,231.33a56.09,56.09,0,0,0-6-.29,37.81,37.81,0,0,1-6.12.12,15.33,15.33,0,0,0-5.11.48c-1.41.3-2.5-.51-3.9,0a0.19,0.19,0,0,0,0,.34c1.58,0.36,2.37.75,4,.29a14.85,14.85,0,0,1,5.58-.41,27.5,27.5,0,0,0,5-.21,58.56,58.56,0,0,1,6.5-.14C119.9,231.48,119.92,231.33,119.82,231.33Z" transform="translate(-5.95 -8.8)"/><path class="cls-6" d="M72.89,212.06a52.47,52.47,0,0,0-8,6.1l-0.12,0a1.25,1.25,0,0,1-1.2,0l1.08,1.6a1.26,1.26,0,0,1,.2-0.27,64.33,64.33,0,0,1,8.07-7.43S72.92,212,72.89,212.06Z" transform="translate(-5.95 -8.8)"/><path class="cls-6" d="M163.12,202.49c-0.84,2-1.73,4.07-2.48,6.15a0.08,0.08,0,0,0,.13.07c1.11-1.51,1.58-3.34,2.41-5,0.25-.49,1.2-2.46,1.75-2.61a0.41,0.41,0,0,0,.32-0.46c-0.09-.57.71-0.2,1.18-0.34a0.07,0.07,0,0,0,0-.14c-0.52-.08-1-0.27-1.52-0.35a0.3,0.3,0,0,0-.31.2c0,0.13-.06.24-0.08,0.35C163.7,200.62,163.42,201.77,163.12,202.49Z" transform="translate(-5.95 -8.8)"/><path class="cls-6" d="M164.42,181c-0.67-1-1.13-2.17-1.73-3.23-1-1.8-1.36-3.79-2.23-5.63a0.1,0.1,0,0,0-.18.08,43.48,43.48,0,0,0,2.5,6.73c0.64,1.27,1.16,3.19,2.79,3.44a0.08,0.08,0,0,0,.08-0.09C165.48,181.51,164.89,181.66,164.42,181Z" transform="translate(-5.95 -8.8)"/><path class="cls-6" d="M141.22,173.81a0.09,0.09,0,0,0-.09-0.14,0.81,0.81,0,0,0-.7.74,0.23,0.23,0,0,0,.37.14,0.67,0.67,0,0,0,.21-0.37C141.07,174,141.16,173.93,141.22,173.81Z" transform="translate(-5.95 -8.8)"/><path class="cls-6" d="M167.61,183.39a0.29,0.29,0,1,0-.54-0.17,0.24,0.24,0,0,0,0,.15l0,0c-0.22-.1-0.42-0.15-0.54.07a1,1,0,0,1-.34-0.16h0l-0.13-.07a0.23,0.23,0,0,0-.36.22,0.88,0.88,0,0,0,0,.1,0.18,0.18,0,0,0,.22.1,0.43,0.43,0,0,0,.38-0.07,0.11,0.11,0,0,0,0-.1l0.21,0.11a0.05,0.05,0,0,0,.07,0,0.19,0.19,0,0,1,.23-0.08,0.46,0.46,0,0,0,.22,0,0.05,0.05,0,0,0,0-.07A0.29,0.29,0,0,0,167.61,183.39Z" transform="translate(-5.95 -8.8)"/><path class="cls-6" d="M171.19,183.61a1.1,1.1,0,0,0,.36.52,0.43,0.43,0,0,0,.54.07c0.37,0.57.06,2,.18,2.62,0.27,1.27.54,2.54,0.76,3.82a29.38,29.38,0,0,1,.51,5.14c0,1.35-.46,2.55-0.48,3.86a0.46,0.46,0,0,0,.53.48,0.71,0.71,0,0,0,.2-0.05,0.38,0.38,0,0,0,.22-0.31V199.7a0.36,0.36,0,0,0-.07-0.24,4.07,4.07,0,0,0,.22-0.37,24.94,24.94,0,0,0-.09-2.61,33.43,33.43,0,0,0-.46-4.61c-0.28-1.69-.85-3.41-1-5.1a20.79,20.79,0,0,1-.29-3,0.31,0.31,0,0,0-.43-0.31c0.21-.08-0.56-0.19-0.43-0.17A0.24,0.24,0,0,0,171.19,183.61Z" transform="translate(-5.95 -8.8)"/><path class="cls-6" d="M101.8,199a1.19,1.19,0,0,0-.71-0.35,1.82,1.82,0,0,0-.79-0.18,0.12,0.12,0,0,0-.09.17,0.88,0.88,0,0,0,.7.34,3.12,3.12,0,0,0,.84.15A0.08,0.08,0,0,0,101.8,199Z" transform="translate(-5.95 -8.8)"/><path class="cls-6" d="M90,191.63L90,191.58a0.24,0.24,0,1,0,0,.24l0-.09A0.11,0.11,0,0,0,90,191.63Z" transform="translate(-5.95 -8.8)"/><path class="cls-6" d="M83.24,204.19a13,13,0,0,0-.31,6.29s0,0,0,0c0.54-1.63.34-3.44,0.72-5.12s1.52-5.25,3.71-5.53c1.1-.14-0.59-1.57-0.48-0.34a23.34,23.34,0,0,0-2.42,1.88A8.67,8.67,0,0,0,83.24,204.19Z" transform="translate(-5.95 -8.8)"/><path class="cls-6" d="M89.5,197.43a1,1,0,0,0-.37.14,1.42,1.42,0,0,0-.31.18,0.25,0.25,0,0,0,.2.44,2,2,0,0,0,.58-0.29,0.55,0.55,0,0,0,.3-0.31C89.9,197.42,89.61,197.42,89.5,197.43Z" transform="translate(-5.95 -8.8)"/><path class="cls-6" d="M90.92,191.42c1.09-1.07,2.72-1.46,3.83-2.49a35.27,35.27,0,0,1,3.79-2.54,0,0,0,0,0,0,0c-1.55.69-3,1.34-4.53,2.14a4.3,4.3,0,0,0-1.23.76c-0.41.49-1.21,1.68-2,1.66C90.19,190.89,90.57,191.76,90.92,191.42Z" transform="translate(-5.95 -8.8)"/><path class="cls-6" d="M90.39,224.32a20.15,20.15,0,0,0,4.66,1.92s0,0,0-.06c-0.7-.35-1.45-0.52-2.16-0.85a8.35,8.35,0,0,1-2.42-2,13.3,13.3,0,0,0-1.74-1.58,8.34,8.34,0,0,1-2.3-1.7,0.08,0.08,0,0,0-.14.07,3.57,3.57,0,0,0,1.43,2.2A21.07,21.07,0,0,0,90.39,224.32Z" transform="translate(-5.95 -8.8)"/><path class="cls-6" d="M92.39,196.47a1,1,0,0,0-.74,0,2.32,2.32,0,0,0-.57.38,3,3,0,0,0-.46.36,0.06,0.06,0,0,0,0,.1,2.66,2.66,0,0,1,.54,0c0.2,0,.37.11,0.58,0.1a1.16,1.16,0,0,0,.62-0.15,0.94,0.94,0,0,1,.36-0.26,0,0,0,0,0,0-.07A2,2,0,0,0,92.39,196.47Z" transform="translate(-5.95 -8.8)"/><path class="cls-6" d="M81.5,212.67c0-.51.15-1,0.15-1.49a0.36,0.36,0,0,0,0-.17l0-.23a0.21,0.21,0,0,0-.39-0.15l0,0.06a0.29,0.29,0,0,0-.32.3c0,0.78,0,1.57.09,2.34a2.81,2.81,0,0,0,.57,1.75,0.09,0.09,0,0,0,.15-0.09A5.62,5.62,0,0,1,81.5,212.67Z" transform="translate(-5.95 -8.8)"/><path class="cls-6" d="M84.07,215.93c0.13,0.22.49,0.07,0.37-.17a10.78,10.78,0,0,1-.68-1.66,4.91,4.91,0,0,0-.5-1.4,0.15,0.15,0,0,0-.26,0C82.7,213.81,83.53,215.06,84.07,215.93Z" transform="translate(-5.95 -8.8)"/><path class="cls-6" d="M183.53,205.41c0.46-.11.64-1,0.75-1.26,0.48-1,.88-2.09,1.34-3.12a0.06,0.06,0,0,0-.11-0.06,19.1,19.1,0,0,0-1.39,2.52c-1,2-.32.68-1.31,1.21a1.42,1.42,0,0,0-.54,1c-0.15,1-1.07,1.55-1.75,2.19a0,0,0,0,0,0,.06,12,12,0,0,0,2.3-1.33C183.12,206.41,183.32,205.46,183.53,205.41Z" transform="translate(-5.95 -8.8)"/><path class="cls-6" d="M178.67,197a4.34,4.34,0,0,1-.66-1.81,17.08,17.08,0,0,1,1.66-3c1.6-2.25,3.07-4.41,5.37-6,0,0,0-.06,0-0.05a11.78,11.78,0,0,0-3.69,2.94c-0.64.74-1.25,1.49-1.88,2.23-0.42.49-1.18,0.9-1.56,1.42s-0.22,1.46-.52,2.06a0.89,0.89,0,0,0-.1.93,7.4,7.4,0,0,0,1.91,2.44c0.07,0.07.21,0,.16-0.1A11.11,11.11,0,0,0,178.67,197Z" transform="translate(-5.95 -8.8)"/><path class="cls-6" d="M121,230.79a0.32,0.32,0,0,0-.19.52,0.33,0.33,0,0,0,.34.12,0.27,0.27,0,0,0,.21-0.34A0.31,0.31,0,0,0,121,230.79Z" transform="translate(-5.95 -8.8)"/><path class="cls-6" d="M79,205.12c0.11-.36,0-0.66.22-0.36a0.06,0.06,0,0,0,.1,0,1.12,1.12,0,0,0-.08-0.51l0-.06a0.29,0.29,0,0,0-.42-0.27c-0.34.16-.67,0.37-1,0.55-1.45.14-3.26,2-4,2.7-3.25,2.87-6.66,5.59-9.88,8.48a0.23,0.23,0,0,0,.29.36q4.34-3.8,8.7-7.57a17.75,17.75,0,0,1,2.74-2c0.34-.19.94-0.65,1.55-1a2.28,2.28,0,0,0,.6-0.19l0.15-.08a0.93,0.93,0,0,1,.68.08A0.26,0.26,0,0,0,79,205.12Z" transform="translate(-5.95 -8.8)"/><path class="cls-6" d="M187.42,183.54a27.28,27.28,0,0,1,3-6.28c1.28-2,2.56-4.14,4-6.05,0,0,0-.08,0,0a40.08,40.08,0,0,0-2.53,3.29,31.8,31.8,0,0,0-2.49,3.53c-0.81,1.36-3.36,4.28-2.67,5.93a0.36,0.36,0,0,0,.66,0h0l0-.06c0,0.61.15,0.72,0.84,1a0.08,0.08,0,0,0,.09-0.13C188,184.3,187.69,183.92,187.42,183.54Z" transform="translate(-5.95 -8.8)"/><path class="cls-6" d="M77.08,216A19.53,19.53,0,0,1,77,211.1c0.18-1,.34-2,0.54-3.07a0.36,0.36,0,0,0-.7-0.16,6.12,6.12,0,0,0-.58,3.26c0.45,1.8.07,3.71,0.45,5.52a22.72,22.72,0,0,0,4.52,8.85,0,0,0,0,0,.08,0C79.67,222.5,77.39,219.51,77.08,216Z" transform="translate(-5.95 -8.8)"/><path class="cls-6" d="M159.12,207.1a0.07,0.07,0,0,0-.13,0c-2.65,3.7-6.32,6.71-8.72,10.62,0,0.07,0,.18.12,0.11a33.11,33.11,0,0,0,2.37-2.95c0.89-1.16,2-2.11,3-3.21S159.32,209,159.12,207.1Z" transform="translate(-5.95 -8.8)"/><path class="cls-6" d="M144.58,222.62a4.87,4.87,0,0,1-.76.2,1.16,1.16,0,0,0-.19-1.23,0.16,0.16,0,0,0-.22,0,3.26,3.26,0,0,0-.06,1.37,0.2,0.2,0,0,0,.08.18,2.39,2.39,0,0,0,1.45.7,2.52,2.52,0,0,0,1.45-.59,9.07,9.07,0,0,0,1.75-2.74,0,0,0,0,0-.07,0c-0.54.68-1.11,1.88-2,2C145.52,222.59,145,222.52,144.58,222.62Z" transform="translate(-5.95 -8.8)"/><path class="cls-6" d="M155.84,204.61a1.33,1.33,0,0,0,.88-0.2,1,1,0,0,0,.44-0.51,0.27,0.27,0,0,0,.33,0c0.59-.5,1.56-0.67,1.94-1.39a1.63,1.63,0,0,0,.14-1.27h0a0.37,0.37,0,0,0-.4-0.22,1.09,1.09,0,0,0-.49,1.06,1.85,1.85,0,0,1-.93.77,2.25,2.25,0,0,0-.64.68,0.27,0.27,0,0,0,0,.33,5.72,5.72,0,0,1-1.29.59A0.08,0.08,0,0,0,155.84,204.61Z" transform="translate(-5.95 -8.8)"/><path class="cls-6" d="M125.79,230.1l-1.21.21a3.65,3.65,0,0,1-.88-0.12,1.58,1.58,0,0,0-1,.17c-0.18.15-.31,0.37-0.5,0.51a0.08,0.08,0,0,0,0,.11,0.5,0.5,0,0,0,.55.14A3.51,3.51,0,0,1,124,231a5.19,5.19,0,0,0,1-.37,2.11,2.11,0,0,0,.88-0.38A0.11,0.11,0,0,0,125.79,230.1Z" transform="translate(-5.95 -8.8)"/><path class="cls-6" d="M142.61,227.05a0,0,0,0,0,0,.08,18.9,18.9,0,0,0,2.38-.59c0.45-.14,1.61-0.57,1.48-1.22a0.29,0.29,0,0,0-.47-0.18,4.8,4.8,0,0,1-.64.31,7.15,7.15,0,0,0-1,.58C143.81,226.4,143.19,226.69,142.61,227.05Z" transform="translate(-5.95 -8.8)"/><path class="cls-6" d="M148.4,203.59a2.87,2.87,0,0,1,2,.19,0,0,0,0,0,0,0,2,2,0,0,0-.62-0.4A2.54,2.54,0,0,1,149,203a0.34,0.34,0,0,0-.28-0.2,1.73,1.73,0,0,0-1.45.42l-0.27.25a1.19,1.19,0,0,0-.81.49c-0.48.74-.25,1.7-0.78,2.44a0,0,0,0,0,.06.06,5.27,5.27,0,0,0,1.33-1.78,5.07,5.07,0,0,1,.76-0.92A2.72,2.72,0,0,1,148.4,203.59Z" transform="translate(-5.95 -8.8)"/><path class="cls-6" d="M129.95,229.37a0.09,0.09,0,0,0,.05.16c4-.88,8.2-0.7,12.08-2.17a0,0,0,0,0,0-.06c-2.33.47-4.74,0.37-7.08,0.83C133.37,228.46,131.39,228.54,129.95,229.37Z" transform="translate(-5.95 -8.8)"/><path class="cls-6" d="M144,214.49a0,0,0,0,0,.09,0,11.13,11.13,0,0,1,.18-5.19c0.28-.79,1.09-1.36,1-2.27a0.25,0.25,0,0,0-.16-0.19c-1.35-.42-1.27,1.57-1.42,2.33A9.3,9.3,0,0,0,144,214.49Z" transform="translate(-5.95 -8.8)"/><path class="cls-6" d="M122.86,226.19c-1.27.44-2.5,0.34-3.77,0.65-1.49.37-3,.95-4.46,1.26-1,.2-1-0.18-1.72-0.34s-1,1.28-.13,1.43a1,1,0,0,0,.83-0.16,6.11,6.11,0,0,1,2.95-.88c1.52-.11,2.93.41,4.46,0.16a11.58,11.58,0,0,0,5.89-3.4s0-.14-0.07-0.11a13.06,13.06,0,0,0-1.3.9C124.22,226.64,123.9,225.83,122.86,226.19Z" transform="translate(-5.95 -8.8)"/><path class="cls-6" d="M139.07,210.84a4.62,4.62,0,0,1,2.31,3.36,0.05,0.05,0,0,0,.1,0,7.54,7.54,0,0,0-2.25-4.25,2,2,0,0,0-1.76-.64c-0.69.15-1.72,0.73-2.42,0.55a0.46,0.46,0,0,0-.6.5l0,0.25a0.24,0.24,0,0,0,.33.18l0.27-.1a0.44,0.44,0,0,0,.26-0.37C135.37,209.71,138.57,210.62,139.07,210.84Z" transform="translate(-5.95 -8.8)"/><path class="cls-6" d="M121,209.55c-0.85-.43-1.63-0.94-2.44-1.45a1.67,1.67,0,0,1-.46-1c-0.41-.89-1.81-1.72-2.6-2.21A9.26,9.26,0,0,0,112,203.3c-0.18,0-.21.22-0.06,0.29,1.59,0.79,3.45,1.25,4.66,2.66s0.2,1.46,1.65,2.31c2.27,1.34,4.88,2,7.08,3.4a0,0,0,0,0,0-.06A18.58,18.58,0,0,0,121,209.55Z" transform="translate(-5.95 -8.8)"/><path class="cls-6" d="M158.36,198.34c0.22,0.6.27,1.24,0.5,1.83a0.08,0.08,0,0,0,.15,0,3.25,3.25,0,0,0-.29-2,8.17,8.17,0,0,1-.78-2.87,0.37,0.37,0,0,0-.51-0.36c-0.48.15,0.09,1.18,0.22,1.55C157.86,197.12,158.13,197.72,158.36,198.34Z" transform="translate(-5.95 -8.8)"/><path class="cls-6" d="M133.08,225c-0.4.13-2.81,0.75-2.81,0.77a1.76,1.76,0,0,0-.54-1.13,3.61,3.61,0,0,0-1.11-1.32,0.27,0.27,0,0,0-.34.16c-0.58,1.28.9,1.85,1.4,2.84a0.28,0.28,0,0,0,.3.16c0.93-.2,1.83-0.55,2.77-0.71a16.23,16.23,0,0,1,2.62,0,9.42,9.42,0,0,0,3.44-.44c2.63-1.1,3.2-2.82,3.47-5.48a0.06,0.06,0,0,0-.11,0,17.82,17.82,0,0,1-.7,2.41,4.14,4.14,0,0,1-3.5,2.11A28.69,28.69,0,0,0,133.08,225Z" transform="translate(-5.95 -8.8)"/><path class="cls-6" d="M106.33,201.38a2.67,2.67,0,0,1,1.11.63,9.29,9.29,0,0,0,2.55,1c0.06,0,.13,0,0.1-0.1a3.15,3.15,0,0,0-1.85-1.12,13,13,0,0,0-2.37-.94,0.14,0.14,0,0,0-.12.23A0.87,0.87,0,0,0,106.33,201.38Z" transform="translate(-5.95 -8.8)"/><polygon class="cls-3" points="138.59 56.51 152.56 85.99 184.91 90.17 161.19 112.57 167.22 144.63 138.59 129 109.95 144.63 115.98 112.57 92.26 90.17 124.61 85.99 138.59 56.51"/><polygon class="cls-6" points="138.59 100.57 138.59 56.51 124.61 85.99 138.59 100.57"/><polygon class="cls-6" points="92.26 90.17 138.59 100.57 115.98 112.57 92.26 90.17"/><polygon class="cls-6" points="109.95 144.63 138.59 100.57 138.59 129 109.95 144.63"/><polygon class="cls-6" points="138.59 100.57 167.22 144.63 161.19 112.57 138.59 100.57"/><polygon class="cls-6" points="184.91 90.17 138.59 100.57 152.56 85.99 184.91 90.17"/><line class="cls-7" x1="119.41" y1="80.13" x2="105.23" y2="60.26"/><line class="cls-7" x1="155.7" y1="78.37" x2="173.03" y2="61.19"/><line class="cls-7" x1="138.59" y1="48.7" x2="138.59" y2="39.39"/><line class="cls-7" x1="167.22" y1="113.82" x2="179.02" y2="120.36"/><line class="cls-7" x1="110.02" y1="113.57" x2="95.76" y2="122.6"/><line class="cls-7" x1="138.3" y1="134.69" x2="138.3" y2="147.61"/></svg>