<svg id="Calque_6" data-name="Calque 6" xmlns="http://www.w3.org/2000/svg" xmlns:xlink="http://www.w3.org/1999/xlink" viewBox="0 0 3073.69 3073.33"><defs><style>.cls-1{fill:none;}.cls-2{clip-path:url(#clip-path);}.cls-3{fill:#eadfac;}.cls-4{fill:#fc583a;}</style><clipPath id="clip-path" transform="translate(534.91 387.8)"><rect class="cls-1" x="3.65" width="1992.92" height="2275.74"/></clipPath></defs><title>Fond2</title><g class="cls-2"><polygon class="cls-3" points="1510.35 3073.32 1572.96 3073.32 1536.85 1536.7 1510.35 3073.32"/><polygon class="cls-3" points="1404.51 3067.84 1457.38 3071.5 1536.85 1536.7 1404.51 3067.84"/><polygon class="cls-3" points="1299.29 3055.08 1351.79 3062.37 1536.85 1536.7 1299.29 3055.08"/><polygon class="cls-3" points="1195.2 3035.1 1247.08 3045.99 1536.85 1536.7 1195.2 3035.1"/><polygon class="cls-3" points="1092.74 3007.99 1143.74 3022.43 1536.85 1536.7 1092.74 3007.99"/><polygon class="cls-3" points="992.39 2973.88 1042.28 2991.8 1536.85 1536.7 992.39 2973.88"/><polygon class="cls-3" points="894.63 2932.94 943.16 2954.25 1536.85 1536.7 894.63 2932.94"/><polygon class="cls-3" points="799.93 2885.35 846.87 2909.96 1536.85 1536.7 799.93 2885.35"/><polygon class="cls-3" points="708.73 2831.36 753.86 2859.14 1536.85 1536.7 708.73 2831.36"/><polygon class="cls-3" points="621.47 2771.2 664.58 2802.03 1536.85 1536.7 621.47 2771.2"/><polygon class="cls-3" points="538.56 2705.18 579.45 2738.9 1536.85 1536.7 538.56 2705.18"/><polygon class="cls-3" points="460.4 2633.59 498.86 2670.06 1536.85 1536.7 460.4 2633.59"/><polygon class="cls-3" points="387.36 2556.79 423.22 2595.82 1536.85 1536.7 387.36 2556.79"/><polygon class="cls-3" points="319.79 2475.14 352.87 2516.55 1536.85 1536.7 319.79 2475.14"/><polygon class="cls-3" points="258 2389.02 288.15 2432.61 1536.85 1536.7 258 2389.02"/><polygon class="cls-3" points="202.3 2298.86 229.37 2344.42 1536.85 1536.7 202.3 2298.86"/><polygon class="cls-3" points="152.94 2205.06 176.81 2252.39 1536.85 1536.7 152.94 2205.06"/><polygon class="cls-3" points="110.17 2108.09 130.72 2156.95 1536.85 1536.7 110.17 2108.09"/><polygon class="cls-3" points="74.18 2008.4 91.31 2058.56 1536.85 1536.7 74.18 2008.4"/><polygon class="cls-3" points="45.14 1906.47 58.78 1957.68 1536.85 1536.7 45.14 1906.47"/><polygon class="cls-3" points="23.21 1802.78 33.28 1854.81 1536.85 1536.7 23.21 1802.78"/><polygon class="cls-3" points="8.47 1697.82 14.93 1750.42 1536.85 1536.7 8.47 1697.82"/><polygon class="cls-3" points="1 1592.1 3.82 1645.02 1536.85 1536.7 1 1592.1"/><polygon class="cls-3" points="0.83 1486.11 0 1539.1 1536.85 1536.7 0.83 1486.11"/><polygon class="cls-3" points="7.97 1380.36 3.49 1433.17 1536.85 1536.7 7.97 1380.36"/><polygon class="cls-3" points="22.38 1275.36 14.27 1327.74 1536.85 1536.7 22.38 1275.36"/><polygon class="cls-3" points="43.99 1171.6 32.29 1223.29 1536.85 1536.7 43.99 1171.6"/><polygon class="cls-3" points="72.71 1069.58 57.47 1120.34 1536.85 1536.7 72.71 1069.58"/><polygon class="cls-3" points="108.39 969.77 89.69 1019.37 1536.85 1536.7 108.39 969.77"/><polygon class="cls-3" points="150.86 872.67 128.78 920.86 1536.85 1536.7 150.86 872.67"/><polygon class="cls-3" points="199.92 778.72 174.58 825.27 1536.85 1536.7 199.92 778.72"/><polygon class="cls-3" points="255.34 688.38 226.85 733.07 1536.85 1536.7 255.34 688.38"/><polygon class="cls-3" points="316.86 602.07 285.35 644.7 1536.85 1536.7 316.86 602.07"/><polygon class="cls-3" points="384.17 520.21 349.81 560.56 1536.85 1536.7 384.17 520.21"/><polygon class="cls-3" points="456.97 443.18 419.91 481.07 1536.85 1536.7 456.97 443.18"/><polygon class="cls-3" points="534.91 371.35 495.32 406.6 1536.85 1536.7 534.91 371.35"/><polygon class="cls-3" points="617.61 305.07 575.69 337.5 1536.85 1536.7 617.61 305.07"/><polygon class="cls-3" points="704.68 244.64 660.63 274.1 1536.85 1536.7 704.68 244.64"/><polygon class="cls-3" points="795.72 190.36 749.73 216.72 1536.85 1536.7 795.72 190.36"/><polygon class="cls-3" points="890.27 142.48 842.58 165.6 1536.85 1536.7 890.27 142.48"/><polygon class="cls-3" points="987.9 101.23 938.73 121.01 1536.85 1536.7 987.9 101.23"/><polygon class="cls-3" points="1088.14 66.81 1037.73 83.16 1536.85 1536.7 1088.14 66.81"/><polygon class="cls-3" points="1190.52 39.38 1139.1 52.21 1536.85 1536.7 1190.52 39.38"/><polygon class="cls-3" points="1294.54 19.07 1242.36 28.33 1536.85 1536.7 1294.54 19.07"/><polygon class="cls-3" points="1399.72 5.98 1347.02 11.62 1536.85 1536.7 1399.72 5.98"/><polygon class="cls-3" points="1505.55 0.17 1452.58 2.16 1536.85 1536.7 1505.55 0.17"/><polygon class="cls-3" points="1611.52 1.66 1558.55 0 1536.85 1536.7 1611.52 1.66"/><polygon class="cls-3" points="1717.14 10.46 1664.41 5.15 1536.85 1536.7 1717.14 10.46"/><polygon class="cls-3" points="1821.91 26.51 1769.66 17.58 1536.85 1536.7 1821.91 26.51"/><polygon class="cls-3" points="1925.32 49.75 1873.81 37.24 1536.85 1536.7 1925.32 49.75"/><polygon class="cls-3" points="2026.88 80.06 1976.36 64.03 1536.85 1536.7 2026.88 80.06"/><polygon class="cls-3" points="2126.11 117.3 2076.81 97.83 1536.85 1536.7 2126.11 117.3"/><polygon class="cls-3" points="2222.53 161.29 2174.7 138.46 1536.85 1536.7 2222.53 161.29"/><polygon class="cls-3" points="2315.7 211.82 2269.55 185.75 1536.85 1536.7 2315.7 211.82"/><polygon class="cls-3" points="2405.16 268.65 2360.92 239.46 1536.85 1536.7 2405.16 268.65"/><polygon class="cls-3" points="2490.49 331.51 2448.37 299.34 1536.85 1536.7 2490.49 331.51"/><polygon class="cls-3" points="2571.29 400.1 2531.48 365.11 1536.85 1536.7 2571.29 400.1"/><polygon class="cls-3" points="2647.17 474.1 2609.87 436.45 1536.85 1536.7 2647.17 474.1"/><polygon class="cls-3" points="2717.76 553.15 2683.15 513.02 1536.85 1536.7 2717.76 553.15"/><polygon class="cls-3" points="2782.75 636.88 2750.98 594.46 1536.85 1536.7 2782.75 636.88"/><polygon class="cls-3" points="2841.8 724.89 2813.03 680.38 1536.85 1536.7 2841.8 724.89"/><polygon class="cls-3" points="2894.65 816.77 2869.02 770.38 1536.85 1536.7 2894.65 816.77"/><polygon class="cls-3" points="2941.04 912.06 2918.67 864.01 1536.85 1536.7 2941.04 912.06"/><polygon class="cls-3" points="2980.75 1010.33 2961.74 960.85 1536.85 1536.7 2980.75 1010.33"/><polygon class="cls-3" points="3013.6 1111.1 2998.04 1060.43 1536.85 1536.7 3013.6 1111.1"/><polygon class="cls-3" points="3039.42 1213.89 3027.39 1162.27 1536.85 1536.7 3039.42 1213.89"/><polygon class="cls-3" points="3058.1 1318.22 3049.66 1265.89 1536.85 1536.7 3058.1 1318.22"/><polygon class="cls-3" points="3069.54 1423.59 3064.72 1370.8 1536.85 1536.7 3069.54 1423.59"/><polygon class="cls-3" points="3073.69 1529.49 3072.53 1476.5 1536.85 1536.7 3073.69 1529.49"/><polygon class="cls-3" points="3070.53 1635.43 3073.02 1582.49 1536.85 1536.7 3070.53 1635.43"/><polygon class="cls-3" points="3060.08 1740.9 3066.21 1688.26 1536.85 1536.7 3060.08 1740.9"/><polygon class="cls-3" points="3042.38 1845.4 3052.13 1793.3 1536.85 1536.7 3042.38 1845.4"/><polygon class="cls-3" points="3017.53 1948.43 3030.84 1897.13 1536.85 1536.7 3017.53 1948.43"/><polygon class="cls-3" points="2985.63 2049.5 3002.45 1999.24 1536.85 1536.7 2985.63 2049.5"/><polygon class="cls-3" points="2946.84 2148.14 2967.08 2099.16 1536.85 1536.7 2946.84 2148.14"/><polygon class="cls-3" points="2901.34 2243.86 2924.92 2196.39 1536.85 1536.7 2901.34 2243.86"/><polygon class="cls-3" points="2849.36 2336.23 2876.15 2290.49 1536.85 1536.7 2849.36 2336.23"/><polygon class="cls-3" points="2791.13 2424.79 2821.01 2381.01 1536.85 1536.7 2791.13 2424.79"/><polygon class="cls-3" points="2726.94 2509.12 2759.76 2467.51 1536.85 1536.7 2726.94 2509.12"/><polygon class="cls-3" points="2657.09 2588.84 2692.7 2549.58 1536.85 1536.7 2657.09 2588.84"/><polygon class="cls-3" points="2581.91 2663.54 2620.14 2626.84 1536.85 1536.7 2581.91 2663.54"/><polygon class="cls-3" points="2501.76 2732.89 2542.43 2698.91 1536.85 1536.7 2501.76 2732.89"/><polygon class="cls-3" points="2417.02 2796.55 2459.94 2765.45 1536.85 1536.7 2417.02 2796.55"/><polygon class="cls-3" points="2328.09 2854.22 2373.05 2826.15 1536.85 1536.7 2328.09 2854.22"/><polygon class="cls-3" points="2235.41 2905.62 2282.2 2880.72 1536.85 1536.7 2235.41 2905.62"/><polygon class="cls-3" points="2139.4 2950.51 2187.79 2928.89 1536.85 1536.7 2139.4 2950.51"/><polygon class="cls-3" points="2040.52 2988.68 2090.29 2970.45 1536.85 1536.7 2040.52 2988.68"/><polygon class="cls-3" points="1939.25 3019.94 1990.15 3005.18 1536.85 1536.7 1939.25 3019.94"/><polygon class="cls-3" points="1836.06 3044.15 1887.87 3032.93 1536.85 1536.7 1836.06 3044.15"/><polygon class="cls-3" points="1731.45 3061.18 1783.91 3053.57 1536.85 1536.7 1731.45 3061.18"/><polygon class="cls-3" points="1625.92 3070.97 1678.77 3066.99 1536.85 1536.7 1625.92 3070.97"/><polygon class="cls-4" points="1457.38 3071.5 1510.35 3073.32 1536.85 1536.7 1457.38 3071.5"/><polygon class="cls-4" points="1351.79 3062.37 1404.51 3067.84 1536.85 1536.7 1351.79 3062.37"/><polygon class="cls-4" points="1247.08 3045.99 1299.29 3055.08 1536.85 1536.7 1247.08 3045.99"/><polygon class="cls-4" points="1143.74 3022.43 1195.2 3035.1 1536.85 1536.7 1143.74 3022.43"/><polygon class="cls-4" points="1042.28 2991.8 1092.74 3007.99 1536.85 1536.7 1042.28 2991.8"/><polygon class="cls-4" points="943.16 2954.25 992.39 2973.88 1536.85 1536.7 943.16 2954.25"/><polygon class="cls-4" points="846.87 2909.96 894.63 2932.94 1536.85 1536.7 846.87 2909.96"/><polygon class="cls-4" points="753.86 2859.14 799.93 2885.35 1536.85 1536.7 753.86 2859.14"/><polygon class="cls-4" points="664.58 2802.03 708.73 2831.36 1536.85 1536.7 664.58 2802.03"/><polygon class="cls-4" points="579.45 2738.9 621.47 2771.2 1536.85 1536.7 579.45 2738.9"/><polygon class="cls-4" points="498.86 2670.06 538.56 2705.18 1536.85 1536.7 498.86 2670.06"/><polygon class="cls-4" points="423.22 2595.82 460.4 2633.59 1536.85 1536.7 423.22 2595.82"/><polygon class="cls-4" points="352.87 2516.55 387.36 2556.79 1536.85 1536.7 352.87 2516.55"/><polygon class="cls-4" points="288.15 2432.61 319.79 2475.14 1536.85 1536.7 288.15 2432.61"/><polygon class="cls-4" points="229.37 2344.42 258 2389.02 1536.85 1536.7 229.37 2344.42"/><polygon class="cls-4" points="176.81 2252.39 202.3 2298.86 1536.85 1536.7 176.81 2252.39"/><polygon class="cls-4" points="130.72 2156.95 152.94 2205.06 1536.85 1536.7 130.72 2156.95"/><polygon class="cls-4" points="91.31 2058.56 110.17 2108.09 1536.85 1536.7 91.31 2058.56"/><polygon class="cls-4" points="58.78 1957.68 74.18 2008.4 1536.85 1536.7 58.78 1957.68"/><polygon class="cls-4" points="33.28 1854.81 45.14 1906.47 1536.85 1536.7 33.28 1854.81"/><polygon class="cls-4" points="14.93 1750.42 23.21 1802.78 1536.85 1536.7 14.93 1750.42"/><polygon class="cls-4" points="3.82 1645.02 8.47 1697.82 1536.85 1536.7 3.82 1645.02"/><polygon class="cls-4" points="0 1539.1 1 1592.1 1536.85 1536.7 0 1539.1"/><polygon class="cls-4" points="3.49 1433.17 0.83 1486.11 1536.85 1536.7 3.49 1433.17"/><polygon class="cls-4" points="14.27 1327.74 7.97 1380.36 1536.85 1536.7 14.27 1327.74"/><polygon class="cls-4" points="32.29 1223.29 22.38 1275.36 1536.85 1536.7 32.29 1223.29"/><polygon class="cls-4" points="57.47 1120.34 43.99 1171.6 1536.85 1536.7 57.47 1120.34"/><polygon class="cls-4" points="89.69 1019.37 72.71 1069.58 1536.85 1536.7 89.69 1019.37"/><polygon class="cls-4" points="128.78 920.86 108.39 969.77 1536.85 1536.7 128.78 920.86"/><polygon class="cls-4" points="174.58 825.27 150.86 872.67 1536.85 1536.7 174.58 825.27"/><polygon class="cls-4" points="226.85 733.07 199.92 778.72 1536.85 1536.7 226.85 733.07"/><polygon class="cls-4" points="285.35 644.7 255.34 688.38 1536.85 1536.7 285.35 644.7"/><polygon class="cls-4" points="349.81 560.56 316.86 602.07 1536.85 1536.7 349.81 560.56"/><polygon class="cls-4" points="419.91 481.07 384.17 520.21 1536.85 1536.7 419.91 481.07"/><polygon class="cls-4" points="495.32 406.6 456.97 443.18 1536.85 1536.7 495.32 406.6"/><polygon class="cls-4" points="575.69 337.5 534.91 371.35 1536.85 1536.7 575.69 337.5"/><polygon class="cls-4" points="660.63 274.1 617.61 305.07 1536.85 1536.7 660.63 274.1"/><polygon class="cls-4" points="749.73 216.72 704.68 244.64 1536.85 1536.7 749.73 216.72"/><polygon class="cls-4" points="842.58 165.6 795.72 190.36 1536.85 1536.7 842.58 165.6"/><polygon class="cls-4" points="938.73 121.01 890.27 142.48 1536.85 1536.7 938.73 121.01"/><polygon class="cls-4" points="1037.73 83.16 987.9 101.23 1536.85 1536.7 1037.73 83.16"/><polygon class="cls-4" points="1139.1 52.21 1088.14 66.81 1536.85 1536.7 1139.1 52.21"/><polygon class="cls-4" points="1242.36 28.33 1190.52 39.38 1536.85 1536.7 1242.36 28.33"/><polygon class="cls-4" points="1347.02 11.62 1294.54 19.07 1536.85 1536.7 1347.02 11.62"/><polygon class="cls-4" points="1452.58 2.16 1399.72 5.98 1536.85 1536.7 1452.58 2.16"/><polygon class="cls-4" points="1558.55 0 1505.55 0.17 1536.85 1536.7 1558.55 0"/><polygon class="cls-4" points="1664.41 5.15 1611.52 1.66 1536.85 1536.7 1664.41 5.15"/><polygon class="cls-4" points="1769.66 17.58 1717.14 10.46 1536.85 1536.7 1769.66 17.58"/><polygon class="cls-4" points="1873.81 37.24 1821.91 26.51 1536.85 1536.7 1873.81 37.24"/><polygon class="cls-4" points="1976.36 64.03 1925.32 49.75 1536.85 1536.7 1976.36 64.03"/><polygon class="cls-4" points="2076.81 97.83 2026.88 80.06 1536.85 1536.7 2076.81 97.83"/><polygon class="cls-4" points="2174.7 138.46 2126.11 117.3 1536.85 1536.7 2174.7 138.46"/><polygon class="cls-4" points="2269.55 185.75 2222.53 161.29 1536.85 1536.7 2269.55 185.75"/><polygon class="cls-4" points="2360.92 239.46 2315.7 211.82 1536.85 1536.7 2360.92 239.46"/><polygon class="cls-4" points="2448.37 299.34 2405.16 268.65 1536.85 1536.7 2448.37 299.34"/><polygon class="cls-4" points="2531.48 365.11 2490.49 331.51 1536.85 1536.7 2531.48 365.11"/><polygon class="cls-4" points="2609.87 436.45 2571.29 400.1 1536.85 1536.7 2609.87 436.45"/><polygon class="cls-4" points="2683.15 513.02 2647.17 474.1 1536.85 1536.7 2683.15 513.02"/><polygon class="cls-4" points="2750.98 594.46 2717.76 553.15 1536.85 1536.7 2750.98 594.46"/><polygon class="cls-4" points="2813.03 680.38 2782.75 636.88 1536.85 1536.7 2813.03 680.38"/><polygon class="cls-4" points="2869.02 770.38 2841.8 724.89 1536.85 1536.7 2869.02 770.38"/><polygon class="cls-4" points="2918.67 864.01 2894.65 816.77 1536.85 1536.7 2918.67 864.01"/><polygon class="cls-4" points="2961.74 960.85 2941.04 912.06 1536.85 1536.7 2961.74 960.85"/><polygon class="cls-4" points="2998.04 1060.43 2980.75 1010.33 1536.85 1536.7 2998.04 1060.43"/><polygon class="cls-4" points="3027.39 1162.27 3013.6 1111.1 1536.85 1536.7 3027.39 1162.27"/><polygon class="cls-4" points="3049.66 1265.89 3039.42 1213.89 1536.85 1536.7 3049.66 1265.89"/><polygon class="cls-4" points="3064.72 1370.8 3058.1 1318.22 1536.85 1536.7 3064.72 1370.8"/><polygon class="cls-4" points="3072.53 1476.5 3069.54 1423.59 1536.85 1536.7 3072.53 1476.5"/><polygon class="cls-4" points="3073.02 1582.49 3073.69 1529.49 1536.85 1536.7 3073.02 1582.49"/><polygon class="cls-4" points="3066.21 1688.26 3070.53 1635.43 1536.85 1536.7 3066.21 1688.26"/><polygon class="cls-4" points="3052.13 1793.3 3060.08 1740.9 1536.85 1536.7 3052.13 1793.3"/><polygon class="cls-4" points="3030.84 1897.13 3042.38 1845.4 1536.85 1536.7 3030.84 1897.13"/><polygon class="cls-4" points="3002.45 1999.24 3017.53 1948.43 1536.85 1536.7 3002.45 1999.24"/><polygon class="cls-4" points="2967.08 2099.16 2985.63 2049.5 1536.85 1536.7 2967.08 2099.16"/><polygon class="cls-4" points="2924.92 2196.39 2946.84 2148.14 1536.85 1536.7 2924.92 2196.39"/><polygon class="cls-4" points="2876.15 2290.49 2901.34 2243.86 1536.85 1536.7 2876.15 2290.49"/><polygon class="cls-4" points="2821.01 2381.01 2849.36 2336.23 1536.85 1536.7 2821.01 2381.01"/><polygon class="cls-4" points="2759.76 2467.51 2791.13 2424.79 1536.85 1536.7 2759.76 2467.51"/><polygon class="cls-4" points="2692.7 2549.58 2726.94 2509.12 1536.85 1536.7 2692.7 2549.58"/><polygon class="cls-4" points="2620.14 2626.84 2657.09 2588.84 1536.85 1536.7 2620.14 2626.84"/><polygon class="cls-4" points="2542.43 2698.91 2581.91 2663.54 1536.85 1536.7 2542.43 2698.91"/><polygon class="cls-4" points="2459.94 2765.45 2501.76 2732.89 1536.85 1536.7 2459.94 2765.45"/><polygon class="cls-4" points="2373.05 2826.15 2417.02 2796.55 1536.85 1536.7 2373.05 2826.15"/><polygon class="cls-4" points="2282.2 2880.72 2328.09 2854.22 1536.85 1536.7 2282.2 2880.72"/><polygon class="cls-4" points="2187.79 2928.89 2235.41 2905.62 1536.85 1536.7 2187.79 2928.89"/><polygon class="cls-4" points="2090.29 2970.45 2139.4 2950.51 1536.85 1536.7 2090.29 2970.45"/><polygon class="cls-4" points="1990.15 3005.18 2040.52 2988.68 1536.85 1536.7 1990.15 3005.18"/><polygon class="cls-4" points="1887.87 3032.93 1939.25 3019.94 1536.85 1536.7 1887.87 3032.93"/><polygon class="cls-4" points="1783.91 3053.57 1836.06 3044.15 1536.85 1536.7 1783.91 3053.57"/><polygon class="cls-4" points="1678.77 3066.99 1731.45 3061.18 1536.85 1536.7 1678.77 3066.99"/><polygon class="cls-4" points="1572.96 3073.13 1625.92 3070.97 1536.85 1536.7 1572.96 3073.13"/></g></svg>